<svg xmlns="http://www.w3.org/2000/svg" viewBox="0 0 640 400" font-family="sans-serif" font-size="11">
  <text x="342" y="18" text-anchor="middle" font-size="14" font-weight="bold">echo: server CPU vs connections</text>
  <rect x="65" y="35" width="555" height="275" fill="white" stroke="#ccc"/>
  <line x1="65" y1="308.9" x2="620.0" y2="308.9" stroke="#ddd" stroke-width="1"/>
  <text x="60" y="311.9" text-anchor="end" font-size="9" fill="#333">0</text>
  <line x1="65" y1="239.2" x2="620.0" y2="239.2" stroke="#ddd" stroke-width="1"/>
  <text x="60" y="242.2" text-anchor="end" font-size="9" fill="#333">50</text>
  <line x1="65" y1="169.5" x2="620.0" y2="169.5" stroke="#ddd" stroke-width="1"/>
  <text x="60" y="172.5" text-anchor="end" font-size="9" fill="#333">100</text>
  <line x1="65" y1="99.7" x2="620.0" y2="99.7" stroke="#ddd" stroke-width="1"/>
  <text x="60" y="102.7" text-anchor="end" font-size="9" fill="#333">150</text>
  <line x1="65.0" y1="35" x2="65.0" y2="310.0" stroke="#ddd" stroke-width="1"/>
  <text x="65.0" y="324.0" text-anchor="middle" font-size="9" fill="#333">0</text>
  <line x1="157.5" y1="35" x2="157.5" y2="310.0" stroke="#ddd" stroke-width="1"/>
  <text x="157.5" y="324.0" text-anchor="middle" font-size="9" fill="#333">500</text>
  <line x1="250.0" y1="35" x2="250.0" y2="310.0" stroke="#ddd" stroke-width="1"/>
  <text x="250.0" y="324.0" text-anchor="middle" font-size="9" fill="#333">1000</text>
  <line x1="342.5" y1="35" x2="342.5" y2="310.0" stroke="#ddd" stroke-width="1"/>
  <text x="342.5" y="324.0" text-anchor="middle" font-size="9" fill="#333">1500</text>
  <line x1="435.0" y1="35" x2="435.0" y2="310.0" stroke="#ddd" stroke-width="1"/>
  <text x="435.0" y="324.0" text-anchor="middle" font-size="9" fill="#333">2000</text>
  <line x1="527.5" y1="35" x2="527.5" y2="310.0" stroke="#ddd" stroke-width="1"/>
  <text x="527.5" y="324.0" text-anchor="middle" font-size="9" fill="#333">2500</text>
  <line x1="620.0" y1="35" x2="620.0" y2="310.0" stroke="#ddd" stroke-width="1"/>
  <text x="620.0" y="324.0" text-anchor="middle" font-size="9" fill="#333">3000</text>
  <text x="342" y="340" text-anchor="middle" font-size="11" fill="#333">connections</text>
  <text x="14" y="172" text-anchor="middle" font-size="11" fill="#333" transform="rotate(-90,14,172)">median server CPU %</text>
  <polyline points="65.2,293.1 74.2,290.8 102.0,287.5 176.0,279.0 250.0,271.6 342.5,262.1 435.0,254.1 620.0,240.7" fill="none" stroke="#1f77b4" stroke-width="1.8"/>
  <circle cx="65.2" cy="293.1" r="3" fill="#1f77b4"><title>apex_rudp: 11.32 at 1 connections</title></circle>
  <circle cx="74.2" cy="290.8" r="3" fill="#1f77b4"><title>apex_rudp: 13 at 50 connections</title></circle>
  <circle cx="102.0" cy="287.5" r="3" fill="#1f77b4"><title>apex_rudp: 15.36 at 200 connections</title></circle>
  <circle cx="176.0" cy="279.0" r="3" fill="#1f77b4"><title>apex_rudp: 21.47 at 600 connections</title></circle>
  <circle cx="250.0" cy="271.6" r="3" fill="#1f77b4"><title>apex_rudp: 26.72 at 1000 connections</title></circle>
  <circle cx="342.5" cy="262.1" r="3" fill="#1f77b4"><title>apex_rudp: 33.53 at 1500 connections</title></circle>
  <circle cx="435.0" cy="254.1" r="3" fill="#1f77b4"><title>apex_rudp: 39.27 at 2000 connections</title></circle>
  <circle cx="620.0" cy="240.7" r="3" fill="#1f77b4"><title>apex_rudp: 48.91 at 3000 connections</title></circle>
  <polyline points="65.2,267.2 74.2,259.8 102.0,256.9 176.0,269.0 250.0,255.4 342.5,240.5 435.0,228.2 620.0,203.5" fill="none" stroke="#ff7f0e" stroke-width="1.8"/>
  <circle cx="65.2" cy="267.2" r="3" fill="#ff7f0e"><title>coop_rudp: 29.89 at 1 connections</title></circle>
  <circle cx="74.2" cy="259.8" r="3" fill="#ff7f0e"><title>coop_rudp: 35.23 at 50 connections</title></circle>
  <circle cx="102.0" cy="256.9" r="3" fill="#ff7f0e"><title>coop_rudp: 37.28 at 200 connections</title></circle>
  <circle cx="176.0" cy="269.0" r="3" fill="#ff7f0e"><title>coop_rudp: 28.6 at 600 connections</title></circle>
  <circle cx="250.0" cy="255.4" r="3" fill="#ff7f0e"><title>coop_rudp: 38.38 at 1000 connections</title></circle>
  <circle cx="342.5" cy="240.5" r="3" fill="#ff7f0e"><title>coop_rudp: 49.04 at 1500 connections</title></circle>
  <circle cx="435.0" cy="228.2" r="3" fill="#ff7f0e"><title>coop_rudp: 57.86 at 2000 connections</title></circle>
  <circle cx="620.0" cy="203.5" r="3" fill="#ff7f0e"><title>coop_rudp: 75.58 at 3000 connections</title></circle>
  <polyline points="65.2,293.6 74.2,283.7 102.0,243.6 176.0,178.5 250.0,177.5" fill="none" stroke="#2ca02c" stroke-width="1.8"/>
  <circle cx="65.2" cy="293.6" r="3" fill="#2ca02c"><title>enet: 10.97 at 1 connections</title></circle>
  <circle cx="74.2" cy="283.7" r="3" fill="#2ca02c"><title>enet: 18.1 at 50 connections</title></circle>
  <circle cx="102.0" cy="243.6" r="3" fill="#2ca02c"><title>enet: 46.82 at 200 connections</title></circle>
  <circle cx="176.0" cy="178.5" r="3" fill="#2ca02c"><title>enet: 93.54 at 600 connections</title></circle>
  <circle cx="250.0" cy="177.5" r="3" fill="#2ca02c"><title>enet: 94.21 at 1000 connections</title></circle>
  <polyline points="65.2,295.5 74.2,281.5 102.0,240.1 176.0,146.1 250.0,104.3 342.5,72.2 435.0,58.7" fill="none" stroke="#d62728" stroke-width="1.8"/>
  <circle cx="65.2" cy="295.5" r="3" fill="#d62728"><title>gns: 9.65 at 1 connections</title></circle>
  <circle cx="74.2" cy="281.5" r="3" fill="#d62728"><title>gns: 19.68 at 50 connections</title></circle>
  <circle cx="102.0" cy="240.1" r="3" fill="#d62728"><title>gns: 49.35 at 200 connections</title></circle>
  <circle cx="176.0" cy="146.1" r="3" fill="#d62728"><title>gns: 116.78 at 600 connections</title></circle>
  <circle cx="250.0" cy="104.3" r="3" fill="#d62728"><title>gns: 146.73 at 1000 connections</title></circle>
  <circle cx="342.5" cy="72.2" r="3" fill="#d62728"><title>gns: 169.77 at 1500 connections</title></circle>
  <circle cx="435.0" cy="58.7" r="3" fill="#d62728"><title>gns: 179.43 at 2000 connections</title></circle>
  <polyline points="65.2,295.3 74.2,289.7 102.0,259.7 176.0,182.7" fill="none" stroke="#9467bd" stroke-width="1.8"/>
  <circle cx="65.2" cy="295.3" r="3" fill="#9467bd"><title>kcp: 9.79 at 1 connections</title></circle>
  <circle cx="74.2" cy="289.7" r="3" fill="#9467bd"><title>kcp: 13.74 at 50 connections</title></circle>
  <circle cx="102.0" cy="259.7" r="3" fill="#9467bd"><title>kcp: 35.26 at 200 connections</title></circle>
  <circle cx="176.0" cy="182.7" r="3" fill="#9467bd"><title>kcp: 90.53 at 600 connections</title></circle>
  <polyline points="65.2,293.0 74.2,282.4 102.0,252.7 176.0,163.2 250.0,101.4 342.5,80.7 435.0,64.7 620.0,47.5" fill="none" stroke="#8c564b" stroke-width="1.8"/>
  <circle cx="65.2" cy="293.0" r="3" fill="#8c564b"><title>litenetlib: 11.39 at 1 connections</title></circle>
  <circle cx="74.2" cy="282.4" r="3" fill="#8c564b"><title>litenetlib: 19.03 at 50 connections</title></circle>
  <circle cx="102.0" cy="252.7" r="3" fill="#8c564b"><title>litenetlib: 40.27 at 200 connections</title></circle>
  <circle cx="176.0" cy="163.2" r="3" fill="#8c564b"><title>litenetlib: 104.45 at 600 connections</title></circle>
  <circle cx="250.0" cy="101.4" r="3" fill="#8c564b"><title>litenetlib: 148.82 at 1000 connections</title></circle>
  <circle cx="342.5" cy="80.7" r="3" fill="#8c564b"><title>litenetlib: 163.66 at 1500 connections</title></circle>
  <circle cx="435.0" cy="64.7" r="3" fill="#8c564b"><title>litenetlib: 175.11 at 2000 connections</title></circle>
  <circle cx="620.0" cy="47.5" r="3" fill="#8c564b"><title>litenetlib: 187.45 at 3000 connections</title></circle>
  <polyline points="65.2,294.5 74.2,284.8 102.0,251.7 176.0,179.7 250.0,174.8" fill="none" stroke="#e377c2" stroke-width="1.8"/>
  <circle cx="65.2" cy="294.5" r="3" fill="#e377c2"><title>lsquic: 10.32 at 1 connections</title></circle>
  <circle cx="74.2" cy="284.8" r="3" fill="#e377c2"><title>lsquic: 17.3 at 50 connections</title></circle>
  <circle cx="102.0" cy="251.7" r="3" fill="#e377c2"><title>lsquic: 40.99 at 200 connections</title></circle>
  <circle cx="176.0" cy="179.7" r="3" fill="#e377c2"><title>lsquic: 92.63 at 600 connections</title></circle>
  <circle cx="250.0" cy="174.8" r="3" fill="#e377c2"><title>lsquic: 96.19 at 1000 connections</title></circle>
  <polyline points="65.2,296.2 74.2,285.4 102.0,230.2" fill="none" stroke="#7f7f7f" stroke-width="1.8"/>
  <circle cx="65.2" cy="296.2" r="3" fill="#7f7f7f"><title>mini_rudp: 9.1 at 1 connections</title></circle>
  <circle cx="74.2" cy="285.4" r="3" fill="#7f7f7f"><title>mini_rudp: 16.87 at 50 connections</title></circle>
  <circle cx="102.0" cy="230.2" r="3" fill="#7f7f7f"><title>mini_rudp: 56.43 at 200 connections</title></circle>
  <polyline points="65.2,297.5 74.2,250.9 102.0,135.1 176.0,123.3 250.0,118.2 342.5,110.5" fill="none" stroke="#bcbd22" stroke-width="1.8"/>
  <circle cx="65.2" cy="297.5" r="3" fill="#bcbd22"><title>msquic: 8.18 at 1 connections</title></circle>
  <circle cx="74.2" cy="250.9" r="3" fill="#bcbd22"><title>msquic: 41.57 at 50 connections</title></circle>
  <circle cx="102.0" cy="135.1" r="3" fill="#bcbd22"><title>msquic: 124.6 at 200 connections</title></circle>
  <circle cx="176.0" cy="123.3" r="3" fill="#bcbd22"><title>msquic: 133.11 at 600 connections</title></circle>
  <circle cx="250.0" cy="118.2" r="3" fill="#bcbd22"><title>msquic: 136.72 at 1000 connections</title></circle>
  <circle cx="342.5" cy="110.5" r="3" fill="#bcbd22"><title>msquic: 142.25 at 1500 connections</title></circle>
  <polyline points="65.2,291.5 74.2,185.0 102.0,171.0 176.0,170.8" fill="none" stroke="#17becf" stroke-width="1.8"/>
  <circle cx="65.2" cy="291.5" r="3" fill="#17becf"><title>quiche: 12.5 at 1 connections</title></circle>
  <circle cx="74.2" cy="185.0" r="3" fill="#17becf"><title>quiche: 88.88 at 50 connections</title></circle>
  <circle cx="102.0" cy="171.0" r="3" fill="#17becf"><title>quiche: 98.89 at 200 connections</title></circle>
  <circle cx="176.0" cy="170.8" r="3" fill="#17becf"><title>quiche: 99 at 600 connections</title></circle>
  <polyline points="65.2,296.0 74.2,276.2 102.0,218.7 176.0,149.3 250.0,146.3 342.5,144.6 435.0,139.8 620.0,116.1" fill="none" stroke="#aec7e8" stroke-width="1.8"/>
  <circle cx="65.2" cy="296.0" r="3" fill="#aec7e8"><title>raknet: 9.27 at 1 connections</title></circle>
  <circle cx="74.2" cy="276.2" r="3" fill="#aec7e8"><title>raknet: 23.46 at 50 connections</title></circle>
  <circle cx="102.0" cy="218.7" r="3" fill="#aec7e8"><title>raknet: 64.67 at 200 connections</title></circle>
  <circle cx="176.0" cy="149.3" r="3" fill="#aec7e8"><title>raknet: 114.47 at 600 connections</title></circle>
  <circle cx="250.0" cy="146.3" r="3" fill="#aec7e8"><title>raknet: 116.6 at 1000 connections</title></circle>
  <circle cx="342.5" cy="144.6" r="3" fill="#aec7e8"><title>raknet: 117.82 at 1500 connections</title></circle>
  <circle cx="435.0" cy="139.8" r="3" fill="#aec7e8"><title>raknet: 121.25 at 2000 connections</title></circle>
  <circle cx="620.0" cy="116.1" r="3" fill="#aec7e8"><title>raknet: 138.24 at 3000 connections</title></circle>
  <polyline points="65.2,296.0 74.2,276.1 102.0,218.0 176.0,146.0 250.0,150.6 342.5,144.6 435.0,141.1 620.0,117.2" fill="none" stroke="#ffbb78" stroke-width="1.8"/>
  <circle cx="65.2" cy="296.0" r="3" fill="#ffbb78"><title>slikenet: 9.26 at 1 connections</title></circle>
  <circle cx="74.2" cy="276.1" r="3" fill="#ffbb78"><title>slikenet: 23.55 at 50 connections</title></circle>
  <circle cx="102.0" cy="218.0" r="3" fill="#ffbb78"><title>slikenet: 65.2 at 200 connections</title></circle>
  <circle cx="176.0" cy="146.0" r="3" fill="#ffbb78"><title>slikenet: 116.83 at 600 connections</title></circle>
  <circle cx="250.0" cy="150.6" r="3" fill="#ffbb78"><title>slikenet: 113.55 at 1000 connections</title></circle>
  <circle cx="342.5" cy="144.6" r="3" fill="#ffbb78"><title>slikenet: 117.81 at 1500 connections</title></circle>
  <circle cx="435.0" cy="141.1" r="3" fill="#ffbb78"><title>slikenet: 120.33 at 2000 connections</title></circle>
  <circle cx="620.0" cy="117.2" r="3" fill="#ffbb78"><title>slikenet: 137.5 at 3000 connections</title></circle>
  <polyline points="65.2,293.2 74.2,280.4" fill="none" stroke="#98df8a" stroke-width="1.8"/>
  <circle cx="65.2" cy="293.2" r="3" fill="#98df8a"><title>yojimbo: 11.27 at 1 connections</title></circle>
  <circle cx="74.2" cy="280.4" r="3" fill="#98df8a"><title>yojimbo: 20.47 at 50 connections</title></circle>
  <rect x="65" y="347" width="12" height="10" fill="#1f77b4" rx="1"/>  <text x="81" y="355" font-size="9">apex_rudp</text>
  <rect x="342" y="347" width="12" height="10" fill="#ff7f0e" rx="1"/>  <text x="358" y="355" font-size="9">coop_rudp</text>
  <rect x="65" y="363" width="12" height="10" fill="#2ca02c" rx="1"/>  <text x="81" y="371" font-size="9">enet</text>
  <rect x="342" y="363" width="12" height="10" fill="#d62728" rx="1"/>  <text x="358" y="371" font-size="9">gns</text>
  <rect x="65" y="379" width="12" height="10" fill="#9467bd" rx="1"/>  <text x="81" y="387" font-size="9">kcp</text>
  <rect x="342" y="379" width="12" height="10" fill="#8c564b" rx="1"/>  <text x="358" y="387" font-size="9">litenetlib</text>
  <rect x="65" y="395" width="12" height="10" fill="#e377c2" rx="1"/>  <text x="81" y="403" font-size="9">lsquic</text>
  <rect x="342" y="395" width="12" height="10" fill="#7f7f7f" rx="1"/>  <text x="358" y="403" font-size="9">mini_rudp</text>
  <rect x="65" y="411" width="12" height="10" fill="#bcbd22" rx="1"/>  <text x="81" y="419" font-size="9">msquic</text>
  <rect x="342" y="411" width="12" height="10" fill="#17becf" rx="1"/>  <text x="358" y="419" font-size="9">quiche</text>
  <rect x="65" y="427" width="12" height="10" fill="#aec7e8" rx="1"/>  <text x="81" y="435" font-size="9">raknet</text>
  <rect x="342" y="427" width="12" height="10" fill="#ffbb78" rx="1"/>  <text x="358" y="435" font-size="9">slikenet</text>
  <rect x="65" y="443" width="12" height="10" fill="#98df8a" rx="1"/>  <text x="81" y="451" font-size="9">yojimbo</text>
</svg>
