<svg xmlns="http://www.w3.org/2000/svg" viewBox="0 0 640 400" font-family="sans-serif" font-size="11">
  <text x="342" y="18" text-anchor="middle" font-size="14" font-weight="bold">echo: delivery ratio vs connections</text>
  <rect x="65" y="35" width="555" height="275" fill="white" stroke="#ccc"/>
  <line x1="65" y1="297.7" x2="620.0" y2="297.7" stroke="#ddd" stroke-width="1"/>
  <text x="60" y="300.7" text-anchor="end" font-size="9" fill="#333">0.2</text>
  <line x1="65" y1="234.7" x2="620.0" y2="234.7" stroke="#ddd" stroke-width="1"/>
  <text x="60" y="237.7" text-anchor="end" font-size="9" fill="#333">0.4</text>
  <line x1="65" y1="171.6" x2="620.0" y2="171.6" stroke="#ddd" stroke-width="1"/>
  <text x="60" y="174.6" text-anchor="end" font-size="9" fill="#333">0.6</text>
  <line x1="65" y1="108.5" x2="620.0" y2="108.5" stroke="#ddd" stroke-width="1"/>
  <text x="60" y="111.5" text-anchor="end" font-size="9" fill="#333">0.8</text>
  <line x1="65" y1="45.5" x2="620.0" y2="45.5" stroke="#ddd" stroke-width="1"/>
  <text x="60" y="48.5" text-anchor="end" font-size="9" fill="#333">1</text>
  <line x1="65.0" y1="35" x2="65.0" y2="310.0" stroke="#ddd" stroke-width="1"/>
  <text x="65.0" y="324.0" text-anchor="middle" font-size="9" fill="#333">0</text>
  <line x1="157.5" y1="35" x2="157.5" y2="310.0" stroke="#ddd" stroke-width="1"/>
  <text x="157.5" y="324.0" text-anchor="middle" font-size="9" fill="#333">500</text>
  <line x1="250.0" y1="35" x2="250.0" y2="310.0" stroke="#ddd" stroke-width="1"/>
  <text x="250.0" y="324.0" text-anchor="middle" font-size="9" fill="#333">1000</text>
  <line x1="342.5" y1="35" x2="342.5" y2="310.0" stroke="#ddd" stroke-width="1"/>
  <text x="342.5" y="324.0" text-anchor="middle" font-size="9" fill="#333">1500</text>
  <line x1="435.0" y1="35" x2="435.0" y2="310.0" stroke="#ddd" stroke-width="1"/>
  <text x="435.0" y="324.0" text-anchor="middle" font-size="9" fill="#333">2000</text>
  <line x1="527.5" y1="35" x2="527.5" y2="310.0" stroke="#ddd" stroke-width="1"/>
  <text x="527.5" y="324.0" text-anchor="middle" font-size="9" fill="#333">2500</text>
  <line x1="620.0" y1="35" x2="620.0" y2="310.0" stroke="#ddd" stroke-width="1"/>
  <text x="620.0" y="324.0" text-anchor="middle" font-size="9" fill="#333">3000</text>
  <text x="342" y="340" text-anchor="middle" font-size="11" fill="#333">connections</text>
  <text x="14" y="172" text-anchor="middle" font-size="11" fill="#333" transform="rotate(-90,14,172)">median delivery ratio</text>
  <line x1="65" y1="61.2" x2="620.0" y2="61.2" stroke="black" stroke-width="1.2" stroke-dasharray="6,4" opacity="0.55"/>
  <text x="618.0" y="58.2" text-anchor="end" font-size="9" fill="#333"> 0.95</text>
  <polyline points="65.2,48.6 74.2,48.9 102.0,48.8 176.0,48.6 250.0,48.7 342.5,48.6 435.0,48.6 620.0,48.4" fill="none" stroke="#1f77b4" stroke-width="1.8"/>
  <circle cx="65.2" cy="48.6" r="3" fill="#1f77b4"><title>apex_rudp: 0.99 at 1 connections</title></circle>
  <circle cx="74.2" cy="48.9" r="3" fill="#1f77b4"><title>apex_rudp: 0.9892 at 50 connections</title></circle>
  <circle cx="102.0" cy="48.8" r="3" fill="#1f77b4"><title>apex_rudp: 0.9895 at 200 connections</title></circle>
  <circle cx="176.0" cy="48.6" r="3" fill="#1f77b4"><title>apex_rudp: 0.99 at 600 connections</title></circle>
  <circle cx="250.0" cy="48.7" r="3" fill="#1f77b4"><title>apex_rudp: 0.9896 at 1000 connections</title></circle>
  <circle cx="342.5" cy="48.6" r="3" fill="#1f77b4"><title>apex_rudp: 0.9899 at 1500 connections</title></circle>
  <circle cx="435.0" cy="48.6" r="3" fill="#1f77b4"><title>apex_rudp: 0.9899 at 2000 connections</title></circle>
  <circle cx="620.0" cy="48.4" r="3" fill="#1f77b4"><title>apex_rudp: 0.9906 at 3000 connections</title></circle>
  <polyline points="65.2,47.5 74.2,48.5 102.0,48.8 176.0,48.4 250.0,48.7 342.5,48.7 435.0,48.5 620.0,49.0" fill="none" stroke="#ff7f0e" stroke-width="1.8"/>
  <circle cx="65.2" cy="47.5" r="3" fill="#ff7f0e"><title>coop_rudp: 0.9935 at 1 connections</title></circle>
  <circle cx="74.2" cy="48.5" r="3" fill="#ff7f0e"><title>coop_rudp: 0.9904 at 50 connections</title></circle>
  <circle cx="102.0" cy="48.8" r="3" fill="#ff7f0e"><title>coop_rudp: 0.9894 at 200 connections</title></circle>
  <circle cx="176.0" cy="48.4" r="3" fill="#ff7f0e"><title>coop_rudp: 0.9906 at 600 connections</title></circle>
  <circle cx="250.0" cy="48.7" r="3" fill="#ff7f0e"><title>coop_rudp: 0.9896 at 1000 connections</title></circle>
  <circle cx="342.5" cy="48.7" r="3" fill="#ff7f0e"><title>coop_rudp: 0.9898 at 1500 connections</title></circle>
  <circle cx="435.0" cy="48.5" r="3" fill="#ff7f0e"><title>coop_rudp: 0.9904 at 2000 connections</title></circle>
  <circle cx="620.0" cy="49.0" r="3" fill="#ff7f0e"><title>coop_rudp: 0.9888 at 3000 connections</title></circle>
  <polyline points="65.2,49.9 74.2,48.6 102.0,50.0 176.0,50.0 250.0,86.8" fill="none" stroke="#2ca02c" stroke-width="1.8"/>
  <circle cx="65.2" cy="49.9" r="3" fill="#2ca02c"><title>enet: 0.986 at 1 connections</title></circle>
  <circle cx="74.2" cy="48.6" r="3" fill="#2ca02c"><title>enet: 0.99 at 50 connections</title></circle>
  <circle cx="102.0" cy="50.0" r="3" fill="#2ca02c"><title>enet: 0.9856 at 200 connections</title></circle>
  <circle cx="176.0" cy="50.0" r="3" fill="#2ca02c"><title>enet: 0.9857 at 600 connections</title></circle>
  <circle cx="250.0" cy="86.8" r="3" fill="#2ca02c"><title>enet: 0.8688 at 1000 connections</title></circle>
  <polyline points="65.2,48.9 74.2,48.3 102.0,48.7 176.0,48.5 250.0,48.6 342.5,48.6 435.0,89.6" fill="none" stroke="#d62728" stroke-width="1.8"/>
  <circle cx="65.2" cy="48.9" r="3" fill="#d62728"><title>gns: 0.989 at 1 connections</title></circle>
  <circle cx="74.2" cy="48.3" r="3" fill="#d62728"><title>gns: 0.9909 at 50 connections</title></circle>
  <circle cx="102.0" cy="48.7" r="3" fill="#d62728"><title>gns: 0.9898 at 200 connections</title></circle>
  <circle cx="176.0" cy="48.5" r="3" fill="#d62728"><title>gns: 0.9902 at 600 connections</title></circle>
  <circle cx="250.0" cy="48.6" r="3" fill="#d62728"><title>gns: 0.99 at 1000 connections</title></circle>
  <circle cx="342.5" cy="48.6" r="3" fill="#d62728"><title>gns: 0.9901 at 1500 connections</title></circle>
  <circle cx="435.0" cy="89.6" r="3" fill="#d62728"><title>gns: 0.86 at 2000 connections</title></circle>
  <polyline points="65.2,49.1 74.2,48.8 102.0,48.5 176.0,95.1" fill="none" stroke="#9467bd" stroke-width="1.8"/>
  <circle cx="65.2" cy="49.1" r="3" fill="#9467bd"><title>kcp: 0.9885 at 1 connections</title></circle>
  <circle cx="74.2" cy="48.8" r="3" fill="#9467bd"><title>kcp: 0.9895 at 50 connections</title></circle>
  <circle cx="102.0" cy="48.5" r="3" fill="#9467bd"><title>kcp: 0.9904 at 200 connections</title></circle>
  <circle cx="176.0" cy="95.1" r="3" fill="#9467bd"><title>kcp: 0.8427 at 600 connections</title></circle>
  <polyline points="65.2,48.6 74.2,48.4 102.0,48.6 176.0,48.6 250.0,48.6 342.5,48.7 435.0,49.5 620.0,72.8" fill="none" stroke="#8c564b" stroke-width="1.8"/>
  <circle cx="65.2" cy="48.6" r="3" fill="#8c564b"><title>litenetlib: 0.99 at 1 connections</title></circle>
  <circle cx="74.2" cy="48.4" r="3" fill="#8c564b"><title>litenetlib: 0.9906 at 50 connections</title></circle>
  <circle cx="102.0" cy="48.6" r="3" fill="#8c564b"><title>litenetlib: 0.9901 at 200 connections</title></circle>
  <circle cx="176.0" cy="48.6" r="3" fill="#8c564b"><title>litenetlib: 0.9899 at 600 connections</title></circle>
  <circle cx="250.0" cy="48.6" r="3" fill="#8c564b"><title>litenetlib: 0.99 at 1000 connections</title></circle>
  <circle cx="342.5" cy="48.7" r="3" fill="#8c564b"><title>litenetlib: 0.9898 at 1500 connections</title></circle>
  <circle cx="435.0" cy="49.5" r="3" fill="#8c564b"><title>litenetlib: 0.987 at 2000 connections</title></circle>
  <circle cx="620.0" cy="72.8" r="3" fill="#8c564b"><title>litenetlib: 0.9134 at 3000 connections</title></circle>
  <polyline points="65.2,48.4 74.2,48.6 102.0,48.5 176.0,48.6 250.0,114.3" fill="none" stroke="#e377c2" stroke-width="1.8"/>
  <circle cx="65.2" cy="48.4" r="3" fill="#e377c2"><title>lsquic: 0.9905 at 1 connections</title></circle>
  <circle cx="74.2" cy="48.6" r="3" fill="#e377c2"><title>lsquic: 0.99 at 50 connections</title></circle>
  <circle cx="102.0" cy="48.5" r="3" fill="#e377c2"><title>lsquic: 0.9902 at 200 connections</title></circle>
  <circle cx="176.0" cy="48.6" r="3" fill="#e377c2"><title>lsquic: 0.9899 at 600 connections</title></circle>
  <circle cx="250.0" cy="114.3" r="3" fill="#e377c2"><title>lsquic: 0.7817 at 1000 connections</title></circle>
  <polyline points="65.2,49.7 74.2,48.5 102.0,48.6" fill="none" stroke="#7f7f7f" stroke-width="1.8"/>
  <circle cx="65.2" cy="49.7" r="3" fill="#7f7f7f"><title>mini_rudp: 0.9865 at 1 connections</title></circle>
  <circle cx="74.2" cy="48.5" r="3" fill="#7f7f7f"><title>mini_rudp: 0.9902 at 50 connections</title></circle>
  <circle cx="102.0" cy="48.6" r="3" fill="#7f7f7f"><title>mini_rudp: 0.9899 at 200 connections</title></circle>
  <polyline points="65.2,48.1 74.2,48.7 102.0,48.7 176.0,48.6 250.0,48.6 342.5,49.4" fill="none" stroke="#bcbd22" stroke-width="1.8"/>
  <circle cx="65.2" cy="48.1" r="3" fill="#bcbd22"><title>msquic: 0.9915 at 1 connections</title></circle>
  <circle cx="74.2" cy="48.7" r="3" fill="#bcbd22"><title>msquic: 0.9898 at 50 connections</title></circle>
  <circle cx="102.0" cy="48.7" r="3" fill="#bcbd22"><title>msquic: 0.9898 at 200 connections</title></circle>
  <circle cx="176.0" cy="48.6" r="3" fill="#bcbd22"><title>msquic: 0.99 at 600 connections</title></circle>
  <circle cx="250.0" cy="48.6" r="3" fill="#bcbd22"><title>msquic: 0.99 at 1000 connections</title></circle>
  <circle cx="342.5" cy="49.4" r="3" fill="#bcbd22"><title>msquic: 0.9876 at 1500 connections</title></circle>
  <polyline points="65.2,48.3 74.2,48.7 102.0,48.6 176.0,114.9" fill="none" stroke="#17becf" stroke-width="1.8"/>
  <circle cx="65.2" cy="48.3" r="3" fill="#17becf"><title>quiche: 0.991 at 1 connections</title></circle>
  <circle cx="74.2" cy="48.7" r="3" fill="#17becf"><title>quiche: 0.9897 at 50 connections</title></circle>
  <circle cx="102.0" cy="48.6" r="3" fill="#17becf"><title>quiche: 0.99 at 200 connections</title></circle>
  <circle cx="176.0" cy="114.9" r="3" fill="#17becf"><title>quiche: 0.7797 at 600 connections</title></circle>
  <polyline points="65.2,48.0 74.2,51.3 102.0,54.2 176.0,54.2 250.0,48.6 342.5,48.6 435.0,49.2 620.0,286.7" fill="none" stroke="#aec7e8" stroke-width="1.8"/>
  <circle cx="65.2" cy="48.0" r="3" fill="#aec7e8"><title>raknet: 0.992 at 1 connections</title></circle>
  <circle cx="74.2" cy="51.3" r="3" fill="#aec7e8"><title>raknet: 0.9816 at 50 connections</title></circle>
  <circle cx="102.0" cy="54.2" r="3" fill="#aec7e8"><title>raknet: 0.9721 at 200 connections</title></circle>
  <circle cx="176.0" cy="54.2" r="3" fill="#aec7e8"><title>raknet: 0.9723 at 600 connections</title></circle>
  <circle cx="250.0" cy="48.6" r="3" fill="#aec7e8"><title>raknet: 0.9899 at 1000 connections</title></circle>
  <circle cx="342.5" cy="48.6" r="3" fill="#aec7e8"><title>raknet: 0.99 at 1500 connections</title></circle>
  <circle cx="435.0" cy="49.2" r="3" fill="#aec7e8"><title>raknet: 0.9881 at 2000 connections</title></circle>
  <circle cx="620.0" cy="286.7" r="3" fill="#aec7e8"><title>raknet: 0.2348 at 3000 connections</title></circle>
  <polyline points="65.2,48.1 74.2,48.5 102.0,52.8 176.0,55.1 250.0,49.0 342.5,48.6 435.0,51.7 620.0,297.5" fill="none" stroke="#ffbb78" stroke-width="1.8"/>
  <circle cx="65.2" cy="48.1" r="3" fill="#ffbb78"><title>slikenet: 0.9915 at 1 connections</title></circle>
  <circle cx="74.2" cy="48.5" r="3" fill="#ffbb78"><title>slikenet: 0.9902 at 50 connections</title></circle>
  <circle cx="102.0" cy="52.8" r="3" fill="#ffbb78"><title>slikenet: 0.9766 at 200 connections</title></circle>
  <circle cx="176.0" cy="55.1" r="3" fill="#ffbb78"><title>slikenet: 0.9693 at 600 connections</title></circle>
  <circle cx="250.0" cy="49.0" r="3" fill="#ffbb78"><title>slikenet: 0.9887 at 1000 connections</title></circle>
  <circle cx="342.5" cy="48.6" r="3" fill="#ffbb78"><title>slikenet: 0.9899 at 1500 connections</title></circle>
  <circle cx="435.0" cy="51.7" r="3" fill="#ffbb78"><title>slikenet: 0.9803 at 2000 connections</title></circle>
  <circle cx="620.0" cy="297.5" r="3" fill="#ffbb78"><title>slikenet: 0.2007 at 3000 connections</title></circle>
  <polyline points="65.2,48.3 74.2,48.6" fill="none" stroke="#98df8a" stroke-width="1.8"/>
  <circle cx="65.2" cy="48.3" r="3" fill="#98df8a"><title>yojimbo: 0.991 at 1 connections</title></circle>
  <circle cx="74.2" cy="48.6" r="3" fill="#98df8a"><title>yojimbo: 0.9899 at 50 connections</title></circle>
  <rect x="65" y="347" width="12" height="10" fill="#1f77b4" rx="1"/>  <text x="81" y="355" font-size="9">apex_rudp</text>
  <rect x="342" y="347" width="12" height="10" fill="#ff7f0e" rx="1"/>  <text x="358" y="355" font-size="9">coop_rudp</text>
  <rect x="65" y="363" width="12" height="10" fill="#2ca02c" rx="1"/>  <text x="81" y="371" font-size="9">enet</text>
  <rect x="342" y="363" width="12" height="10" fill="#d62728" rx="1"/>  <text x="358" y="371" font-size="9">gns</text>
  <rect x="65" y="379" width="12" height="10" fill="#9467bd" rx="1"/>  <text x="81" y="387" font-size="9">kcp</text>
  <rect x="342" y="379" width="12" height="10" fill="#8c564b" rx="1"/>  <text x="358" y="387" font-size="9">litenetlib</text>
  <rect x="65" y="395" width="12" height="10" fill="#e377c2" rx="1"/>  <text x="81" y="403" font-size="9">lsquic</text>
  <rect x="342" y="395" width="12" height="10" fill="#7f7f7f" rx="1"/>  <text x="358" y="403" font-size="9">mini_rudp</text>
  <rect x="65" y="411" width="12" height="10" fill="#bcbd22" rx="1"/>  <text x="81" y="419" font-size="9">msquic</text>
  <rect x="342" y="411" width="12" height="10" fill="#17becf" rx="1"/>  <text x="358" y="419" font-size="9">quiche</text>
  <rect x="65" y="427" width="12" height="10" fill="#aec7e8" rx="1"/>  <text x="81" y="435" font-size="9">raknet</text>
  <rect x="342" y="427" width="12" height="10" fill="#ffbb78" rx="1"/>  <text x="358" y="435" font-size="9">slikenet</text>
  <rect x="65" y="443" width="12" height="10" fill="#98df8a" rx="1"/>  <text x="81" y="451" font-size="9">yojimbo</text>
</svg>
