<svg xmlns="http://www.w3.org/2000/svg" viewBox="0 0 640 400" font-family="sans-serif" font-size="11">
  <text x="342" y="18" text-anchor="middle" font-size="14" font-weight="bold">game_server: server CPU vs connections</text>
  <rect x="65" y="35" width="555" height="275" fill="white" stroke="#ccc"/>
  <line x1="65" y1="309.4" x2="620.0" y2="309.4" stroke="#ddd" stroke-width="1"/>
  <text x="60" y="312.4" text-anchor="end" font-size="9" fill="#333">0</text>
  <line x1="65" y1="232.9" x2="620.0" y2="232.9" stroke="#ddd" stroke-width="1"/>
  <text x="60" y="235.9" text-anchor="end" font-size="9" fill="#333">50</text>
  <line x1="65" y1="156.4" x2="620.0" y2="156.4" stroke="#ddd" stroke-width="1"/>
  <text x="60" y="159.4" text-anchor="end" font-size="9" fill="#333">100</text>
  <line x1="65" y1="79.9" x2="620.0" y2="79.9" stroke="#ddd" stroke-width="1"/>
  <text x="60" y="82.9" text-anchor="end" font-size="9" fill="#333">150</text>
  <line x1="171.6" y1="35" x2="171.6" y2="310.0" stroke="#ddd" stroke-width="1"/>
  <text x="171.6" y="324.0" text-anchor="middle" font-size="9" fill="#333">50</text>
  <line x1="280.5" y1="35" x2="280.5" y2="310.0" stroke="#ddd" stroke-width="1"/>
  <text x="280.5" y="324.0" text-anchor="middle" font-size="9" fill="#333">100</text>
  <line x1="389.3" y1="35" x2="389.3" y2="310.0" stroke="#ddd" stroke-width="1"/>
  <text x="389.3" y="324.0" text-anchor="middle" font-size="9" fill="#333">150</text>
  <line x1="498.1" y1="35" x2="498.1" y2="310.0" stroke="#ddd" stroke-width="1"/>
  <text x="498.1" y="324.0" text-anchor="middle" font-size="9" fill="#333">200</text>
  <line x1="606.9" y1="35" x2="606.9" y2="310.0" stroke="#ddd" stroke-width="1"/>
  <text x="606.9" y="324.0" text-anchor="middle" font-size="9" fill="#333">250</text>
  <text x="342" y="340" text-anchor="middle" font-size="11" fill="#333">connections</text>
  <text x="14" y="172" text-anchor="middle" font-size="11" fill="#333" transform="rotate(-90,14,172)">median server CPU %</text>
  <polyline points="65.0,292.4 73.7,291.8 202.1,285.2 271.8,278.6 341.4,271.3 480.7,252.9 620.0,231.8" fill="none" stroke="#1f77b4" stroke-width="1.8"/>
  <circle cx="65.0" cy="292.4" r="3" fill="#1f77b4"><title>apex_rudp: 11.14 at 1 connections</title></circle>
  <circle cx="73.7" cy="291.8" r="3" fill="#1f77b4"><title>apex_rudp: 11.51 at 5 connections</title></circle>
  <circle cx="202.1" cy="285.2" r="3" fill="#1f77b4"><title>apex_rudp: 15.82 at 64 connections</title></circle>
  <circle cx="271.8" cy="278.6" r="3" fill="#1f77b4"><title>apex_rudp: 20.12 at 96 connections</title></circle>
  <circle cx="341.4" cy="271.3" r="3" fill="#1f77b4"><title>apex_rudp: 24.89 at 128 connections</title></circle>
  <circle cx="480.7" cy="252.9" r="3" fill="#1f77b4"><title>apex_rudp: 36.96 at 192 connections</title></circle>
  <circle cx="620.0" cy="231.8" r="3" fill="#1f77b4"><title>apex_rudp: 50.75 at 256 connections</title></circle>
  <polyline points="65.0,259.1 73.7,260.2 202.1,258.7 271.8,254.9 341.4,250.8 480.7,235.4 620.0,204.8" fill="none" stroke="#ff7f0e" stroke-width="1.8"/>
  <circle cx="65.0" cy="259.1" r="3" fill="#ff7f0e"><title>coop_rudp: 32.91 at 1 connections</title></circle>
  <circle cx="73.7" cy="260.2" r="3" fill="#ff7f0e"><title>coop_rudp: 32.17 at 5 connections</title></circle>
  <circle cx="202.1" cy="258.7" r="3" fill="#ff7f0e"><title>coop_rudp: 33.15 at 64 connections</title></circle>
  <circle cx="271.8" cy="254.9" r="3" fill="#ff7f0e"><title>coop_rudp: 35.6 at 96 connections</title></circle>
  <circle cx="341.4" cy="250.8" r="3" fill="#ff7f0e"><title>coop_rudp: 38.33 at 128 connections</title></circle>
  <circle cx="480.7" cy="235.4" r="3" fill="#ff7f0e"><title>coop_rudp: 48.4 at 192 connections</title></circle>
  <circle cx="620.0" cy="204.8" r="3" fill="#ff7f0e"><title>coop_rudp: 68.39 at 256 connections</title></circle>
  <polyline points="65.0,292.7 73.7,292.5 202.1,212.1 271.8,191.7" fill="none" stroke="#2ca02c" stroke-width="1.8"/>
  <circle cx="65.0" cy="292.7" r="3" fill="#2ca02c"><title>enet: 10.92 at 1 connections</title></circle>
  <circle cx="73.7" cy="292.5" r="3" fill="#2ca02c"><title>enet: 11.09 at 5 connections</title></circle>
  <circle cx="202.1" cy="212.1" r="3" fill="#2ca02c"><title>enet: 63.63 at 64 connections</title></circle>
  <circle cx="271.8" cy="191.7" r="3" fill="#2ca02c"><title>enet: 76.92 at 96 connections</title></circle>
  <polyline points="65.0,295.2 73.7,293.6 202.1,232.5 271.8,158.2 341.4,47.5" fill="none" stroke="#d62728" stroke-width="1.8"/>
  <circle cx="65.0" cy="295.2" r="3" fill="#d62728"><title>gns: 9.29 at 1 connections</title></circle>
  <circle cx="73.7" cy="293.6" r="3" fill="#d62728"><title>gns: 10.33 at 5 connections</title></circle>
  <circle cx="202.1" cy="232.5" r="3" fill="#d62728"><title>gns: 50.25 at 64 connections</title></circle>
  <circle cx="271.8" cy="158.2" r="3" fill="#d62728"><title>gns: 98.85 at 96 connections</title></circle>
  <circle cx="341.4" cy="47.5" r="3" fill="#d62728"><title>gns: 171.18 at 128 connections</title></circle>
  <polyline points="65.0,294.6 73.7,294.2 202.1,201.4 271.8,166.8" fill="none" stroke="#9467bd" stroke-width="1.8"/>
  <circle cx="65.0" cy="294.6" r="3" fill="#9467bd"><title>kcp: 9.71 at 1 connections</title></circle>
  <circle cx="73.7" cy="294.2" r="3" fill="#9467bd"><title>kcp: 9.93 at 5 connections</title></circle>
  <circle cx="202.1" cy="201.4" r="3" fill="#9467bd"><title>kcp: 70.59 at 64 connections</title></circle>
  <circle cx="271.8" cy="166.8" r="3" fill="#9467bd"><title>kcp: 93.21 at 96 connections</title></circle>
  <polyline points="65.0,292.1 73.7,291.6 202.1,269.1 271.8,238.0 341.4,185.9" fill="none" stroke="#8c564b" stroke-width="1.8"/>
  <circle cx="65.0" cy="292.1" r="3" fill="#8c564b"><title>litenetlib: 11.31 at 1 connections</title></circle>
  <circle cx="73.7" cy="291.6" r="3" fill="#8c564b"><title>litenetlib: 11.65 at 5 connections</title></circle>
  <circle cx="202.1" cy="269.1" r="3" fill="#8c564b"><title>litenetlib: 26.37 at 64 connections</title></circle>
  <circle cx="271.8" cy="238.0" r="3" fill="#8c564b"><title>litenetlib: 46.69 at 96 connections</title></circle>
  <circle cx="341.4" cy="185.9" r="3" fill="#8c564b"><title>litenetlib: 80.72 at 128 connections</title></circle>
  <polyline points="65.0,293.8 73.7,293.1 202.1,211.1 271.8,177.5" fill="none" stroke="#e377c2" stroke-width="1.8"/>
  <circle cx="65.0" cy="293.8" r="3" fill="#e377c2"><title>lsquic: 10.24 at 1 connections</title></circle>
  <circle cx="73.7" cy="293.1" r="3" fill="#e377c2"><title>lsquic: 10.67 at 5 connections</title></circle>
  <circle cx="202.1" cy="211.1" r="3" fill="#e377c2"><title>lsquic: 64.23 at 64 connections</title></circle>
  <circle cx="271.8" cy="177.5" r="3" fill="#e377c2"><title>lsquic: 86.2 at 96 connections</title></circle>
  <polyline points="65.0,295.7 73.7,295.3 202.1,179.0" fill="none" stroke="#7f7f7f" stroke-width="1.8"/>
  <circle cx="65.0" cy="295.7" r="3" fill="#7f7f7f"><title>mini_rudp: 8.95 at 1 connections</title></circle>
  <circle cx="73.7" cy="295.3" r="3" fill="#7f7f7f"><title>mini_rudp: 9.22 at 5 connections</title></circle>
  <circle cx="202.1" cy="179.0" r="3" fill="#7f7f7f"><title>mini_rudp: 85.26 at 64 connections</title></circle>
  <polyline points="65.0,297.5 73.7,294.4 202.1,193.2 271.8,120.7 341.4,87.7" fill="none" stroke="#bcbd22" stroke-width="1.8"/>
  <circle cx="65.0" cy="297.5" r="3" fill="#bcbd22"><title>msquic: 7.79 at 1 connections</title></circle>
  <circle cx="73.7" cy="294.4" r="3" fill="#bcbd22"><title>msquic: 9.8 at 5 connections</title></circle>
  <circle cx="202.1" cy="193.2" r="3" fill="#bcbd22"><title>msquic: 75.95 at 64 connections</title></circle>
  <circle cx="271.8" cy="120.7" r="3" fill="#bcbd22"><title>msquic: 123.32 at 96 connections</title></circle>
  <circle cx="341.4" cy="87.7" r="3" fill="#bcbd22"><title>msquic: 144.93 at 128 connections</title></circle>
  <polyline points="65.0,291.1 73.7,271.7 202.1,169.4 271.8,164.0" fill="none" stroke="#17becf" stroke-width="1.8"/>
  <circle cx="65.0" cy="291.1" r="3" fill="#17becf"><title>quiche: 11.95 at 1 connections</title></circle>
  <circle cx="73.7" cy="271.7" r="3" fill="#17becf"><title>quiche: 24.63 at 5 connections</title></circle>
  <circle cx="202.1" cy="169.4" r="3" fill="#17becf"><title>quiche: 91.49 at 64 connections</title></circle>
  <circle cx="271.8" cy="164.0" r="3" fill="#17becf"><title>quiche: 95.06 at 96 connections</title></circle>
  <polyline points="65.0,295.5 73.7,294.3 202.1,198.3" fill="none" stroke="#aec7e8" stroke-width="1.8"/>
  <circle cx="65.0" cy="295.5" r="3" fill="#aec7e8"><title>raknet: 9.07 at 1 connections</title></circle>
  <circle cx="73.7" cy="294.3" r="3" fill="#aec7e8"><title>raknet: 9.88 at 5 connections</title></circle>
  <circle cx="202.1" cy="198.3" r="3" fill="#aec7e8"><title>raknet: 72.65 at 64 connections</title></circle>
  <polyline points="65.0,295.5 73.7,294.3 202.1,201.8" fill="none" stroke="#ffbb78" stroke-width="1.8"/>
  <circle cx="65.0" cy="295.5" r="3" fill="#ffbb78"><title>slikenet: 9.08 at 1 connections</title></circle>
  <circle cx="73.7" cy="294.3" r="3" fill="#ffbb78"><title>slikenet: 9.89 at 5 connections</title></circle>
  <circle cx="202.1" cy="201.8" r="3" fill="#ffbb78"><title>slikenet: 70.32 at 64 connections</title></circle>
  <polyline points="65.0,292.3 73.7,291.8 202.1,261.6" fill="none" stroke="#98df8a" stroke-width="1.8"/>
  <circle cx="65.0" cy="292.3" r="3" fill="#98df8a"><title>yojimbo: 11.19 at 1 connections</title></circle>
  <circle cx="73.7" cy="291.8" r="3" fill="#98df8a"><title>yojimbo: 11.53 at 5 connections</title></circle>
  <circle cx="202.1" cy="261.6" r="3" fill="#98df8a"><title>yojimbo: 31.27 at 64 connections</title></circle>
  <rect x="65" y="347" width="12" height="10" fill="#1f77b4" rx="1"/>  <text x="81" y="355" font-size="9">apex_rudp</text>
  <rect x="342" y="347" width="12" height="10" fill="#ff7f0e" rx="1"/>  <text x="358" y="355" font-size="9">coop_rudp</text>
  <rect x="65" y="363" width="12" height="10" fill="#2ca02c" rx="1"/>  <text x="81" y="371" font-size="9">enet</text>
  <rect x="342" y="363" width="12" height="10" fill="#d62728" rx="1"/>  <text x="358" y="371" font-size="9">gns</text>
  <rect x="65" y="379" width="12" height="10" fill="#9467bd" rx="1"/>  <text x="81" y="387" font-size="9">kcp</text>
  <rect x="342" y="379" width="12" height="10" fill="#8c564b" rx="1"/>  <text x="358" y="387" font-size="9">litenetlib</text>
  <rect x="65" y="395" width="12" height="10" fill="#e377c2" rx="1"/>  <text x="81" y="403" font-size="9">lsquic</text>
  <rect x="342" y="395" width="12" height="10" fill="#7f7f7f" rx="1"/>  <text x="358" y="403" font-size="9">mini_rudp</text>
  <rect x="65" y="411" width="12" height="10" fill="#bcbd22" rx="1"/>  <text x="81" y="419" font-size="9">msquic</text>
  <rect x="342" y="411" width="12" height="10" fill="#17becf" rx="1"/>  <text x="358" y="419" font-size="9">quiche</text>
  <rect x="65" y="427" width="12" height="10" fill="#aec7e8" rx="1"/>  <text x="81" y="435" font-size="9">raknet</text>
  <rect x="342" y="427" width="12" height="10" fill="#ffbb78" rx="1"/>  <text x="358" y="435" font-size="9">slikenet</text>
  <rect x="65" y="443" width="12" height="10" fill="#98df8a" rx="1"/>  <text x="81" y="451" font-size="9">yojimbo</text>
</svg>
