<svg xmlns="http://www.w3.org/2000/svg" viewBox="0 0 640 400" font-family="sans-serif" font-size="11">
  <text x="342" y="18" text-anchor="middle" font-size="14" font-weight="bold">media_relay: server CPU vs connections</text>
  <rect x="65" y="35" width="555" height="275" fill="white" stroke="#ccc"/>
  <line x1="65" y1="216.8" x2="620.0" y2="216.8" stroke="#ddd" stroke-width="1"/>
  <text x="60" y="219.8" text-anchor="end" font-size="9" fill="#333">50</text>
  <line x1="65" y1="120.9" x2="620.0" y2="120.9" stroke="#ddd" stroke-width="1"/>
  <text x="60" y="123.9" text-anchor="end" font-size="9" fill="#333">100</text>
  <line x1="201.7" y1="35" x2="201.7" y2="310.0" stroke="#ddd" stroke-width="1"/>
  <text x="201.7" y="324.0" text-anchor="middle" font-size="9" fill="#333">50</text>
  <line x1="341.1" y1="35" x2="341.1" y2="310.0" stroke="#ddd" stroke-width="1"/>
  <text x="341.1" y="324.0" text-anchor="middle" font-size="9" fill="#333">100</text>
  <line x1="480.6" y1="35" x2="480.6" y2="310.0" stroke="#ddd" stroke-width="1"/>
  <text x="480.6" y="324.0" text-anchor="middle" font-size="9" fill="#333">150</text>
  <line x1="620.0" y1="35" x2="620.0" y2="310.0" stroke="#ddd" stroke-width="1"/>
  <text x="620.0" y="324.0" text-anchor="middle" font-size="9" fill="#333">200</text>
  <text x="342" y="340" text-anchor="middle" font-size="11" fill="#333">connections</text>
  <text x="14" y="172" text-anchor="middle" font-size="11" fill="#333" transform="rotate(-90,14,172)">median server CPU %</text>
  <polyline points="65.0,291.3 76.2,290.1 201.7,273.3 271.4,233.2 341.1,202.9 410.8,148.3 480.6,87.4 620.0,73.8" fill="none" stroke="#1f77b4" stroke-width="1.8"/>
  <circle cx="65.0" cy="291.3" r="3" fill="#1f77b4"><title>apex_rudp: 11.15 at 1 connections</title></circle>
  <circle cx="76.2" cy="290.1" r="3" fill="#1f77b4"><title>apex_rudp: 11.8 at 5 connections</title></circle>
  <circle cx="201.7" cy="273.3" r="3" fill="#1f77b4"><title>apex_rudp: 20.54 at 50 connections</title></circle>
  <circle cx="271.4" cy="233.2" r="3" fill="#1f77b4"><title>apex_rudp: 41.43 at 75 connections</title></circle>
  <circle cx="341.1" cy="202.9" r="3" fill="#1f77b4"><title>apex_rudp: 57.26 at 100 connections</title></circle>
  <circle cx="410.8" cy="148.3" r="3" fill="#1f77b4"><title>apex_rudp: 85.7 at 125 connections</title></circle>
  <circle cx="480.6" cy="87.4" r="3" fill="#1f77b4"><title>apex_rudp: 117.5 at 150 connections</title></circle>
  <circle cx="620.0" cy="73.8" r="3" fill="#1f77b4"><title>apex_rudp: 124.58 at 200 connections</title></circle>
  <polyline points="65.0,255.3 76.2,245.3 201.7,244.9 271.4,239.3 341.1,226.2 410.8,199.0 480.6,173.8 620.0,132.5" fill="none" stroke="#ff7f0e" stroke-width="1.8"/>
  <circle cx="65.0" cy="255.3" r="3" fill="#ff7f0e"><title>coop_rudp: 29.95 at 1 connections</title></circle>
  <circle cx="76.2" cy="245.3" r="3" fill="#ff7f0e"><title>coop_rudp: 35.12 at 5 connections</title></circle>
  <circle cx="201.7" cy="244.9" r="3" fill="#ff7f0e"><title>coop_rudp: 35.34 at 50 connections</title></circle>
  <circle cx="271.4" cy="239.3" r="3" fill="#ff7f0e"><title>coop_rudp: 38.27 at 75 connections</title></circle>
  <circle cx="341.1" cy="226.2" r="3" fill="#ff7f0e"><title>coop_rudp: 45.11 at 100 connections</title></circle>
  <circle cx="410.8" cy="199.0" r="3" fill="#ff7f0e"><title>coop_rudp: 59.28 at 125 connections</title></circle>
  <circle cx="480.6" cy="173.8" r="3" fill="#ff7f0e"><title>coop_rudp: 72.4 at 150 connections</title></circle>
  <circle cx="620.0" cy="132.5" r="3" fill="#ff7f0e"><title>coop_rudp: 93.94 at 200 connections</title></circle>
  <polyline points="65.0,291.8 76.2,291.1 201.7,152.5 271.4,131.0" fill="none" stroke="#2ca02c" stroke-width="1.8"/>
  <circle cx="65.0" cy="291.8" r="3" fill="#2ca02c"><title>enet: 10.91 at 1 connections</title></circle>
  <circle cx="76.2" cy="291.1" r="3" fill="#2ca02c"><title>enet: 11.25 at 5 connections</title></circle>
  <circle cx="201.7" cy="152.5" r="3" fill="#2ca02c"><title>enet: 83.51 at 50 connections</title></circle>
  <circle cx="271.4" cy="131.0" r="3" fill="#2ca02c"><title>enet: 94.75 at 75 connections</title></circle>
  <polyline points="65.0,294.7 76.2,291.7 201.7,81.4" fill="none" stroke="#d62728" stroke-width="1.8"/>
  <circle cx="65.0" cy="294.7" r="3" fill="#d62728"><title>gns: 9.39 at 1 connections</title></circle>
  <circle cx="76.2" cy="291.7" r="3" fill="#d62728"><title>gns: 10.94 at 5 connections</title></circle>
  <circle cx="201.7" cy="81.4" r="3" fill="#d62728"><title>gns: 120.62 at 50 connections</title></circle>
  <polyline points="65.0,294.1 76.2,293.5 201.7,165.0 271.4,134.9" fill="none" stroke="#9467bd" stroke-width="1.8"/>
  <circle cx="65.0" cy="294.1" r="3" fill="#9467bd"><title>kcp: 9.7 at 1 connections</title></circle>
  <circle cx="76.2" cy="293.5" r="3" fill="#9467bd"><title>kcp: 9.99 at 5 connections</title></circle>
  <circle cx="201.7" cy="165.0" r="3" fill="#9467bd"><title>kcp: 77 at 50 connections</title></circle>
  <circle cx="271.4" cy="134.9" r="3" fill="#9467bd"><title>kcp: 92.69 at 75 connections</title></circle>
  <polyline points="65.0,291.0 76.2,289.8 201.7,96.1 271.4,77.7" fill="none" stroke="#8c564b" stroke-width="1.8"/>
  <circle cx="65.0" cy="291.0" r="3" fill="#8c564b"><title>litenetlib: 11.29 at 1 connections</title></circle>
  <circle cx="76.2" cy="289.8" r="3" fill="#8c564b"><title>litenetlib: 11.95 at 5 connections</title></circle>
  <circle cx="201.7" cy="96.1" r="3" fill="#8c564b"><title>litenetlib: 112.96 at 50 connections</title></circle>
  <circle cx="271.4" cy="77.7" r="3" fill="#8c564b"><title>litenetlib: 122.51 at 75 connections</title></circle>
  <polyline points="65.0,293.1 76.2,291.9 201.7,145.7" fill="none" stroke="#e377c2" stroke-width="1.8"/>
  <circle cx="65.0" cy="293.1" r="3" fill="#e377c2"><title>lsquic: 10.22 at 1 connections</title></circle>
  <circle cx="76.2" cy="291.9" r="3" fill="#e377c2"><title>lsquic: 10.84 at 5 connections</title></circle>
  <circle cx="201.7" cy="145.7" r="3" fill="#e377c2"><title>lsquic: 87.06 at 50 connections</title></circle>
  <polyline points="65.0,295.7 76.2,294.8 201.7,164.8 271.4,135.5" fill="none" stroke="#7f7f7f" stroke-width="1.8"/>
  <circle cx="65.0" cy="295.7" r="3" fill="#7f7f7f"><title>mini_rudp: 8.87 at 1 connections</title></circle>
  <circle cx="76.2" cy="294.8" r="3" fill="#7f7f7f"><title>mini_rudp: 9.35 at 5 connections</title></circle>
  <circle cx="201.7" cy="164.8" r="3" fill="#7f7f7f"><title>mini_rudp: 77.13 at 50 connections</title></circle>
  <circle cx="271.4" cy="135.5" r="3" fill="#7f7f7f"><title>mini_rudp: 92.39 at 75 connections</title></circle>
  <polyline points="65.0,297.5 76.2,291.8 201.7,47.5" fill="none" stroke="#bcbd22" stroke-width="1.8"/>
  <circle cx="65.0" cy="297.5" r="3" fill="#bcbd22"><title>msquic: 7.92 at 1 connections</title></circle>
  <circle cx="76.2" cy="291.8" r="3" fill="#bcbd22"><title>msquic: 10.88 at 5 connections</title></circle>
  <circle cx="201.7" cy="47.5" r="3" fill="#bcbd22"><title>msquic: 138.28 at 50 connections</title></circle>
  <polyline points="65.0,289.2 76.2,264.5 201.7,132.9" fill="none" stroke="#17becf" stroke-width="1.8"/>
  <circle cx="65.0" cy="289.2" r="3" fill="#17becf"><title>quiche: 12.23 at 1 connections</title></circle>
  <circle cx="76.2" cy="264.5" r="3" fill="#17becf"><title>quiche: 25.11 at 5 connections</title></circle>
  <circle cx="201.7" cy="132.9" r="3" fill="#17becf"><title>quiche: 93.73 at 50 connections</title></circle>
  <polyline points="65.0,295.3 76.2,293.1 201.7,118.2" fill="none" stroke="#aec7e8" stroke-width="1.8"/>
  <circle cx="65.0" cy="295.3" r="3" fill="#aec7e8"><title>raknet: 9.08 at 1 connections</title></circle>
  <circle cx="76.2" cy="293.1" r="3" fill="#aec7e8"><title>raknet: 10.2 at 5 connections</title></circle>
  <circle cx="201.7" cy="118.2" r="3" fill="#aec7e8"><title>raknet: 101.44 at 50 connections</title></circle>
  <polyline points="65.0,295.3 76.2,293.1 201.7,119.6" fill="none" stroke="#ffbb78" stroke-width="1.8"/>
  <circle cx="65.0" cy="295.3" r="3" fill="#ffbb78"><title>slikenet: 9.05 at 1 connections</title></circle>
  <circle cx="76.2" cy="293.1" r="3" fill="#ffbb78"><title>slikenet: 10.22 at 5 connections</title></circle>
  <circle cx="201.7" cy="119.6" r="3" fill="#ffbb78"><title>slikenet: 100.66 at 50 connections</title></circle>
  <polyline points="65.0,291.3 76.2,290.2 201.7,209.9" fill="none" stroke="#98df8a" stroke-width="1.8"/>
  <circle cx="65.0" cy="291.3" r="3" fill="#98df8a"><title>yojimbo: 11.16 at 1 connections</title></circle>
  <circle cx="76.2" cy="290.2" r="3" fill="#98df8a"><title>yojimbo: 11.71 at 5 connections</title></circle>
  <circle cx="201.7" cy="209.9" r="3" fill="#98df8a"><title>yojimbo: 53.58 at 50 connections</title></circle>
  <rect x="65" y="347" width="12" height="10" fill="#1f77b4" rx="1"/>  <text x="81" y="355" font-size="9">apex_rudp</text>
  <rect x="342" y="347" width="12" height="10" fill="#ff7f0e" rx="1"/>  <text x="358" y="355" font-size="9">coop_rudp</text>
  <rect x="65" y="363" width="12" height="10" fill="#2ca02c" rx="1"/>  <text x="81" y="371" font-size="9">enet</text>
  <rect x="342" y="363" width="12" height="10" fill="#d62728" rx="1"/>  <text x="358" y="371" font-size="9">gns</text>
  <rect x="65" y="379" width="12" height="10" fill="#9467bd" rx="1"/>  <text x="81" y="387" font-size="9">kcp</text>
  <rect x="342" y="379" width="12" height="10" fill="#8c564b" rx="1"/>  <text x="358" y="387" font-size="9">litenetlib</text>
  <rect x="65" y="395" width="12" height="10" fill="#e377c2" rx="1"/>  <text x="81" y="403" font-size="9">lsquic</text>
  <rect x="342" y="395" width="12" height="10" fill="#7f7f7f" rx="1"/>  <text x="358" y="403" font-size="9">mini_rudp</text>
  <rect x="65" y="411" width="12" height="10" fill="#bcbd22" rx="1"/>  <text x="81" y="419" font-size="9">msquic</text>
  <rect x="342" y="411" width="12" height="10" fill="#17becf" rx="1"/>  <text x="358" y="419" font-size="9">quiche</text>
  <rect x="65" y="427" width="12" height="10" fill="#aec7e8" rx="1"/>  <text x="81" y="435" font-size="9">raknet</text>
  <rect x="342" y="427" width="12" height="10" fill="#ffbb78" rx="1"/>  <text x="358" y="435" font-size="9">slikenet</text>
  <rect x="65" y="443" width="12" height="10" fill="#98df8a" rx="1"/>  <text x="81" y="451" font-size="9">yojimbo</text>
</svg>
