<svg xmlns="http://www.w3.org/2000/svg" viewBox="0 0 640 400" font-family="sans-serif" font-size="11">
  <text x="342" y="18" text-anchor="middle" font-size="14" font-weight="bold">media_relay: RTT p95 vs connections</text>
  <rect x="65" y="35" width="555" height="275" fill="white" stroke="#ccc"/>
  <line x1="65" y1="297.5" x2="620.0" y2="297.5" stroke="#ddd" stroke-width="1"/>
  <text x="60" y="300.5" text-anchor="end" font-size="9" fill="#333">0</text>
  <line x1="65" y1="229.7" x2="620.0" y2="229.7" stroke="#ddd" stroke-width="1"/>
  <text x="60" y="232.7" text-anchor="end" font-size="9" fill="#333">5000000000000</text>
  <line x1="65" y1="162.0" x2="620.0" y2="162.0" stroke="#ddd" stroke-width="1"/>
  <text x="60" y="165.0" text-anchor="end" font-size="9" fill="#333">10000000000000</text>
  <line x1="65" y1="94.2" x2="620.0" y2="94.2" stroke="#ddd" stroke-width="1"/>
  <text x="60" y="97.2" text-anchor="end" font-size="9" fill="#333">15000000000000</text>
  <line x1="201.7" y1="35" x2="201.7" y2="310.0" stroke="#ddd" stroke-width="1"/>
  <text x="201.7" y="324.0" text-anchor="middle" font-size="9" fill="#333">50</text>
  <line x1="341.1" y1="35" x2="341.1" y2="310.0" stroke="#ddd" stroke-width="1"/>
  <text x="341.1" y="324.0" text-anchor="middle" font-size="9" fill="#333">100</text>
  <line x1="480.6" y1="35" x2="480.6" y2="310.0" stroke="#ddd" stroke-width="1"/>
  <text x="480.6" y="324.0" text-anchor="middle" font-size="9" fill="#333">150</text>
  <line x1="620.0" y1="35" x2="620.0" y2="310.0" stroke="#ddd" stroke-width="1"/>
  <text x="620.0" y="324.0" text-anchor="middle" font-size="9" fill="#333">200</text>
  <text x="342" y="340" text-anchor="middle" font-size="11" fill="#333">connections</text>
  <text x="14" y="172" text-anchor="middle" font-size="11" fill="#333" transform="rotate(-90,14,172)">median RTT p95 (ms)</text>
  <polyline points="65.0,297.5 76.2,297.5 201.7,297.5 271.4,297.5 341.1,297.5 410.8,297.5 480.6,297.5 620.0,297.5" fill="none" stroke="#1f77b4" stroke-width="1.8"/>
  <circle cx="65.0" cy="297.5" r="3" fill="#1f77b4"><title>apex_rudp: 61.5 at 1 connections</title></circle>
  <circle cx="76.2" cy="297.5" r="3" fill="#1f77b4"><title>apex_rudp: 62.1 at 5 connections</title></circle>
  <circle cx="201.7" cy="297.5" r="3" fill="#1f77b4"><title>apex_rudp: 62.2 at 50 connections</title></circle>
  <circle cx="271.4" cy="297.5" r="3" fill="#1f77b4"><title>apex_rudp: 63.6 at 75 connections</title></circle>
  <circle cx="341.1" cy="297.5" r="3" fill="#1f77b4"><title>apex_rudp: 64.9 at 100 connections</title></circle>
  <circle cx="410.8" cy="297.5" r="3" fill="#1f77b4"><title>apex_rudp: 69.9 at 125 connections</title></circle>
  <circle cx="480.6" cy="297.5" r="3" fill="#1f77b4"><title>apex_rudp: 898.9 at 150 connections</title></circle>
  <circle cx="620.0" cy="297.5" r="3" fill="#1f77b4"><title>apex_rudp: 1563 at 200 connections</title></circle>
  <polyline points="65.0,297.5 76.2,297.5 201.7,297.5 271.4,297.5 341.1,297.5 410.8,297.5 480.6,297.5 620.0,297.5" fill="none" stroke="#ff7f0e" stroke-width="1.8"/>
  <circle cx="65.0" cy="297.5" r="3" fill="#ff7f0e"><title>coop_rudp: 60.8 at 1 connections</title></circle>
  <circle cx="76.2" cy="297.5" r="3" fill="#ff7f0e"><title>coop_rudp: 61.9 at 5 connections</title></circle>
  <circle cx="201.7" cy="297.5" r="3" fill="#ff7f0e"><title>coop_rudp: 62.3 at 50 connections</title></circle>
  <circle cx="271.4" cy="297.5" r="3" fill="#ff7f0e"><title>coop_rudp: 62.6 at 75 connections</title></circle>
  <circle cx="341.1" cy="297.5" r="3" fill="#ff7f0e"><title>coop_rudp: 63.1 at 100 connections</title></circle>
  <circle cx="410.8" cy="297.5" r="3" fill="#ff7f0e"><title>coop_rudp: 64.7 at 125 connections</title></circle>
  <circle cx="480.6" cy="297.5" r="3" fill="#ff7f0e"><title>coop_rudp: 71.1 at 150 connections</title></circle>
  <circle cx="620.0" cy="297.5" r="3" fill="#ff7f0e"><title>coop_rudp: 213.5 at 200 connections</title></circle>
  <polyline points="65.0,297.5 76.2,297.5 201.7,297.5 271.4,297.5" fill="none" stroke="#2ca02c" stroke-width="1.8"/>
  <circle cx="65.0" cy="297.5" r="3" fill="#2ca02c"><title>enet: 61.1 at 1 connections</title></circle>
  <circle cx="76.2" cy="297.5" r="3" fill="#2ca02c"><title>enet: 61.7 at 5 connections</title></circle>
  <circle cx="201.7" cy="297.5" r="3" fill="#2ca02c"><title>enet: 70.6 at 50 connections</title></circle>
  <circle cx="271.4" cy="297.5" r="3" fill="#2ca02c"><title>enet: 368.2 at 75 connections</title></circle>
  <polyline points="65.0,297.5 76.2,297.5 201.7,297.5" fill="none" stroke="#d62728" stroke-width="1.8"/>
  <circle cx="65.0" cy="297.5" r="3" fill="#d62728"><title>gns: 72.2 at 1 connections</title></circle>
  <circle cx="76.2" cy="297.5" r="3" fill="#d62728"><title>gns: 70.7 at 5 connections</title></circle>
  <circle cx="201.7" cy="297.5" r="3" fill="#d62728"><title>gns: 108.3 at 50 connections</title></circle>
  <polyline points="65.0,297.5 76.2,297.5 201.7,297.5 271.4,297.5" fill="none" stroke="#9467bd" stroke-width="1.8"/>
  <circle cx="65.0" cy="297.5" r="3" fill="#9467bd"><title>kcp: 60.7 at 1 connections</title></circle>
  <circle cx="76.2" cy="297.5" r="3" fill="#9467bd"><title>kcp: 61.7 at 5 connections</title></circle>
  <circle cx="201.7" cy="297.5" r="3" fill="#9467bd"><title>kcp: 67 at 50 connections</title></circle>
  <circle cx="271.4" cy="297.5" r="3" fill="#9467bd"><title>kcp: 353.8 at 75 connections</title></circle>
  <polyline points="65.0,297.5 76.2,297.5 201.7,297.5 271.4,47.5" fill="none" stroke="#8c564b" stroke-width="1.8"/>
  <circle cx="65.0" cy="297.5" r="3" fill="#8c564b"><title>litenetlib: 73.6 at 1 connections</title></circle>
  <circle cx="76.2" cy="297.5" r="3" fill="#8c564b"><title>litenetlib: 74.4 at 5 connections</title></circle>
  <circle cx="201.7" cy="297.5" r="3" fill="#8c564b"><title>litenetlib: 1469 at 50 connections</title></circle>
  <circle cx="271.4" cy="47.5" r="3" fill="#8c564b"><title>litenetlib: 18446744070971.36328125 at 75 connections</title></circle>
  <polyline points="65.0,297.5 76.2,297.5 201.7,297.5" fill="none" stroke="#e377c2" stroke-width="1.8"/>
  <circle cx="65.0" cy="297.5" r="3" fill="#e377c2"><title>lsquic: 60.9 at 1 connections</title></circle>
  <circle cx="76.2" cy="297.5" r="3" fill="#e377c2"><title>lsquic: 62.2 at 5 connections</title></circle>
  <circle cx="201.7" cy="297.5" r="3" fill="#e377c2"><title>lsquic: 116.4 at 50 connections</title></circle>
  <polyline points="65.0,297.5 76.2,297.5 201.7,297.5 271.4,297.5" fill="none" stroke="#7f7f7f" stroke-width="1.8"/>
  <circle cx="65.0" cy="297.5" r="3" fill="#7f7f7f"><title>mini_rudp: 61.7 at 1 connections</title></circle>
  <circle cx="76.2" cy="297.5" r="3" fill="#7f7f7f"><title>mini_rudp: 61.5 at 5 connections</title></circle>
  <circle cx="201.7" cy="297.5" r="3" fill="#7f7f7f"><title>mini_rudp: 69.1 at 50 connections</title></circle>
  <circle cx="271.4" cy="297.5" r="3" fill="#7f7f7f"><title>mini_rudp: 236.1 at 75 connections</title></circle>
  <polyline points="65.0,297.5 76.2,297.5 201.7,297.5" fill="none" stroke="#bcbd22" stroke-width="1.8"/>
  <circle cx="65.0" cy="297.5" r="3" fill="#bcbd22"><title>msquic: 62.3 at 1 connections</title></circle>
  <circle cx="76.2" cy="297.5" r="3" fill="#bcbd22"><title>msquic: 75.6 at 5 connections</title></circle>
  <circle cx="201.7" cy="297.5" r="3" fill="#bcbd22"><title>msquic: 13113 at 50 connections</title></circle>
  <polyline points="65.0,297.5 76.2,297.5 201.7,297.5" fill="none" stroke="#17becf" stroke-width="1.8"/>
  <circle cx="65.0" cy="297.5" r="3" fill="#17becf"><title>quiche: 62.2 at 1 connections</title></circle>
  <circle cx="76.2" cy="297.5" r="3" fill="#17becf"><title>quiche: 62 at 5 connections</title></circle>
  <circle cx="201.7" cy="297.5" r="3" fill="#17becf"><title>quiche: 9748 at 50 connections</title></circle>
  <polyline points="65.0,297.5 76.2,297.5 201.7,297.5" fill="none" stroke="#aec7e8" stroke-width="1.8"/>
  <circle cx="65.0" cy="297.5" r="3" fill="#aec7e8"><title>raknet: 61.6 at 1 connections</title></circle>
  <circle cx="76.2" cy="297.5" r="3" fill="#aec7e8"><title>raknet: 61.6 at 5 connections</title></circle>
  <circle cx="201.7" cy="297.5" r="3" fill="#aec7e8"><title>raknet: 1176 at 50 connections</title></circle>
  <polyline points="65.0,297.5 76.2,297.5 201.7,297.5" fill="none" stroke="#ffbb78" stroke-width="1.8"/>
  <circle cx="65.0" cy="297.5" r="3" fill="#ffbb78"><title>slikenet: 62.5 at 1 connections</title></circle>
  <circle cx="76.2" cy="297.5" r="3" fill="#ffbb78"><title>slikenet: 62.1 at 5 connections</title></circle>
  <circle cx="201.7" cy="297.5" r="3" fill="#ffbb78"><title>slikenet: 1175 at 50 connections</title></circle>
  <polyline points="65.0,297.5 76.2,297.5 201.7,297.5" fill="none" stroke="#98df8a" stroke-width="1.8"/>
  <circle cx="65.0" cy="297.5" r="3" fill="#98df8a"><title>yojimbo: 89 at 1 connections</title></circle>
  <circle cx="76.2" cy="297.5" r="3" fill="#98df8a"><title>yojimbo: 91.6 at 5 connections</title></circle>
  <circle cx="201.7" cy="297.5" r="3" fill="#98df8a"><title>yojimbo: 93.1 at 50 connections</title></circle>
  <rect x="65" y="347" width="12" height="10" fill="#1f77b4" rx="1"/>  <text x="81" y="355" font-size="9">apex_rudp</text>
  <rect x="342" y="347" width="12" height="10" fill="#ff7f0e" rx="1"/>  <text x="358" y="355" font-size="9">coop_rudp</text>
  <rect x="65" y="363" width="12" height="10" fill="#2ca02c" rx="1"/>  <text x="81" y="371" font-size="9">enet</text>
  <rect x="342" y="363" width="12" height="10" fill="#d62728" rx="1"/>  <text x="358" y="371" font-size="9">gns</text>
  <rect x="65" y="379" width="12" height="10" fill="#9467bd" rx="1"/>  <text x="81" y="387" font-size="9">kcp</text>
  <rect x="342" y="379" width="12" height="10" fill="#8c564b" rx="1"/>  <text x="358" y="387" font-size="9">litenetlib</text>
  <rect x="65" y="395" width="12" height="10" fill="#e377c2" rx="1"/>  <text x="81" y="403" font-size="9">lsquic</text>
  <rect x="342" y="395" width="12" height="10" fill="#7f7f7f" rx="1"/>  <text x="358" y="403" font-size="9">mini_rudp</text>
  <rect x="65" y="411" width="12" height="10" fill="#bcbd22" rx="1"/>  <text x="81" y="419" font-size="9">msquic</text>
  <rect x="342" y="411" width="12" height="10" fill="#17becf" rx="1"/>  <text x="358" y="419" font-size="9">quiche</text>
  <rect x="65" y="427" width="12" height="10" fill="#aec7e8" rx="1"/>  <text x="81" y="435" font-size="9">raknet</text>
  <rect x="342" y="427" width="12" height="10" fill="#ffbb78" rx="1"/>  <text x="358" y="435" font-size="9">slikenet</text>
  <rect x="65" y="443" width="12" height="10" fill="#98df8a" rx="1"/>  <text x="81" y="451" font-size="9">yojimbo</text>
</svg>
