<svg xmlns="http://www.w3.org/2000/svg" viewBox="0 0 640 400" font-family="sans-serif" font-size="11">
  <text x="342" y="18" text-anchor="middle" font-size="14" font-weight="bold">media_relay: delivery ratio vs connections</text>
  <rect x="65" y="35" width="555" height="275" fill="white" stroke="#ccc"/>
  <line x1="65" y1="250.1" x2="620.0" y2="250.1" stroke="#ddd" stroke-width="1"/>
  <text x="60" y="253.1" text-anchor="end" font-size="9" fill="#333">0.4</text>
  <line x1="65" y1="181.6" x2="620.0" y2="181.6" stroke="#ddd" stroke-width="1"/>
  <text x="60" y="184.6" text-anchor="end" font-size="9" fill="#333">0.6</text>
  <line x1="65" y1="113.1" x2="620.0" y2="113.1" stroke="#ddd" stroke-width="1"/>
  <text x="60" y="116.1" text-anchor="end" font-size="9" fill="#333">0.8</text>
  <line x1="65" y1="44.7" x2="620.0" y2="44.7" stroke="#ddd" stroke-width="1"/>
  <text x="60" y="47.7" text-anchor="end" font-size="9" fill="#333">1</text>
  <line x1="201.7" y1="35" x2="201.7" y2="310.0" stroke="#ddd" stroke-width="1"/>
  <text x="201.7" y="324.0" text-anchor="middle" font-size="9" fill="#333">50</text>
  <line x1="341.1" y1="35" x2="341.1" y2="310.0" stroke="#ddd" stroke-width="1"/>
  <text x="341.1" y="324.0" text-anchor="middle" font-size="9" fill="#333">100</text>
  <line x1="480.6" y1="35" x2="480.6" y2="310.0" stroke="#ddd" stroke-width="1"/>
  <text x="480.6" y="324.0" text-anchor="middle" font-size="9" fill="#333">150</text>
  <line x1="620.0" y1="35" x2="620.0" y2="310.0" stroke="#ddd" stroke-width="1"/>
  <text x="620.0" y="324.0" text-anchor="middle" font-size="9" fill="#333">200</text>
  <text x="342" y="340" text-anchor="middle" font-size="11" fill="#333">connections</text>
  <text x="14" y="172" text-anchor="middle" font-size="11" fill="#333" transform="rotate(-90,14,172)">median delivery ratio</text>
  <line x1="65" y1="61.8" x2="620.0" y2="61.8" stroke="black" stroke-width="1.2" stroke-dasharray="6,4" opacity="0.55"/>
  <text x="618.0" y="58.8" text-anchor="end" font-size="9" fill="#333"> 0.95</text>
  <polyline points="65.0,49.8 76.2,51.8 201.7,52.5 271.4,51.3 341.1,51.1 410.8,50.8 480.6,58.2 620.0,186.1" fill="none" stroke="#1f77b4" stroke-width="1.8"/>
  <circle cx="65.0" cy="49.8" r="3" fill="#1f77b4"><title>apex_rudp: 0.985 at 1 connections</title></circle>
  <circle cx="76.2" cy="51.8" r="3" fill="#1f77b4"><title>apex_rudp: 0.979 at 5 connections</title></circle>
  <circle cx="201.7" cy="52.5" r="3" fill="#1f77b4"><title>apex_rudp: 0.9772 at 50 connections</title></circle>
  <circle cx="271.4" cy="51.3" r="3" fill="#1f77b4"><title>apex_rudp: 0.9805 at 75 connections</title></circle>
  <circle cx="341.1" cy="51.1" r="3" fill="#1f77b4"><title>apex_rudp: 0.9812 at 100 connections</title></circle>
  <circle cx="410.8" cy="50.8" r="3" fill="#1f77b4"><title>apex_rudp: 0.9821 at 125 connections</title></circle>
  <circle cx="480.6" cy="58.2" r="3" fill="#1f77b4"><title>apex_rudp: 0.9605 at 150 connections</title></circle>
  <circle cx="620.0" cy="186.1" r="3" fill="#1f77b4"><title>apex_rudp: 0.5867 at 200 connections</title></circle>
  <polyline points="65.0,54.3 76.2,51.1 201.7,52.9 271.4,53.0 341.1,51.3 410.8,51.4 480.6,52.6 620.0,127.3" fill="none" stroke="#ff7f0e" stroke-width="1.8"/>
  <circle cx="65.0" cy="54.3" r="3" fill="#ff7f0e"><title>coop_rudp: 0.9717 at 1 connections</title></circle>
  <circle cx="76.2" cy="51.1" r="3" fill="#ff7f0e"><title>coop_rudp: 0.9811 at 5 connections</title></circle>
  <circle cx="201.7" cy="52.9" r="3" fill="#ff7f0e"><title>coop_rudp: 0.9759 at 50 connections</title></circle>
  <circle cx="271.4" cy="53.0" r="3" fill="#ff7f0e"><title>coop_rudp: 0.9757 at 75 connections</title></circle>
  <circle cx="341.1" cy="51.3" r="3" fill="#ff7f0e"><title>coop_rudp: 0.9806 at 100 connections</title></circle>
  <circle cx="410.8" cy="51.4" r="3" fill="#ff7f0e"><title>coop_rudp: 0.9804 at 125 connections</title></circle>
  <circle cx="480.6" cy="52.6" r="3" fill="#ff7f0e"><title>coop_rudp: 0.9769 at 150 connections</title></circle>
  <circle cx="620.0" cy="127.3" r="3" fill="#ff7f0e"><title>coop_rudp: 0.7586 at 200 connections</title></circle>
  <polyline points="65.0,57.8 76.2,52.7 201.7,59.9 271.4,232.3" fill="none" stroke="#2ca02c" stroke-width="1.8"/>
  <circle cx="65.0" cy="57.8" r="3" fill="#2ca02c"><title>enet: 0.9617 at 1 connections</title></circle>
  <circle cx="76.2" cy="52.7" r="3" fill="#2ca02c"><title>enet: 0.9765 at 5 connections</title></circle>
  <circle cx="201.7" cy="59.9" r="3" fill="#2ca02c"><title>enet: 0.9556 at 50 connections</title></circle>
  <circle cx="271.4" cy="232.3" r="3" fill="#2ca02c"><title>enet: 0.4518 at 75 connections</title></circle>
  <polyline points="65.0,50.4 76.2,54.0 201.7,69.4" fill="none" stroke="#d62728" stroke-width="1.8"/>
  <circle cx="65.0" cy="50.4" r="3" fill="#d62728"><title>gns: 0.9833 at 1 connections</title></circle>
  <circle cx="76.2" cy="54.0" r="3" fill="#d62728"><title>gns: 0.9727 at 5 connections</title></circle>
  <circle cx="201.7" cy="69.4" r="3" fill="#d62728"><title>gns: 0.9277 at 50 connections</title></circle>
  <polyline points="65.0,47.5 76.2,52.2 201.7,51.8 271.4,217.6" fill="none" stroke="#9467bd" stroke-width="1.8"/>
  <circle cx="65.0" cy="47.5" r="3" fill="#9467bd"><title>kcp: 0.9917 at 1 connections</title></circle>
  <circle cx="76.2" cy="52.2" r="3" fill="#9467bd"><title>kcp: 0.9781 at 5 connections</title></circle>
  <circle cx="201.7" cy="51.8" r="3" fill="#9467bd"><title>kcp: 0.979 at 50 connections</title></circle>
  <circle cx="271.4" cy="217.6" r="3" fill="#9467bd"><title>kcp: 0.4949 at 75 connections</title></circle>
  <polyline points="65.0,52.1 76.2,54.0 201.7,58.6 271.4,297.5" fill="none" stroke="#8c564b" stroke-width="1.8"/>
  <circle cx="65.0" cy="52.1" r="3" fill="#8c564b"><title>litenetlib: 0.9783 at 1 connections</title></circle>
  <circle cx="76.2" cy="54.0" r="3" fill="#8c564b"><title>litenetlib: 0.9726 at 5 connections</title></circle>
  <circle cx="201.7" cy="58.6" r="3" fill="#8c564b"><title>litenetlib: 0.9593 at 50 connections</title></circle>
  <circle cx="271.4" cy="297.5" r="3" fill="#8c564b"><title>litenetlib: 0.2614 at 75 connections</title></circle>
  <polyline points="65.0,48.7 76.2,52.0 201.7,97.4" fill="none" stroke="#e377c2" stroke-width="1.8"/>
  <circle cx="65.0" cy="48.7" r="3" fill="#e377c2"><title>lsquic: 0.9883 at 1 connections</title></circle>
  <circle cx="76.2" cy="52.0" r="3" fill="#e377c2"><title>lsquic: 0.9786 at 5 connections</title></circle>
  <circle cx="201.7" cy="97.4" r="3" fill="#e377c2"><title>lsquic: 0.8458 at 50 connections</title></circle>
  <polyline points="65.0,53.8 76.2,51.9 201.7,51.8 271.4,218.6" fill="none" stroke="#7f7f7f" stroke-width="1.8"/>
  <circle cx="65.0" cy="53.8" r="3" fill="#7f7f7f"><title>mini_rudp: 0.9733 at 1 connections</title></circle>
  <circle cx="76.2" cy="51.9" r="3" fill="#7f7f7f"><title>mini_rudp: 0.9789 at 5 connections</title></circle>
  <circle cx="201.7" cy="51.8" r="3" fill="#7f7f7f"><title>mini_rudp: 0.979 at 50 connections</title></circle>
  <circle cx="271.4" cy="218.6" r="3" fill="#7f7f7f"><title>mini_rudp: 0.4919 at 75 connections</title></circle>
  <polyline points="65.0,50.4 76.2,51.9 201.7,283.4" fill="none" stroke="#bcbd22" stroke-width="1.8"/>
  <circle cx="65.0" cy="50.4" r="3" fill="#bcbd22"><title>msquic: 0.9833 at 1 connections</title></circle>
  <circle cx="76.2" cy="51.9" r="3" fill="#bcbd22"><title>msquic: 0.9788 at 5 connections</title></circle>
  <circle cx="201.7" cy="283.4" r="3" fill="#bcbd22"><title>msquic: 0.3025 at 50 connections</title></circle>
  <polyline points="65.0,53.8 76.2,52.0 201.7,218.3" fill="none" stroke="#17becf" stroke-width="1.8"/>
  <circle cx="65.0" cy="53.8" r="3" fill="#17becf"><title>quiche: 0.9733 at 1 connections</title></circle>
  <circle cx="76.2" cy="52.0" r="3" fill="#17becf"><title>quiche: 0.9787 at 5 connections</title></circle>
  <circle cx="201.7" cy="218.3" r="3" fill="#17becf"><title>quiche: 0.4928 at 50 connections</title></circle>
  <polyline points="65.0,52.1 76.2,51.5 201.7,121.0" fill="none" stroke="#aec7e8" stroke-width="1.8"/>
  <circle cx="65.0" cy="52.1" r="3" fill="#aec7e8"><title>raknet: 0.9783 at 1 connections</title></circle>
  <circle cx="76.2" cy="51.5" r="3" fill="#aec7e8"><title>raknet: 0.9799 at 5 connections</title></circle>
  <circle cx="201.7" cy="121.0" r="3" fill="#aec7e8"><title>raknet: 0.7771 at 50 connections</title></circle>
  <polyline points="65.0,53.8 76.2,52.4 201.7,124.8" fill="none" stroke="#ffbb78" stroke-width="1.8"/>
  <circle cx="65.0" cy="53.8" r="3" fill="#ffbb78"><title>slikenet: 0.9733 at 1 connections</title></circle>
  <circle cx="76.2" cy="52.4" r="3" fill="#ffbb78"><title>slikenet: 0.9773 at 5 connections</title></circle>
  <circle cx="201.7" cy="124.8" r="3" fill="#ffbb78"><title>slikenet: 0.7658 at 50 connections</title></circle>
  <polyline points="65.0,51.5 76.2,56.7 201.7,227.2" fill="none" stroke="#98df8a" stroke-width="1.8"/>
  <circle cx="65.0" cy="51.5" r="3" fill="#98df8a"><title>yojimbo: 0.98 at 1 connections</title></circle>
  <circle cx="76.2" cy="56.7" r="3" fill="#98df8a"><title>yojimbo: 0.9647 at 5 connections</title></circle>
  <circle cx="201.7" cy="227.2" r="3" fill="#98df8a"><title>yojimbo: 0.4668 at 50 connections</title></circle>
  <rect x="65" y="347" width="12" height="10" fill="#1f77b4" rx="1"/>  <text x="81" y="355" font-size="9">apex_rudp</text>
  <rect x="342" y="347" width="12" height="10" fill="#ff7f0e" rx="1"/>  <text x="358" y="355" font-size="9">coop_rudp</text>
  <rect x="65" y="363" width="12" height="10" fill="#2ca02c" rx="1"/>  <text x="81" y="371" font-size="9">enet</text>
  <rect x="342" y="363" width="12" height="10" fill="#d62728" rx="1"/>  <text x="358" y="371" font-size="9">gns</text>
  <rect x="65" y="379" width="12" height="10" fill="#9467bd" rx="1"/>  <text x="81" y="387" font-size="9">kcp</text>
  <rect x="342" y="379" width="12" height="10" fill="#8c564b" rx="1"/>  <text x="358" y="387" font-size="9">litenetlib</text>
  <rect x="65" y="395" width="12" height="10" fill="#e377c2" rx="1"/>  <text x="81" y="403" font-size="9">lsquic</text>
  <rect x="342" y="395" width="12" height="10" fill="#7f7f7f" rx="1"/>  <text x="358" y="403" font-size="9">mini_rudp</text>
  <rect x="65" y="411" width="12" height="10" fill="#bcbd22" rx="1"/>  <text x="81" y="419" font-size="9">msquic</text>
  <rect x="342" y="411" width="12" height="10" fill="#17becf" rx="1"/>  <text x="358" y="419" font-size="9">quiche</text>
  <rect x="65" y="427" width="12" height="10" fill="#aec7e8" rx="1"/>  <text x="81" y="435" font-size="9">raknet</text>
  <rect x="342" y="427" width="12" height="10" fill="#ffbb78" rx="1"/>  <text x="358" y="435" font-size="9">slikenet</text>
  <rect x="65" y="443" width="12" height="10" fill="#98df8a" rx="1"/>  <text x="81" y="451" font-size="9">yojimbo</text>
</svg>
