<svg xmlns="http://www.w3.org/2000/svg" viewBox="0 0 640 400" font-family="sans-serif" font-size="11">
  <text x="342" y="18" text-anchor="middle" font-size="14" font-weight="bold">reliable_echo: server CPU vs connections</text>
  <rect x="65" y="35" width="555" height="275" fill="white" stroke="#ccc"/>
  <line x1="65" y1="308.6" x2="620.0" y2="308.6" stroke="#ddd" stroke-width="1"/>
  <text x="60" y="311.6" text-anchor="end" font-size="9" fill="#333">0</text>
  <line x1="65" y1="240.5" x2="620.0" y2="240.5" stroke="#ddd" stroke-width="1"/>
  <text x="60" y="243.5" text-anchor="end" font-size="9" fill="#333">50</text>
  <line x1="65" y1="172.5" x2="620.0" y2="172.5" stroke="#ddd" stroke-width="1"/>
  <text x="60" y="175.5" text-anchor="end" font-size="9" fill="#333">100</text>
  <line x1="65" y1="104.4" x2="620.0" y2="104.4" stroke="#ddd" stroke-width="1"/>
  <text x="60" y="107.4" text-anchor="end" font-size="9" fill="#333">150</text>
  <line x1="65" y1="36.4" x2="620.0" y2="36.4" stroke="#ddd" stroke-width="1"/>
  <text x="60" y="39.4" text-anchor="end" font-size="9" fill="#333">200</text>
  <line x1="65.0" y1="35" x2="65.0" y2="310.0" stroke="#ddd" stroke-width="1"/>
  <text x="65.0" y="324.0" text-anchor="middle" font-size="9" fill="#333">0</text>
  <line x1="157.5" y1="35" x2="157.5" y2="310.0" stroke="#ddd" stroke-width="1"/>
  <text x="157.5" y="324.0" text-anchor="middle" font-size="9" fill="#333">500</text>
  <line x1="250.0" y1="35" x2="250.0" y2="310.0" stroke="#ddd" stroke-width="1"/>
  <text x="250.0" y="324.0" text-anchor="middle" font-size="9" fill="#333">1000</text>
  <line x1="342.5" y1="35" x2="342.5" y2="310.0" stroke="#ddd" stroke-width="1"/>
  <text x="342.5" y="324.0" text-anchor="middle" font-size="9" fill="#333">1500</text>
  <line x1="435.0" y1="35" x2="435.0" y2="310.0" stroke="#ddd" stroke-width="1"/>
  <text x="435.0" y="324.0" text-anchor="middle" font-size="9" fill="#333">2000</text>
  <line x1="527.5" y1="35" x2="527.5" y2="310.0" stroke="#ddd" stroke-width="1"/>
  <text x="527.5" y="324.0" text-anchor="middle" font-size="9" fill="#333">2500</text>
  <line x1="620.0" y1="35" x2="620.0" y2="310.0" stroke="#ddd" stroke-width="1"/>
  <text x="620.0" y="324.0" text-anchor="middle" font-size="9" fill="#333">3000</text>
  <text x="342" y="340" text-anchor="middle" font-size="11" fill="#333">connections</text>
  <text x="14" y="172" text-anchor="middle" font-size="11" fill="#333" transform="rotate(-90,14,172)">median server CPU %</text>
  <polyline points="65.2,293.4 74.2,292.3 102.0,290.8 176.0,286.8 250.0,282.8 342.5,277.8 435.0,272.6 620.0,261.4" fill="none" stroke="#1f77b4" stroke-width="1.8"/>
  <circle cx="65.2" cy="293.4" r="3" fill="#1f77b4"><title>apex_rudp: 11.17 at 1 connections</title></circle>
  <circle cx="74.2" cy="292.3" r="3" fill="#1f77b4"><title>apex_rudp: 11.95 at 50 connections</title></circle>
  <circle cx="102.0" cy="290.8" r="3" fill="#1f77b4"><title>apex_rudp: 13.07 at 200 connections</title></circle>
  <circle cx="176.0" cy="286.8" r="3" fill="#1f77b4"><title>apex_rudp: 16.01 at 600 connections</title></circle>
  <circle cx="250.0" cy="282.8" r="3" fill="#1f77b4"><title>apex_rudp: 18.96 at 1000 connections</title></circle>
  <circle cx="342.5" cy="277.8" r="3" fill="#1f77b4"><title>apex_rudp: 22.63 at 1500 connections</title></circle>
  <circle cx="435.0" cy="272.6" r="3" fill="#1f77b4"><title>apex_rudp: 26.43 at 2000 connections</title></circle>
  <circle cx="620.0" cy="261.4" r="3" fill="#1f77b4"><title>apex_rudp: 34.64 at 3000 connections</title></circle>
  <polyline points="65.2,267.7 74.2,260.6 102.0,258.0 176.0,271.4 250.0,254.2 342.5,240.4 435.0,226.3 620.0,205.3" fill="none" stroke="#ff7f0e" stroke-width="1.8"/>
  <circle cx="65.2" cy="267.7" r="3" fill="#ff7f0e"><title>coop_rudp: 30.05 at 1 connections</title></circle>
  <circle cx="74.2" cy="260.6" r="3" fill="#ff7f0e"><title>coop_rudp: 35.25 at 50 connections</title></circle>
  <circle cx="102.0" cy="258.0" r="3" fill="#ff7f0e"><title>coop_rudp: 37.17 at 200 connections</title></circle>
  <circle cx="176.0" cy="271.4" r="3" fill="#ff7f0e"><title>coop_rudp: 27.3 at 600 connections</title></circle>
  <circle cx="250.0" cy="254.2" r="3" fill="#ff7f0e"><title>coop_rudp: 39.94 at 1000 connections</title></circle>
  <circle cx="342.5" cy="240.4" r="3" fill="#ff7f0e"><title>coop_rudp: 50.1 at 1500 connections</title></circle>
  <circle cx="435.0" cy="226.3" r="3" fill="#ff7f0e"><title>coop_rudp: 60.47 at 2000 connections</title></circle>
  <circle cx="620.0" cy="205.3" r="3" fill="#ff7f0e"><title>coop_rudp: 75.9 at 3000 connections</title></circle>
  <polyline points="65.2,293.7 74.2,285.4 102.0,251.3 176.0,182.0 250.0,181.0 342.5,178.2" fill="none" stroke="#2ca02c" stroke-width="1.8"/>
  <circle cx="65.2" cy="293.7" r="3" fill="#2ca02c"><title>enet: 10.97 at 1 connections</title></circle>
  <circle cx="74.2" cy="285.4" r="3" fill="#2ca02c"><title>enet: 17.07 at 50 connections</title></circle>
  <circle cx="102.0" cy="251.3" r="3" fill="#2ca02c"><title>enet: 42.07 at 200 connections</title></circle>
  <circle cx="176.0" cy="182.0" r="3" fill="#2ca02c"><title>enet: 92.99 at 600 connections</title></circle>
  <circle cx="250.0" cy="181.0" r="3" fill="#2ca02c"><title>enet: 93.76 at 1000 connections</title></circle>
  <circle cx="342.5" cy="178.2" r="3" fill="#2ca02c"><title>enet: 95.79 at 1500 connections</title></circle>
  <polyline points="65.2,295.6 74.2,283.5 102.0,248.2 176.0,171.0 250.0,134.3 342.5,113.4 435.0,94.7 620.0,79.7" fill="none" stroke="#d62728" stroke-width="1.8"/>
  <circle cx="65.2" cy="295.6" r="3" fill="#d62728"><title>gns: 9.58 at 1 connections</title></circle>
  <circle cx="74.2" cy="283.5" r="3" fill="#d62728"><title>gns: 18.4 at 50 connections</title></circle>
  <circle cx="102.0" cy="248.2" r="3" fill="#d62728"><title>gns: 44.36 at 200 connections</title></circle>
  <circle cx="176.0" cy="171.0" r="3" fill="#d62728"><title>gns: 101.1 at 600 connections</title></circle>
  <circle cx="250.0" cy="134.3" r="3" fill="#d62728"><title>gns: 128.01 at 1000 connections</title></circle>
  <circle cx="342.5" cy="113.4" r="3" fill="#d62728"><title>gns: 143.39 at 1500 connections</title></circle>
  <circle cx="435.0" cy="94.7" r="3" fill="#d62728"><title>gns: 157.15 at 2000 connections</title></circle>
  <circle cx="620.0" cy="79.7" r="3" fill="#d62728"><title>gns: 168.18 at 3000 connections</title></circle>
  <polyline points="65.2,295.3 74.2,292.6 102.0,278.0 176.0,221.6 250.0,184.4 342.5,184.4" fill="none" stroke="#9467bd" stroke-width="1.8"/>
  <circle cx="65.2" cy="295.3" r="3" fill="#9467bd"><title>kcp: 9.76 at 1 connections</title></circle>
  <circle cx="74.2" cy="292.6" r="3" fill="#9467bd"><title>kcp: 11.76 at 50 connections</title></circle>
  <circle cx="102.0" cy="278.0" r="3" fill="#9467bd"><title>kcp: 22.5 at 200 connections</title></circle>
  <circle cx="176.0" cy="221.6" r="3" fill="#9467bd"><title>kcp: 63.94 at 600 connections</title></circle>
  <circle cx="250.0" cy="184.4" r="3" fill="#9467bd"><title>kcp: 91.21 at 1000 connections</title></circle>
  <circle cx="342.5" cy="184.4" r="3" fill="#9467bd"><title>kcp: 91.26 at 1500 connections</title></circle>
  <polyline points="65.2,293.1 74.2,283.4 102.0,256.7 176.0,172.8 250.0,98.2 342.5,78.8 435.0,64.4 620.0,47.5" fill="none" stroke="#8c564b" stroke-width="1.8"/>
  <circle cx="65.2" cy="293.1" r="3" fill="#8c564b"><title>litenetlib: 11.4 at 1 connections</title></circle>
  <circle cx="74.2" cy="283.4" r="3" fill="#8c564b"><title>litenetlib: 18.5 at 50 connections</title></circle>
  <circle cx="102.0" cy="256.7" r="3" fill="#8c564b"><title>litenetlib: 38.11 at 200 connections</title></circle>
  <circle cx="176.0" cy="172.8" r="3" fill="#8c564b"><title>litenetlib: 99.73 at 600 connections</title></circle>
  <circle cx="250.0" cy="98.2" r="3" fill="#8c564b"><title>litenetlib: 154.6 at 1000 connections</title></circle>
  <circle cx="342.5" cy="78.8" r="3" fill="#8c564b"><title>litenetlib: 168.81 at 1500 connections</title></circle>
  <circle cx="435.0" cy="64.4" r="3" fill="#8c564b"><title>litenetlib: 179.37 at 2000 connections</title></circle>
  <circle cx="620.0" cy="47.5" r="3" fill="#8c564b"><title>litenetlib: 191.81 at 3000 connections</title></circle>
  <polyline points="65.2,294.7 74.2,287.9 102.0,264.4 176.0,198.5 250.0,177.5 342.5,174.7 435.0,175.0 620.0,174.8" fill="none" stroke="#e377c2" stroke-width="1.8"/>
  <circle cx="65.2" cy="294.7" r="3" fill="#e377c2"><title>lsquic: 10.22 at 1 connections</title></circle>
  <circle cx="74.2" cy="287.9" r="3" fill="#e377c2"><title>lsquic: 15.18 at 50 connections</title></circle>
  <circle cx="102.0" cy="264.4" r="3" fill="#e377c2"><title>lsquic: 32.43 at 200 connections</title></circle>
  <circle cx="176.0" cy="198.5" r="3" fill="#e377c2"><title>lsquic: 80.86 at 600 connections</title></circle>
  <circle cx="250.0" cy="177.5" r="3" fill="#e377c2"><title>lsquic: 96.31 at 1000 connections</title></circle>
  <circle cx="342.5" cy="174.7" r="3" fill="#e377c2"><title>lsquic: 98.36 at 1500 connections</title></circle>
  <circle cx="435.0" cy="175.0" r="3" fill="#e377c2"><title>lsquic: 98.14 at 2000 connections</title></circle>
  <circle cx="620.0" cy="174.8" r="3" fill="#e377c2"><title>lsquic: 98.3 at 3000 connections</title></circle>
  <polyline points="65.2,296.2 74.2,288.7 102.0,253.7" fill="none" stroke="#7f7f7f" stroke-width="1.8"/>
  <circle cx="65.2" cy="296.2" r="3" fill="#7f7f7f"><title>mini_rudp: 9.07 at 1 connections</title></circle>
  <circle cx="74.2" cy="288.7" r="3" fill="#7f7f7f"><title>mini_rudp: 14.65 at 50 connections</title></circle>
  <circle cx="102.0" cy="253.7" r="3" fill="#7f7f7f"><title>mini_rudp: 40.34 at 200 connections</title></circle>
  <polyline points="65.2,297.5 74.2,269.2 102.0,184.3 176.0,129.3 250.0,121.9" fill="none" stroke="#bcbd22" stroke-width="1.8"/>
  <circle cx="65.2" cy="297.5" r="3" fill="#bcbd22"><title>msquic: 8.15 at 1 connections</title></circle>
  <circle cx="74.2" cy="269.2" r="3" fill="#bcbd22"><title>msquic: 28.94 at 50 connections</title></circle>
  <circle cx="102.0" cy="184.3" r="3" fill="#bcbd22"><title>msquic: 91.32 at 200 connections</title></circle>
  <circle cx="176.0" cy="129.3" r="3" fill="#bcbd22"><title>msquic: 131.73 at 600 connections</title></circle>
  <circle cx="250.0" cy="121.9" r="3" fill="#bcbd22"><title>msquic: 137.18 at 1000 connections</title></circle>
  <polyline points="65.2,291.9 74.2,197.0 102.0,174.0 176.0,173.6" fill="none" stroke="#17becf" stroke-width="1.8"/>
  <circle cx="65.2" cy="291.9" r="3" fill="#17becf"><title>quiche: 12.3 at 1 connections</title></circle>
  <circle cx="74.2" cy="197.0" r="3" fill="#17becf"><title>quiche: 81.97 at 50 connections</title></circle>
  <circle cx="102.0" cy="174.0" r="3" fill="#17becf"><title>quiche: 98.87 at 200 connections</title></circle>
  <circle cx="176.0" cy="173.6" r="3" fill="#17becf"><title>quiche: 99.15 at 600 connections</title></circle>
  <polyline points="65.2,296.1 74.2,278.4 102.0,224.1 176.0,150.2 250.0,147.0 342.5,145.5 435.0,140.4 620.0,136.6" fill="none" stroke="#aec7e8" stroke-width="1.8"/>
  <circle cx="65.2" cy="296.1" r="3" fill="#aec7e8"><title>raknet: 9.15 at 1 connections</title></circle>
  <circle cx="74.2" cy="278.4" r="3" fill="#aec7e8"><title>raknet: 22.18 at 50 connections</title></circle>
  <circle cx="102.0" cy="224.1" r="3" fill="#aec7e8"><title>raknet: 62.1 at 200 connections</title></circle>
  <circle cx="176.0" cy="150.2" r="3" fill="#aec7e8"><title>raknet: 116.33 at 600 connections</title></circle>
  <circle cx="250.0" cy="147.0" r="3" fill="#aec7e8"><title>raknet: 118.71 at 1000 connections</title></circle>
  <circle cx="342.5" cy="145.5" r="3" fill="#aec7e8"><title>raknet: 119.8 at 1500 connections</title></circle>
  <circle cx="435.0" cy="140.4" r="3" fill="#aec7e8"><title>raknet: 123.54 at 2000 connections</title></circle>
  <circle cx="620.0" cy="136.6" r="3" fill="#aec7e8"><title>raknet: 126.33 at 3000 connections</title></circle>
  <polyline points="65.2,296.1 74.2,278.5 102.0,223.8 176.0,152.0 250.0,150.8 342.5,145.9 435.0,141.0 620.0,136.6" fill="none" stroke="#ffbb78" stroke-width="1.8"/>
  <circle cx="65.2" cy="296.1" r="3" fill="#ffbb78"><title>slikenet: 9.15 at 1 connections</title></circle>
  <circle cx="74.2" cy="278.5" r="3" fill="#ffbb78"><title>slikenet: 22.11 at 50 connections</title></circle>
  <circle cx="102.0" cy="223.8" r="3" fill="#ffbb78"><title>slikenet: 62.3 at 200 connections</title></circle>
  <circle cx="176.0" cy="152.0" r="3" fill="#ffbb78"><title>slikenet: 115.05 at 600 connections</title></circle>
  <circle cx="250.0" cy="150.8" r="3" fill="#ffbb78"><title>slikenet: 115.92 at 1000 connections</title></circle>
  <circle cx="342.5" cy="145.9" r="3" fill="#ffbb78"><title>slikenet: 119.51 at 1500 connections</title></circle>
  <circle cx="435.0" cy="141.0" r="3" fill="#ffbb78"><title>slikenet: 123.11 at 2000 connections</title></circle>
  <circle cx="620.0" cy="136.6" r="3" fill="#ffbb78"><title>slikenet: 126.38 at 3000 connections</title></circle>
  <polyline points="65.2,289.8 74.2,253.9" fill="none" stroke="#98df8a" stroke-width="1.8"/>
  <circle cx="65.2" cy="289.8" r="3" fill="#98df8a"><title>udt4: 13.8 at 1 connections</title></circle>
  <circle cx="74.2" cy="253.9" r="3" fill="#98df8a"><title>udt4: 40.16 at 50 connections</title></circle>
  <polyline points="65.2,293.3 74.2,281.1" fill="none" stroke="#ff9896" stroke-width="1.8"/>
  <circle cx="65.2" cy="293.3" r="3" fill="#ff9896"><title>yojimbo: 11.25 at 1 connections</title></circle>
  <circle cx="74.2" cy="281.1" r="3" fill="#ff9896"><title>yojimbo: 20.22 at 50 connections</title></circle>
  <rect x="65" y="347" width="12" height="10" fill="#1f77b4" rx="1"/>  <text x="81" y="355" font-size="9">apex_rudp</text>
  <rect x="342" y="347" width="12" height="10" fill="#ff7f0e" rx="1"/>  <text x="358" y="355" font-size="9">coop_rudp</text>
  <rect x="65" y="363" width="12" height="10" fill="#2ca02c" rx="1"/>  <text x="81" y="371" font-size="9">enet</text>
  <rect x="342" y="363" width="12" height="10" fill="#d62728" rx="1"/>  <text x="358" y="371" font-size="9">gns</text>
  <rect x="65" y="379" width="12" height="10" fill="#9467bd" rx="1"/>  <text x="81" y="387" font-size="9">kcp</text>
  <rect x="342" y="379" width="12" height="10" fill="#8c564b" rx="1"/>  <text x="358" y="387" font-size="9">litenetlib</text>
  <rect x="65" y="395" width="12" height="10" fill="#e377c2" rx="1"/>  <text x="81" y="403" font-size="9">lsquic</text>
  <rect x="342" y="395" width="12" height="10" fill="#7f7f7f" rx="1"/>  <text x="358" y="403" font-size="9">mini_rudp</text>
  <rect x="65" y="411" width="12" height="10" fill="#bcbd22" rx="1"/>  <text x="81" y="419" font-size="9">msquic</text>
  <rect x="342" y="411" width="12" height="10" fill="#17becf" rx="1"/>  <text x="358" y="419" font-size="9">quiche</text>
  <rect x="65" y="427" width="12" height="10" fill="#aec7e8" rx="1"/>  <text x="81" y="435" font-size="9">raknet</text>
  <rect x="342" y="427" width="12" height="10" fill="#ffbb78" rx="1"/>  <text x="358" y="435" font-size="9">slikenet</text>
  <rect x="65" y="443" width="12" height="10" fill="#98df8a" rx="1"/>  <text x="81" y="451" font-size="9">udt4</text>
  <rect x="342" y="443" width="12" height="10" fill="#ff9896" rx="1"/>  <text x="358" y="451" font-size="9">yojimbo</text>
</svg>
