<svg xmlns="http://www.w3.org/2000/svg" viewBox="0 0 640 400" font-family="sans-serif" font-size="11">
  <text x="342" y="18" text-anchor="middle" font-size="14" font-weight="bold">reliable_echo: RTT p95 vs connections</text>
  <rect x="65" y="35" width="555" height="275" fill="white" stroke="#ccc"/>
  <line x1="65" y1="299.5" x2="620.0" y2="299.5" stroke="#ddd" stroke-width="1"/>
  <text x="60" y="302.5" text-anchor="end" font-size="9" fill="#333">0</text>
  <line x1="65" y1="237.6" x2="620.0" y2="237.6" stroke="#ddd" stroke-width="1"/>
  <text x="60" y="240.6" text-anchor="end" font-size="9" fill="#333">2000</text>
  <line x1="65" y1="175.8" x2="620.0" y2="175.8" stroke="#ddd" stroke-width="1"/>
  <text x="60" y="178.8" text-anchor="end" font-size="9" fill="#333">4000</text>
  <line x1="65" y1="114.0" x2="620.0" y2="114.0" stroke="#ddd" stroke-width="1"/>
  <text x="60" y="117.0" text-anchor="end" font-size="9" fill="#333">6000</text>
  <line x1="65" y1="52.2" x2="620.0" y2="52.2" stroke="#ddd" stroke-width="1"/>
  <text x="60" y="55.2" text-anchor="end" font-size="9" fill="#333">8000</text>
  <line x1="65.0" y1="35" x2="65.0" y2="310.0" stroke="#ddd" stroke-width="1"/>
  <text x="65.0" y="324.0" text-anchor="middle" font-size="9" fill="#333">0</text>
  <line x1="157.5" y1="35" x2="157.5" y2="310.0" stroke="#ddd" stroke-width="1"/>
  <text x="157.5" y="324.0" text-anchor="middle" font-size="9" fill="#333">500</text>
  <line x1="250.0" y1="35" x2="250.0" y2="310.0" stroke="#ddd" stroke-width="1"/>
  <text x="250.0" y="324.0" text-anchor="middle" font-size="9" fill="#333">1000</text>
  <line x1="342.5" y1="35" x2="342.5" y2="310.0" stroke="#ddd" stroke-width="1"/>
  <text x="342.5" y="324.0" text-anchor="middle" font-size="9" fill="#333">1500</text>
  <line x1="435.0" y1="35" x2="435.0" y2="310.0" stroke="#ddd" stroke-width="1"/>
  <text x="435.0" y="324.0" text-anchor="middle" font-size="9" fill="#333">2000</text>
  <line x1="527.5" y1="35" x2="527.5" y2="310.0" stroke="#ddd" stroke-width="1"/>
  <text x="527.5" y="324.0" text-anchor="middle" font-size="9" fill="#333">2500</text>
  <line x1="620.0" y1="35" x2="620.0" y2="310.0" stroke="#ddd" stroke-width="1"/>
  <text x="620.0" y="324.0" text-anchor="middle" font-size="9" fill="#333">3000</text>
  <text x="342" y="340" text-anchor="middle" font-size="11" fill="#333">connections</text>
  <text x="14" y="172" text-anchor="middle" font-size="11" fill="#333" transform="rotate(-90,14,172)">median RTT p95 (ms)</text>
  <polyline points="65.2,297.5 74.2,297.5 102.0,297.5 176.0,297.5 250.0,297.5 342.5,297.5 435.0,297.5 620.0,297.5" fill="none" stroke="#1f77b4" stroke-width="1.8"/>
  <circle cx="65.2" cy="297.5" r="3" fill="#1f77b4"><title>apex_rudp: 63.7 at 1 connections</title></circle>
  <circle cx="74.2" cy="297.5" r="3" fill="#1f77b4"><title>apex_rudp: 63.3 at 50 connections</title></circle>
  <circle cx="102.0" cy="297.5" r="3" fill="#1f77b4"><title>apex_rudp: 63.6 at 200 connections</title></circle>
  <circle cx="176.0" cy="297.5" r="3" fill="#1f77b4"><title>apex_rudp: 63.7 at 600 connections</title></circle>
  <circle cx="250.0" cy="297.5" r="3" fill="#1f77b4"><title>apex_rudp: 64 at 1000 connections</title></circle>
  <circle cx="342.5" cy="297.5" r="3" fill="#1f77b4"><title>apex_rudp: 64.3 at 1500 connections</title></circle>
  <circle cx="435.0" cy="297.5" r="3" fill="#1f77b4"><title>apex_rudp: 64.2 at 2000 connections</title></circle>
  <circle cx="620.0" cy="297.5" r="3" fill="#1f77b4"><title>apex_rudp: 64.5 at 3000 connections</title></circle>
  <polyline points="65.2,297.4 74.2,297.5 102.0,297.5 176.0,297.5 250.0,297.5 342.5,297.5 435.0,297.5 620.0,297.4" fill="none" stroke="#ff7f0e" stroke-width="1.8"/>
  <circle cx="65.2" cy="297.4" r="3" fill="#ff7f0e"><title>coop_rudp: 64.8 at 1 connections</title></circle>
  <circle cx="74.2" cy="297.5" r="3" fill="#ff7f0e"><title>coop_rudp: 63.2 at 50 connections</title></circle>
  <circle cx="102.0" cy="297.5" r="3" fill="#ff7f0e"><title>coop_rudp: 63.6 at 200 connections</title></circle>
  <circle cx="176.0" cy="297.5" r="3" fill="#ff7f0e"><title>coop_rudp: 63.5 at 600 connections</title></circle>
  <circle cx="250.0" cy="297.5" r="3" fill="#ff7f0e"><title>coop_rudp: 64 at 1000 connections</title></circle>
  <circle cx="342.5" cy="297.5" r="3" fill="#ff7f0e"><title>coop_rudp: 64.5 at 1500 connections</title></circle>
  <circle cx="435.0" cy="297.5" r="3" fill="#ff7f0e"><title>coop_rudp: 64.4 at 2000 connections</title></circle>
  <circle cx="620.0" cy="297.4" r="3" fill="#ff7f0e"><title>coop_rudp: 64.9 at 3000 connections</title></circle>
  <polyline points="65.2,296.3 74.2,296.8 102.0,296.8 176.0,296.7 250.0,288.1 342.5,179.9" fill="none" stroke="#2ca02c" stroke-width="1.8"/>
  <circle cx="65.2" cy="296.3" r="3" fill="#2ca02c"><title>enet: 100.6 at 1 connections</title></circle>
  <circle cx="74.2" cy="296.8" r="3" fill="#2ca02c"><title>enet: 87 at 50 connections</title></circle>
  <circle cx="102.0" cy="296.8" r="3" fill="#2ca02c"><title>enet: 87.2 at 200 connections</title></circle>
  <circle cx="176.0" cy="296.7" r="3" fill="#2ca02c"><title>enet: 89.5 at 600 connections</title></circle>
  <circle cx="250.0" cy="288.1" r="3" fill="#2ca02c"><title>enet: 368.2 at 1000 connections</title></circle>
  <circle cx="342.5" cy="179.9" r="3" fill="#2ca02c"><title>enet: 3869 at 1500 connections</title></circle>
  <polyline points="65.2,294.7 74.2,295.7 102.0,295.7 176.0,295.4 250.0,294.7 342.5,293.6 435.0,292.0 620.0,140.2" fill="none" stroke="#d62728" stroke-width="1.8"/>
  <circle cx="65.2" cy="294.7" r="3" fill="#d62728"><title>gns: 152.4 at 1 connections</title></circle>
  <circle cx="74.2" cy="295.7" r="3" fill="#d62728"><title>gns: 121.8 at 50 connections</title></circle>
  <circle cx="102.0" cy="295.7" r="3" fill="#d62728"><title>gns: 122.2 at 200 connections</title></circle>
  <circle cx="176.0" cy="295.4" r="3" fill="#d62728"><title>gns: 131.1 at 600 connections</title></circle>
  <circle cx="250.0" cy="294.7" r="3" fill="#d62728"><title>gns: 153.9 at 1000 connections</title></circle>
  <circle cx="342.5" cy="293.6" r="3" fill="#d62728"><title>gns: 188.8 at 1500 connections</title></circle>
  <circle cx="435.0" cy="292.0" r="3" fill="#d62728"><title>gns: 242 at 2000 connections</title></circle>
  <circle cx="620.0" cy="140.2" r="3" fill="#d62728"><title>gns: 5153 at 3000 connections</title></circle>
  <polyline points="65.2,296.0 74.2,296.9 102.0,296.8 176.0,296.8 250.0,237.0 342.5,96.0" fill="none" stroke="#9467bd" stroke-width="1.8"/>
  <circle cx="65.2" cy="296.0" r="3" fill="#9467bd"><title>kcp: 112 at 1 connections</title></circle>
  <circle cx="74.2" cy="296.9" r="3" fill="#9467bd"><title>kcp: 81.2 at 50 connections</title></circle>
  <circle cx="102.0" cy="296.8" r="3" fill="#9467bd"><title>kcp: 85.5 at 200 connections</title></circle>
  <circle cx="176.0" cy="296.8" r="3" fill="#9467bd"><title>kcp: 85.5 at 600 connections</title></circle>
  <circle cx="250.0" cy="237.0" r="3" fill="#9467bd"><title>kcp: 2020 at 1000 connections</title></circle>
  <circle cx="342.5" cy="96.0" r="3" fill="#9467bd"><title>kcp: 6581 at 1500 connections</title></circle>
  <polyline points="65.2,295.1 74.2,293.8 102.0,293.7 176.0,293.7 250.0,293.7 342.5,293.1 435.0,291.7 620.0,249.0" fill="none" stroke="#8c564b" stroke-width="1.8"/>
  <circle cx="65.2" cy="295.1" r="3" fill="#8c564b"><title>litenetlib: 141.3 at 1 connections</title></circle>
  <circle cx="74.2" cy="293.8" r="3" fill="#8c564b"><title>litenetlib: 181.8 at 50 connections</title></circle>
  <circle cx="102.0" cy="293.7" r="3" fill="#8c564b"><title>litenetlib: 184.5 at 200 connections</title></circle>
  <circle cx="176.0" cy="293.7" r="3" fill="#8c564b"><title>litenetlib: 185.1 at 600 connections</title></circle>
  <circle cx="250.0" cy="293.7" r="3" fill="#8c564b"><title>litenetlib: 187.2 at 1000 connections</title></circle>
  <circle cx="342.5" cy="293.1" r="3" fill="#8c564b"><title>litenetlib: 204.9 at 1500 connections</title></circle>
  <circle cx="435.0" cy="291.7" r="3" fill="#8c564b"><title>litenetlib: 251.5 at 2000 connections</title></circle>
  <circle cx="620.0" cy="249.0" r="3" fill="#8c564b"><title>litenetlib: 1633 at 3000 connections</title></circle>
  <polyline points="65.2,296.7 74.2,295.5 102.0,295.6 176.0,295.5 250.0,290.7 342.5,270.3 435.0,271.9 620.0,47.5" fill="none" stroke="#e377c2" stroke-width="1.8"/>
  <circle cx="65.2" cy="296.7" r="3" fill="#e377c2"><title>lsquic: 88 at 1 connections</title></circle>
  <circle cx="74.2" cy="295.5" r="3" fill="#e377c2"><title>lsquic: 126.8 at 50 connections</title></circle>
  <circle cx="102.0" cy="295.6" r="3" fill="#e377c2"><title>lsquic: 126 at 200 connections</title></circle>
  <circle cx="176.0" cy="295.5" r="3" fill="#e377c2"><title>lsquic: 128.1 at 600 connections</title></circle>
  <circle cx="250.0" cy="290.7" r="3" fill="#e377c2"><title>lsquic: 284.1 at 1000 connections</title></circle>
  <circle cx="342.5" cy="270.3" r="3" fill="#e377c2"><title>lsquic: 943.2 at 1500 connections</title></circle>
  <circle cx="435.0" cy="271.9" r="3" fill="#e377c2"><title>lsquic: 890.2 at 2000 connections</title></circle>
  <circle cx="620.0" cy="47.5" r="3" fill="#e377c2"><title>lsquic: 8151 at 3000 connections</title></circle>
  <polyline points="65.2,297.5 74.2,297.5 102.0,297.5" fill="none" stroke="#7f7f7f" stroke-width="1.8"/>
  <circle cx="65.2" cy="297.5" r="3" fill="#7f7f7f"><title>mini_rudp: 63.3 at 1 connections</title></circle>
  <circle cx="74.2" cy="297.5" r="3" fill="#7f7f7f"><title>mini_rudp: 63.1 at 50 connections</title></circle>
  <circle cx="102.0" cy="297.5" r="3" fill="#7f7f7f"><title>mini_rudp: 63.5 at 200 connections</title></circle>
  <polyline points="65.2,296.9 74.2,297.0 102.0,296.7 176.0,293.5 250.0,285.2" fill="none" stroke="#bcbd22" stroke-width="1.8"/>
  <circle cx="65.2" cy="296.9" r="3" fill="#bcbd22"><title>msquic: 83 at 1 connections</title></circle>
  <circle cx="74.2" cy="297.0" r="3" fill="#bcbd22"><title>msquic: 78.9 at 50 connections</title></circle>
  <circle cx="102.0" cy="296.7" r="3" fill="#bcbd22"><title>msquic: 90.1 at 200 connections</title></circle>
  <circle cx="176.0" cy="293.5" r="3" fill="#bcbd22"><title>msquic: 191.5 at 600 connections</title></circle>
  <circle cx="250.0" cy="285.2" r="3" fill="#bcbd22"><title>msquic: 460.1 at 1000 connections</title></circle>
  <polyline points="65.2,297.1 74.2,296.9 102.0,296.8 176.0,293.8" fill="none" stroke="#17becf" stroke-width="1.8"/>
  <circle cx="65.2" cy="297.1" r="3" fill="#17becf"><title>quiche: 74.6 at 1 connections</title></circle>
  <circle cx="74.2" cy="296.9" r="3" fill="#17becf"><title>quiche: 80.9 at 50 connections</title></circle>
  <circle cx="102.0" cy="296.8" r="3" fill="#17becf"><title>quiche: 86.6 at 200 connections</title></circle>
  <circle cx="176.0" cy="293.8" r="3" fill="#17becf"><title>quiche: 182 at 600 connections</title></circle>
  <polyline points="65.2,297.3 74.2,296.8 102.0,296.9 176.0,295.2 250.0,293.1 342.5,289.8 435.0,285.9 620.0,184.2" fill="none" stroke="#aec7e8" stroke-width="1.8"/>
  <circle cx="65.2" cy="297.3" r="3" fill="#aec7e8"><title>raknet: 68.3 at 1 connections</title></circle>
  <circle cx="74.2" cy="296.8" r="3" fill="#aec7e8"><title>raknet: 86.1 at 50 connections</title></circle>
  <circle cx="102.0" cy="296.9" r="3" fill="#aec7e8"><title>raknet: 83.4 at 200 connections</title></circle>
  <circle cx="176.0" cy="295.2" r="3" fill="#aec7e8"><title>raknet: 136.1 at 600 connections</title></circle>
  <circle cx="250.0" cy="293.1" r="3" fill="#aec7e8"><title>raknet: 206.6 at 1000 connections</title></circle>
  <circle cx="342.5" cy="289.8" r="3" fill="#aec7e8"><title>raknet: 312.6 at 1500 connections</title></circle>
  <circle cx="435.0" cy="285.9" r="3" fill="#aec7e8"><title>raknet: 436.9 at 2000 connections</title></circle>
  <circle cx="620.0" cy="184.2" r="3" fill="#aec7e8"><title>raknet: 3727 at 3000 connections</title></circle>
  <polyline points="65.2,297.0 74.2,296.8 102.0,296.9 176.0,295.2 250.0,292.8 342.5,289.6 435.0,286.0 620.0,181.6" fill="none" stroke="#ffbb78" stroke-width="1.8"/>
  <circle cx="65.2" cy="297.0" r="3" fill="#ffbb78"><title>slikenet: 80.6 at 1 connections</title></circle>
  <circle cx="74.2" cy="296.8" r="3" fill="#ffbb78"><title>slikenet: 85.5 at 50 connections</title></circle>
  <circle cx="102.0" cy="296.9" r="3" fill="#ffbb78"><title>slikenet: 83.1 at 200 connections</title></circle>
  <circle cx="176.0" cy="295.2" r="3" fill="#ffbb78"><title>slikenet: 137.8 at 600 connections</title></circle>
  <circle cx="250.0" cy="292.8" r="3" fill="#ffbb78"><title>slikenet: 214.8 at 1000 connections</title></circle>
  <circle cx="342.5" cy="289.6" r="3" fill="#ffbb78"><title>slikenet: 318.5 at 1500 connections</title></circle>
  <circle cx="435.0" cy="286.0" r="3" fill="#ffbb78"><title>slikenet: 433.6 at 2000 connections</title></circle>
  <circle cx="620.0" cy="181.6" r="3" fill="#ffbb78"><title>slikenet: 3812 at 3000 connections</title></circle>
  <polyline points="65.2,297.4 74.2,296.4" fill="none" stroke="#98df8a" stroke-width="1.8"/>
  <circle cx="65.2" cy="297.4" r="3" fill="#98df8a"><title>udt4: 67.9 at 1 connections</title></circle>
  <circle cx="74.2" cy="296.4" r="3" fill="#98df8a"><title>udt4: 99.6 at 50 connections</title></circle>
  <polyline points="65.2,295.4 74.2,295.4" fill="none" stroke="#ff9896" stroke-width="1.8"/>
  <circle cx="65.2" cy="295.4" r="3" fill="#ff9896"><title>yojimbo: 130.7 at 1 connections</title></circle>
  <circle cx="74.2" cy="295.4" r="3" fill="#ff9896"><title>yojimbo: 130.4 at 50 connections</title></circle>
  <rect x="65" y="347" width="12" height="10" fill="#1f77b4" rx="1"/>  <text x="81" y="355" font-size="9">apex_rudp</text>
  <rect x="342" y="347" width="12" height="10" fill="#ff7f0e" rx="1"/>  <text x="358" y="355" font-size="9">coop_rudp</text>
  <rect x="65" y="363" width="12" height="10" fill="#2ca02c" rx="1"/>  <text x="81" y="371" font-size="9">enet</text>
  <rect x="342" y="363" width="12" height="10" fill="#d62728" rx="1"/>  <text x="358" y="371" font-size="9">gns</text>
  <rect x="65" y="379" width="12" height="10" fill="#9467bd" rx="1"/>  <text x="81" y="387" font-size="9">kcp</text>
  <rect x="342" y="379" width="12" height="10" fill="#8c564b" rx="1"/>  <text x="358" y="387" font-size="9">litenetlib</text>
  <rect x="65" y="395" width="12" height="10" fill="#e377c2" rx="1"/>  <text x="81" y="403" font-size="9">lsquic</text>
  <rect x="342" y="395" width="12" height="10" fill="#7f7f7f" rx="1"/>  <text x="358" y="403" font-size="9">mini_rudp</text>
  <rect x="65" y="411" width="12" height="10" fill="#bcbd22" rx="1"/>  <text x="81" y="419" font-size="9">msquic</text>
  <rect x="342" y="411" width="12" height="10" fill="#17becf" rx="1"/>  <text x="358" y="419" font-size="9">quiche</text>
  <rect x="65" y="427" width="12" height="10" fill="#aec7e8" rx="1"/>  <text x="81" y="435" font-size="9">raknet</text>
  <rect x="342" y="427" width="12" height="10" fill="#ffbb78" rx="1"/>  <text x="358" y="435" font-size="9">slikenet</text>
  <rect x="65" y="443" width="12" height="10" fill="#98df8a" rx="1"/>  <text x="81" y="451" font-size="9">udt4</text>
  <rect x="342" y="443" width="12" height="10" fill="#ff9896" rx="1"/>  <text x="358" y="451" font-size="9">yojimbo</text>
</svg>
