<svg xmlns="http://www.w3.org/2000/svg" viewBox="0 0 640 400" font-family="sans-serif" font-size="11">
  <text x="342" y="18" text-anchor="middle" font-size="14" font-weight="bold">echo: RTT p95 vs connections</text>
  <rect x="65" y="35" width="555" height="275" fill="white" stroke="#ccc"/>
  <line x1="65" y1="302.2" x2="620.0" y2="302.2" stroke="#ddd" stroke-width="1"/>
  <text x="60" y="305.2" text-anchor="end" font-size="9" fill="#333">0</text>
  <line x1="65" y1="225.0" x2="620.0" y2="225.0" stroke="#ddd" stroke-width="1"/>
  <text x="60" y="228.0" text-anchor="end" font-size="9" fill="#333">1000</text>
  <line x1="65" y1="147.8" x2="620.0" y2="147.8" stroke="#ddd" stroke-width="1"/>
  <text x="60" y="150.8" text-anchor="end" font-size="9" fill="#333">2000</text>
  <line x1="65" y1="70.7" x2="620.0" y2="70.7" stroke="#ddd" stroke-width="1"/>
  <text x="60" y="73.7" text-anchor="end" font-size="9" fill="#333">3000</text>
  <line x1="65.0" y1="35" x2="65.0" y2="310.0" stroke="#ddd" stroke-width="1"/>
  <text x="65.0" y="324.0" text-anchor="middle" font-size="9" fill="#333">0</text>
  <line x1="157.5" y1="35" x2="157.5" y2="310.0" stroke="#ddd" stroke-width="1"/>
  <text x="157.5" y="324.0" text-anchor="middle" font-size="9" fill="#333">500</text>
  <line x1="250.0" y1="35" x2="250.0" y2="310.0" stroke="#ddd" stroke-width="1"/>
  <text x="250.0" y="324.0" text-anchor="middle" font-size="9" fill="#333">1000</text>
  <line x1="342.5" y1="35" x2="342.5" y2="310.0" stroke="#ddd" stroke-width="1"/>
  <text x="342.5" y="324.0" text-anchor="middle" font-size="9" fill="#333">1500</text>
  <line x1="435.0" y1="35" x2="435.0" y2="310.0" stroke="#ddd" stroke-width="1"/>
  <text x="435.0" y="324.0" text-anchor="middle" font-size="9" fill="#333">2000</text>
  <line x1="527.5" y1="35" x2="527.5" y2="310.0" stroke="#ddd" stroke-width="1"/>
  <text x="527.5" y="324.0" text-anchor="middle" font-size="9" fill="#333">2500</text>
  <line x1="620.0" y1="35" x2="620.0" y2="310.0" stroke="#ddd" stroke-width="1"/>
  <text x="620.0" y="324.0" text-anchor="middle" font-size="9" fill="#333">3000</text>
  <text x="342" y="340" text-anchor="middle" font-size="11" fill="#333">connections</text>
  <text x="14" y="172" text-anchor="middle" font-size="11" fill="#333" transform="rotate(-90,14,172)">median RTT p95 (ms)</text>
  <polyline points="65.2,297.4 74.2,297.5 102.0,297.5 176.0,297.4 250.0,297.4 342.5,297.4 435.0,297.4 620.0,297.4" fill="none" stroke="#1f77b4" stroke-width="1.8"/>
  <circle cx="65.2" cy="297.4" r="3" fill="#1f77b4"><title>apex_rudp: 62.2 at 1 connections</title></circle>
  <circle cx="74.2" cy="297.5" r="3" fill="#1f77b4"><title>apex_rudp: 61.6 at 50 connections</title></circle>
  <circle cx="102.0" cy="297.5" r="3" fill="#1f77b4"><title>apex_rudp: 61.6 at 200 connections</title></circle>
  <circle cx="176.0" cy="297.4" r="3" fill="#1f77b4"><title>apex_rudp: 61.8 at 600 connections</title></circle>
  <circle cx="250.0" cy="297.4" r="3" fill="#1f77b4"><title>apex_rudp: 62 at 1000 connections</title></circle>
  <circle cx="342.5" cy="297.4" r="3" fill="#1f77b4"><title>apex_rudp: 62.1 at 1500 connections</title></circle>
  <circle cx="435.0" cy="297.4" r="3" fill="#1f77b4"><title>apex_rudp: 62.4 at 2000 connections</title></circle>
  <circle cx="620.0" cy="297.4" r="3" fill="#1f77b4"><title>apex_rudp: 62.1 at 3000 connections</title></circle>
  <polyline points="65.2,297.4 74.2,297.4 102.0,297.4 176.0,297.4 250.0,297.4 342.5,297.4 435.0,297.3 620.0,297.3" fill="none" stroke="#ff7f0e" stroke-width="1.8"/>
  <circle cx="65.2" cy="297.4" r="3" fill="#ff7f0e"><title>coop_rudp: 61.8 at 1 connections</title></circle>
  <circle cx="74.2" cy="297.4" r="3" fill="#ff7f0e"><title>coop_rudp: 61.9 at 50 connections</title></circle>
  <circle cx="102.0" cy="297.4" r="3" fill="#ff7f0e"><title>coop_rudp: 62 at 200 connections</title></circle>
  <circle cx="176.0" cy="297.4" r="3" fill="#ff7f0e"><title>coop_rudp: 62.2 at 600 connections</title></circle>
  <circle cx="250.0" cy="297.4" r="3" fill="#ff7f0e"><title>coop_rudp: 62.6 at 1000 connections</title></circle>
  <circle cx="342.5" cy="297.4" r="3" fill="#ff7f0e"><title>coop_rudp: 62.9 at 1500 connections</title></circle>
  <circle cx="435.0" cy="297.3" r="3" fill="#ff7f0e"><title>coop_rudp: 63.2 at 2000 connections</title></circle>
  <circle cx="620.0" cy="297.3" r="3" fill="#ff7f0e"><title>coop_rudp: 63.7 at 3000 connections</title></circle>
  <polyline points="65.2,297.4 74.2,297.5 102.0,297.4 176.0,297.1 250.0,288.1" fill="none" stroke="#2ca02c" stroke-width="1.8"/>
  <circle cx="65.2" cy="297.4" r="3" fill="#2ca02c"><title>enet: 62.1 at 1 connections</title></circle>
  <circle cx="74.2" cy="297.5" r="3" fill="#2ca02c"><title>enet: 61.7 at 50 connections</title></circle>
  <circle cx="102.0" cy="297.4" r="3" fill="#2ca02c"><title>enet: 61.9 at 200 connections</title></circle>
  <circle cx="176.0" cy="297.1" r="3" fill="#2ca02c"><title>enet: 66.2 at 600 connections</title></circle>
  <circle cx="250.0" cy="288.1" r="3" fill="#2ca02c"><title>enet: 183.1 at 1000 connections</title></circle>
  <polyline points="65.2,296.7 74.2,296.6 102.0,296.6 176.0,296.0 250.0,294.3 342.5,288.5 435.0,265.6" fill="none" stroke="#d62728" stroke-width="1.8"/>
  <circle cx="65.2" cy="296.7" r="3" fill="#d62728"><title>gns: 71.4 at 1 connections</title></circle>
  <circle cx="74.2" cy="296.6" r="3" fill="#d62728"><title>gns: 72.6 at 50 connections</title></circle>
  <circle cx="102.0" cy="296.6" r="3" fill="#d62728"><title>gns: 72.5 at 200 connections</title></circle>
  <circle cx="176.0" cy="296.0" r="3" fill="#d62728"><title>gns: 80.8 at 600 connections</title></circle>
  <circle cx="250.0" cy="294.3" r="3" fill="#d62728"><title>gns: 102.1 at 1000 connections</title></circle>
  <circle cx="342.5" cy="288.5" r="3" fill="#d62728"><title>gns: 178.3 at 1500 connections</title></circle>
  <circle cx="435.0" cy="265.6" r="3" fill="#d62728"><title>gns: 473.8 at 2000 connections</title></circle>
  <polyline points="65.2,297.5 74.2,297.5 102.0,297.4 176.0,296.4" fill="none" stroke="#9467bd" stroke-width="1.8"/>
  <circle cx="65.2" cy="297.5" r="3" fill="#9467bd"><title>kcp: 61.1 at 1 connections</title></circle>
  <circle cx="74.2" cy="297.5" r="3" fill="#9467bd"><title>kcp: 61.7 at 50 connections</title></circle>
  <circle cx="102.0" cy="297.4" r="3" fill="#9467bd"><title>kcp: 61.8 at 200 connections</title></circle>
  <circle cx="176.0" cy="296.4" r="3" fill="#9467bd"><title>kcp: 75.6 at 600 connections</title></circle>
  <polyline points="65.2,296.5 74.2,296.5 102.0,296.4 176.0,296.4 250.0,296.2 342.5,295.4 435.0,294.6 620.0,289.2" fill="none" stroke="#8c564b" stroke-width="1.8"/>
  <circle cx="65.2" cy="296.5" r="3" fill="#8c564b"><title>litenetlib: 74.1 at 1 connections</title></circle>
  <circle cx="74.2" cy="296.5" r="3" fill="#8c564b"><title>litenetlib: 74.6 at 50 connections</title></circle>
  <circle cx="102.0" cy="296.4" r="3" fill="#8c564b"><title>litenetlib: 75.3 at 200 connections</title></circle>
  <circle cx="176.0" cy="296.4" r="3" fill="#8c564b"><title>litenetlib: 75.8 at 600 connections</title></circle>
  <circle cx="250.0" cy="296.2" r="3" fill="#8c564b"><title>litenetlib: 77.5 at 1000 connections</title></circle>
  <circle cx="342.5" cy="295.4" r="3" fill="#8c564b"><title>litenetlib: 88.4 at 1500 connections</title></circle>
  <circle cx="435.0" cy="294.6" r="3" fill="#8c564b"><title>litenetlib: 98.6 at 2000 connections</title></circle>
  <circle cx="620.0" cy="289.2" r="3" fill="#8c564b"><title>litenetlib: 168.4 at 3000 connections</title></circle>
  <polyline points="65.2,297.4 74.2,297.4 102.0,297.4 176.0,297.2 250.0,295.3" fill="none" stroke="#e377c2" stroke-width="1.8"/>
  <circle cx="65.2" cy="297.4" r="3" fill="#e377c2"><title>lsquic: 62 at 1 connections</title></circle>
  <circle cx="74.2" cy="297.4" r="3" fill="#e377c2"><title>lsquic: 62.4 at 50 connections</title></circle>
  <circle cx="102.0" cy="297.4" r="3" fill="#e377c2"><title>lsquic: 62.9 at 200 connections</title></circle>
  <circle cx="176.0" cy="297.2" r="3" fill="#e377c2"><title>lsquic: 64.9 at 600 connections</title></circle>
  <circle cx="250.0" cy="295.3" r="3" fill="#e377c2"><title>lsquic: 89 at 1000 connections</title></circle>
  <polyline points="65.2,297.5 74.2,297.5 102.0,297.4" fill="none" stroke="#7f7f7f" stroke-width="1.8"/>
  <circle cx="65.2" cy="297.5" r="3" fill="#7f7f7f"><title>mini_rudp: 61.7 at 1 connections</title></circle>
  <circle cx="74.2" cy="297.5" r="3" fill="#7f7f7f"><title>mini_rudp: 61.7 at 50 connections</title></circle>
  <circle cx="102.0" cy="297.4" r="3" fill="#7f7f7f"><title>mini_rudp: 61.9 at 200 connections</title></circle>
  <polyline points="65.2,297.4 74.2,297.4 102.0,296.6 176.0,289.8 250.0,274.3 342.5,221.6" fill="none" stroke="#bcbd22" stroke-width="1.8"/>
  <circle cx="65.2" cy="297.4" r="3" fill="#bcbd22"><title>msquic: 61.8 at 1 connections</title></circle>
  <circle cx="74.2" cy="297.4" r="3" fill="#bcbd22"><title>msquic: 62.4 at 50 connections</title></circle>
  <circle cx="102.0" cy="296.6" r="3" fill="#bcbd22"><title>msquic: 72.9 at 200 connections</title></circle>
  <circle cx="176.0" cy="289.8" r="3" fill="#bcbd22"><title>msquic: 161.3 at 600 connections</title></circle>
  <circle cx="250.0" cy="274.3" r="3" fill="#bcbd22"><title>msquic: 361.7 at 1000 connections</title></circle>
  <circle cx="342.5" cy="221.6" r="3" fill="#bcbd22"><title>msquic: 1044.25 at 1500 connections</title></circle>
  <polyline points="65.2,297.4 74.2,297.4 102.0,297.1 176.0,294.9" fill="none" stroke="#17becf" stroke-width="1.8"/>
  <circle cx="65.2" cy="297.4" r="3" fill="#17becf"><title>quiche: 62.4 at 1 connections</title></circle>
  <circle cx="74.2" cy="297.4" r="3" fill="#17becf"><title>quiche: 62.4 at 50 connections</title></circle>
  <circle cx="102.0" cy="297.1" r="3" fill="#17becf"><title>quiche: 66.4 at 200 connections</title></circle>
  <circle cx="176.0" cy="294.9" r="3" fill="#17becf"><title>quiche: 95 at 600 connections</title></circle>
  <polyline points="65.2,297.5 74.2,297.5 102.0,297.4 176.0,292.7 250.0,285.0 342.5,54.2" fill="none" stroke="#aec7e8" stroke-width="1.8"/>
  <circle cx="65.2" cy="297.5" r="3" fill="#aec7e8"><title>raknet: 61.3 at 1 connections</title></circle>
  <circle cx="74.2" cy="297.5" r="3" fill="#aec7e8"><title>raknet: 61.7 at 50 connections</title></circle>
  <circle cx="102.0" cy="297.4" r="3" fill="#aec7e8"><title>raknet: 62.2 at 200 connections</title></circle>
  <circle cx="176.0" cy="292.7" r="3" fill="#aec7e8"><title>raknet: 123 at 600 connections</title></circle>
  <circle cx="250.0" cy="285.0" r="3" fill="#aec7e8"><title>raknet: 223.3 at 1000 connections</title></circle>
  <circle cx="342.5" cy="54.2" r="3" fill="#aec7e8"><title>raknet: 3213 at 1500 connections</title></circle>
  <polyline points="65.2,297.4 74.2,297.4 102.0,297.4 176.0,292.8 250.0,285.0 342.5,47.5" fill="none" stroke="#ffbb78" stroke-width="1.8"/>
  <circle cx="65.2" cy="297.4" r="3" fill="#ffbb78"><title>slikenet: 62.3 at 1 connections</title></circle>
  <circle cx="74.2" cy="297.4" r="3" fill="#ffbb78"><title>slikenet: 61.9 at 50 connections</title></circle>
  <circle cx="102.0" cy="297.4" r="3" fill="#ffbb78"><title>slikenet: 62.2 at 200 connections</title></circle>
  <circle cx="176.0" cy="292.8" r="3" fill="#ffbb78"><title>slikenet: 122.2 at 600 connections</title></circle>
  <circle cx="250.0" cy="285.0" r="3" fill="#ffbb78"><title>slikenet: 223.5 at 1000 connections</title></circle>
  <circle cx="342.5" cy="47.5" r="3" fill="#ffbb78"><title>slikenet: 3300 at 1500 connections</title></circle>
  <polyline points="65.2,295.9 74.2,295.8" fill="none" stroke="#98df8a" stroke-width="1.8"/>
  <circle cx="65.2" cy="295.9" r="3" fill="#98df8a"><title>yojimbo: 82.2 at 1 connections</title></circle>
  <circle cx="74.2" cy="295.8" r="3" fill="#98df8a"><title>yojimbo: 82.8 at 50 connections</title></circle>
  <rect x="65" y="347" width="12" height="10" fill="#1f77b4" rx="1"/>  <text x="81" y="355" font-size="9">apex_rudp</text>
  <rect x="342" y="347" width="12" height="10" fill="#ff7f0e" rx="1"/>  <text x="358" y="355" font-size="9">coop_rudp</text>
  <rect x="65" y="363" width="12" height="10" fill="#2ca02c" rx="1"/>  <text x="81" y="371" font-size="9">enet</text>
  <rect x="342" y="363" width="12" height="10" fill="#d62728" rx="1"/>  <text x="358" y="371" font-size="9">gns</text>
  <rect x="65" y="379" width="12" height="10" fill="#9467bd" rx="1"/>  <text x="81" y="387" font-size="9">kcp</text>
  <rect x="342" y="379" width="12" height="10" fill="#8c564b" rx="1"/>  <text x="358" y="387" font-size="9">litenetlib</text>
  <rect x="65" y="395" width="12" height="10" fill="#e377c2" rx="1"/>  <text x="81" y="403" font-size="9">lsquic</text>
  <rect x="342" y="395" width="12" height="10" fill="#7f7f7f" rx="1"/>  <text x="358" y="403" font-size="9">mini_rudp</text>
  <rect x="65" y="411" width="12" height="10" fill="#bcbd22" rx="1"/>  <text x="81" y="419" font-size="9">msquic</text>
  <rect x="342" y="411" width="12" height="10" fill="#17becf" rx="1"/>  <text x="358" y="419" font-size="9">quiche</text>
  <rect x="65" y="427" width="12" height="10" fill="#aec7e8" rx="1"/>  <text x="81" y="435" font-size="9">raknet</text>
  <rect x="342" y="427" width="12" height="10" fill="#ffbb78" rx="1"/>  <text x="358" y="435" font-size="9">slikenet</text>
  <rect x="65" y="443" width="12" height="10" fill="#98df8a" rx="1"/>  <text x="81" y="451" font-size="9">yojimbo</text>
</svg>
