<svg xmlns="http://www.w3.org/2000/svg" viewBox="0 0 640 400" font-family="sans-serif" font-size="11">
  <text x="342" y="18" text-anchor="middle" font-size="14" font-weight="bold">echo: delivery ratio vs connections</text>
  <rect x="65" y="35" width="555" height="275" fill="white" stroke="#ccc"/>
  <line x1="65" y1="285.1" x2="620.0" y2="285.1" stroke="#ddd" stroke-width="1"/>
  <text x="60" y="288.1" text-anchor="end" font-size="9" fill="#333">0.8</text>
  <line x1="65" y1="223.7" x2="620.0" y2="223.7" stroke="#ddd" stroke-width="1"/>
  <text x="60" y="226.7" text-anchor="end" font-size="9" fill="#333">0.85</text>
  <line x1="65" y1="162.3" x2="620.0" y2="162.3" stroke="#ddd" stroke-width="1"/>
  <text x="60" y="165.3" text-anchor="end" font-size="9" fill="#333">0.9</text>
  <line x1="65" y1="100.9" x2="620.0" y2="100.9" stroke="#ddd" stroke-width="1"/>
  <text x="60" y="103.9" text-anchor="end" font-size="9" fill="#333">0.95</text>
  <line x1="65" y1="39.5" x2="620.0" y2="39.5" stroke="#ddd" stroke-width="1"/>
  <text x="60" y="42.5" text-anchor="end" font-size="9" fill="#333">1</text>
  <line x1="65.0" y1="35" x2="65.0" y2="310.0" stroke="#ddd" stroke-width="1"/>
  <text x="65.0" y="324.0" text-anchor="middle" font-size="9" fill="#333">0</text>
  <line x1="157.5" y1="35" x2="157.5" y2="310.0" stroke="#ddd" stroke-width="1"/>
  <text x="157.5" y="324.0" text-anchor="middle" font-size="9" fill="#333">500</text>
  <line x1="250.0" y1="35" x2="250.0" y2="310.0" stroke="#ddd" stroke-width="1"/>
  <text x="250.0" y="324.0" text-anchor="middle" font-size="9" fill="#333">1000</text>
  <line x1="342.5" y1="35" x2="342.5" y2="310.0" stroke="#ddd" stroke-width="1"/>
  <text x="342.5" y="324.0" text-anchor="middle" font-size="9" fill="#333">1500</text>
  <line x1="435.0" y1="35" x2="435.0" y2="310.0" stroke="#ddd" stroke-width="1"/>
  <text x="435.0" y="324.0" text-anchor="middle" font-size="9" fill="#333">2000</text>
  <line x1="527.5" y1="35" x2="527.5" y2="310.0" stroke="#ddd" stroke-width="1"/>
  <text x="527.5" y="324.0" text-anchor="middle" font-size="9" fill="#333">2500</text>
  <line x1="620.0" y1="35" x2="620.0" y2="310.0" stroke="#ddd" stroke-width="1"/>
  <text x="620.0" y="324.0" text-anchor="middle" font-size="9" fill="#333">3000</text>
  <text x="342" y="340" text-anchor="middle" font-size="11" fill="#333">connections</text>
  <text x="14" y="172" text-anchor="middle" font-size="11" fill="#333" transform="rotate(-90,14,172)">median delivery ratio</text>
  <line x1="65" y1="100.9" x2="620.0" y2="100.9" stroke="black" stroke-width="1.2" stroke-dasharray="6,4" opacity="0.55"/>
  <text x="618.0" y="97.9" text-anchor="end" font-size="9" fill="#333"> 0.95</text>
  <polyline points="65.2,52.4 74.2,53.1 102.0,53.0 176.0,50.7 250.0,51.7 342.5,51.7 435.0,52.2 620.0,51.8" fill="none" stroke="#1f77b4" stroke-width="1.8"/>
  <circle cx="65.2" cy="52.4" r="3" fill="#1f77b4"><title>apex_rudp: 0.9895 at 1 connections</title></circle>
  <circle cx="74.2" cy="53.1" r="3" fill="#1f77b4"><title>apex_rudp: 0.9889 at 50 connections</title></circle>
  <circle cx="102.0" cy="53.0" r="3" fill="#1f77b4"><title>apex_rudp: 0.989 at 200 connections</title></circle>
  <circle cx="176.0" cy="50.7" r="3" fill="#1f77b4"><title>apex_rudp: 0.9909 at 600 connections</title></circle>
  <circle cx="250.0" cy="51.7" r="3" fill="#1f77b4"><title>apex_rudp: 0.9901 at 1000 connections</title></circle>
  <circle cx="342.5" cy="51.7" r="3" fill="#1f77b4"><title>apex_rudp: 0.9901 at 1500 connections</title></circle>
  <circle cx="435.0" cy="52.2" r="3" fill="#1f77b4"><title>apex_rudp: 0.9897 at 2000 connections</title></circle>
  <circle cx="620.0" cy="51.8" r="3" fill="#1f77b4"><title>apex_rudp: 0.99 at 3000 connections</title></circle>
  <polyline points="65.2,50.6 74.2,51.1 102.0,52.3 176.0,52.8 250.0,52.0 342.5,49.8 435.0,51.8 620.0,52.7" fill="none" stroke="#ff7f0e" stroke-width="1.8"/>
  <circle cx="65.2" cy="50.6" r="3" fill="#ff7f0e"><title>coop_rudp: 0.991 at 1 connections</title></circle>
  <circle cx="74.2" cy="51.1" r="3" fill="#ff7f0e"><title>coop_rudp: 0.9906 at 50 connections</title></circle>
  <circle cx="102.0" cy="52.3" r="3" fill="#ff7f0e"><title>coop_rudp: 0.9896 at 200 connections</title></circle>
  <circle cx="176.0" cy="52.8" r="3" fill="#ff7f0e"><title>coop_rudp: 0.9892 at 600 connections</title></circle>
  <circle cx="250.0" cy="52.0" r="3" fill="#ff7f0e"><title>coop_rudp: 0.9898 at 1000 connections</title></circle>
  <circle cx="342.5" cy="49.8" r="3" fill="#ff7f0e"><title>coop_rudp: 0.9916 at 1500 connections</title></circle>
  <circle cx="435.0" cy="51.8" r="3" fill="#ff7f0e"><title>coop_rudp: 0.99 at 2000 connections</title></circle>
  <circle cx="620.0" cy="52.7" r="3" fill="#ff7f0e"><title>coop_rudp: 0.9893 at 3000 connections</title></circle>
  <polyline points="65.2,52.4 74.2,52.3 102.0,54.0 176.0,53.5 250.0,193.3" fill="none" stroke="#2ca02c" stroke-width="1.8"/>
  <circle cx="65.2" cy="52.4" r="3" fill="#2ca02c"><title>enet: 0.9895 at 1 connections</title></circle>
  <circle cx="74.2" cy="52.3" r="3" fill="#2ca02c"><title>enet: 0.9896 at 50 connections</title></circle>
  <circle cx="102.0" cy="54.0" r="3" fill="#2ca02c"><title>enet: 0.9882 at 200 connections</title></circle>
  <circle cx="176.0" cy="53.5" r="3" fill="#2ca02c"><title>enet: 0.9886 at 600 connections</title></circle>
  <circle cx="250.0" cy="193.3" r="3" fill="#2ca02c"><title>enet: 0.8748 at 1000 connections</title></circle>
  <polyline points="65.2,52.4 74.2,51.7 102.0,52.0 176.0,51.4 250.0,51.8 342.5,51.7 435.0,204.4" fill="none" stroke="#d62728" stroke-width="1.8"/>
  <circle cx="65.2" cy="52.4" r="3" fill="#d62728"><title>gns: 0.9895 at 1 connections</title></circle>
  <circle cx="74.2" cy="51.7" r="3" fill="#d62728"><title>gns: 0.9901 at 50 connections</title></circle>
  <circle cx="102.0" cy="52.0" r="3" fill="#d62728"><title>gns: 0.9898 at 200 connections</title></circle>
  <circle cx="176.0" cy="51.4" r="3" fill="#d62728"><title>gns: 0.9903 at 600 connections</title></circle>
  <circle cx="250.0" cy="51.8" r="3" fill="#d62728"><title>gns: 0.99 at 1000 connections</title></circle>
  <circle cx="342.5" cy="51.7" r="3" fill="#d62728"><title>gns: 0.9901 at 1500 connections</title></circle>
  <circle cx="435.0" cy="204.4" r="3" fill="#d62728"><title>gns: 0.8657 at 2000 connections</title></circle>
  <polyline points="65.2,51.2 74.2,52.4 102.0,51.4 176.0,197.4" fill="none" stroke="#9467bd" stroke-width="1.8"/>
  <circle cx="65.2" cy="51.2" r="3" fill="#9467bd"><title>kcp: 0.9905 at 1 connections</title></circle>
  <circle cx="74.2" cy="52.4" r="3" fill="#9467bd"><title>kcp: 0.9895 at 50 connections</title></circle>
  <circle cx="102.0" cy="51.4" r="3" fill="#9467bd"><title>kcp: 0.9903 at 200 connections</title></circle>
  <circle cx="176.0" cy="197.4" r="3" fill="#9467bd"><title>kcp: 0.8714 at 600 connections</title></circle>
  <polyline points="65.2,50.6 74.2,52.2 102.0,51.9 176.0,51.7 250.0,51.9 342.5,51.8 435.0,51.8 620.0,103.4" fill="none" stroke="#8c564b" stroke-width="1.8"/>
  <circle cx="65.2" cy="50.6" r="3" fill="#8c564b"><title>litenetlib: 0.991 at 1 connections</title></circle>
  <circle cx="74.2" cy="52.2" r="3" fill="#8c564b"><title>litenetlib: 0.9897 at 50 connections</title></circle>
  <circle cx="102.0" cy="51.9" r="3" fill="#8c564b"><title>litenetlib: 0.9899 at 200 connections</title></circle>
  <circle cx="176.0" cy="51.7" r="3" fill="#8c564b"><title>litenetlib: 0.9901 at 600 connections</title></circle>
  <circle cx="250.0" cy="51.9" r="3" fill="#8c564b"><title>litenetlib: 0.9899 at 1000 connections</title></circle>
  <circle cx="342.5" cy="51.8" r="3" fill="#8c564b"><title>litenetlib: 0.99 at 1500 connections</title></circle>
  <circle cx="435.0" cy="51.8" r="3" fill="#8c564b"><title>litenetlib: 0.99 at 2000 connections</title></circle>
  <circle cx="620.0" cy="103.4" r="3" fill="#8c564b"><title>litenetlib: 0.948 at 3000 connections</title></circle>
  <polyline points="65.2,52.4 74.2,51.4 102.0,51.4 176.0,51.8 250.0,297.5" fill="none" stroke="#e377c2" stroke-width="1.8"/>
  <circle cx="65.2" cy="52.4" r="3" fill="#e377c2"><title>lsquic: 0.9895 at 1 connections</title></circle>
  <circle cx="74.2" cy="51.4" r="3" fill="#e377c2"><title>lsquic: 0.9903 at 50 connections</title></circle>
  <circle cx="102.0" cy="51.4" r="3" fill="#e377c2"><title>lsquic: 0.9903 at 200 connections</title></circle>
  <circle cx="176.0" cy="51.8" r="3" fill="#e377c2"><title>lsquic: 0.99 at 600 connections</title></circle>
  <circle cx="250.0" cy="297.5" r="3" fill="#e377c2"><title>lsquic: 0.7899 at 1000 connections</title></circle>
  <polyline points="65.2,57.3 74.2,52.0 102.0,51.9" fill="none" stroke="#7f7f7f" stroke-width="1.8"/>
  <circle cx="65.2" cy="57.3" r="3" fill="#7f7f7f"><title>mini_rudp: 0.9855 at 1 connections</title></circle>
  <circle cx="74.2" cy="52.0" r="3" fill="#7f7f7f"><title>mini_rudp: 0.9898 at 50 connections</title></circle>
  <circle cx="102.0" cy="51.9" r="3" fill="#7f7f7f"><title>mini_rudp: 0.9899 at 200 connections</title></circle>
  <polyline points="65.2,53.0 74.2,51.6 102.0,51.7 176.0,51.7 250.0,51.8 342.5,56.8" fill="none" stroke="#bcbd22" stroke-width="1.8"/>
  <circle cx="65.2" cy="53.0" r="3" fill="#bcbd22"><title>msquic: 0.989 at 1 connections</title></circle>
  <circle cx="74.2" cy="51.6" r="3" fill="#bcbd22"><title>msquic: 0.9902 at 50 connections</title></circle>
  <circle cx="102.0" cy="51.7" r="3" fill="#bcbd22"><title>msquic: 0.9901 at 200 connections</title></circle>
  <circle cx="176.0" cy="51.7" r="3" fill="#bcbd22"><title>msquic: 0.9901 at 600 connections</title></circle>
  <circle cx="250.0" cy="51.8" r="3" fill="#bcbd22"><title>msquic: 0.99 at 1000 connections</title></circle>
  <circle cx="342.5" cy="56.8" r="3" fill="#bcbd22"><title>msquic: 0.9859 at 1500 connections</title></circle>
  <polyline points="65.2,47.5 74.2,51.4 102.0,51.7 176.0,294.1" fill="none" stroke="#17becf" stroke-width="1.8"/>
  <circle cx="65.2" cy="47.5" r="3" fill="#17becf"><title>quiche: 0.9935 at 1 connections</title></circle>
  <circle cx="74.2" cy="51.4" r="3" fill="#17becf"><title>quiche: 0.9903 at 50 connections</title></circle>
  <circle cx="102.0" cy="51.7" r="3" fill="#17becf"><title>quiche: 0.9901 at 200 connections</title></circle>
  <circle cx="176.0" cy="294.1" r="3" fill="#17becf"><title>quiche: 0.7927 at 600 connections</title></circle>
  <polyline points="65.2,48.1 74.2,55.0 102.0,68.9 176.0,86.7 250.0,51.9 342.5,208.2" fill="none" stroke="#aec7e8" stroke-width="1.8"/>
  <circle cx="65.2" cy="48.1" r="3" fill="#aec7e8"><title>raknet: 0.993 at 1 connections</title></circle>
  <circle cx="74.2" cy="55.0" r="3" fill="#aec7e8"><title>raknet: 0.9874 at 50 connections</title></circle>
  <circle cx="102.0" cy="68.9" r="3" fill="#aec7e8"><title>raknet: 0.9761 at 200 connections</title></circle>
  <circle cx="176.0" cy="86.7" r="3" fill="#aec7e8"><title>raknet: 0.9616 at 600 connections</title></circle>
  <circle cx="250.0" cy="51.9" r="3" fill="#aec7e8"><title>raknet: 0.9899 at 1000 connections</title></circle>
  <circle cx="342.5" cy="208.2" r="3" fill="#aec7e8"><title>raknet: 0.8626 at 1500 connections</title></circle>
  <polyline points="65.2,53.6 74.2,51.9 102.0,61.0 176.0,52.7 250.0,51.7 342.5,232.1" fill="none" stroke="#ffbb78" stroke-width="1.8"/>
  <circle cx="65.2" cy="53.6" r="3" fill="#ffbb78"><title>slikenet: 0.9885 at 1 connections</title></circle>
  <circle cx="74.2" cy="51.9" r="3" fill="#ffbb78"><title>slikenet: 0.9899 at 50 connections</title></circle>
  <circle cx="102.0" cy="61.0" r="3" fill="#ffbb78"><title>slikenet: 0.9825 at 200 connections</title></circle>
  <circle cx="176.0" cy="52.7" r="3" fill="#ffbb78"><title>slikenet: 0.9893 at 600 connections</title></circle>
  <circle cx="250.0" cy="51.7" r="3" fill="#ffbb78"><title>slikenet: 0.9901 at 1000 connections</title></circle>
  <circle cx="342.5" cy="232.1" r="3" fill="#ffbb78"><title>slikenet: 0.8432 at 1500 connections</title></circle>
  <polyline points="65.2,51.2 74.2,51.9" fill="none" stroke="#98df8a" stroke-width="1.8"/>
  <circle cx="65.2" cy="51.2" r="3" fill="#98df8a"><title>yojimbo: 0.9905 at 1 connections</title></circle>
  <circle cx="74.2" cy="51.9" r="3" fill="#98df8a"><title>yojimbo: 0.9899 at 50 connections</title></circle>
  <rect x="65" y="347" width="12" height="10" fill="#1f77b4" rx="1"/>  <text x="81" y="355" font-size="9">apex_rudp</text>
  <rect x="342" y="347" width="12" height="10" fill="#ff7f0e" rx="1"/>  <text x="358" y="355" font-size="9">coop_rudp</text>
  <rect x="65" y="363" width="12" height="10" fill="#2ca02c" rx="1"/>  <text x="81" y="371" font-size="9">enet</text>
  <rect x="342" y="363" width="12" height="10" fill="#d62728" rx="1"/>  <text x="358" y="371" font-size="9">gns</text>
  <rect x="65" y="379" width="12" height="10" fill="#9467bd" rx="1"/>  <text x="81" y="387" font-size="9">kcp</text>
  <rect x="342" y="379" width="12" height="10" fill="#8c564b" rx="1"/>  <text x="358" y="387" font-size="9">litenetlib</text>
  <rect x="65" y="395" width="12" height="10" fill="#e377c2" rx="1"/>  <text x="81" y="403" font-size="9">lsquic</text>
  <rect x="342" y="395" width="12" height="10" fill="#7f7f7f" rx="1"/>  <text x="358" y="403" font-size="9">mini_rudp</text>
  <rect x="65" y="411" width="12" height="10" fill="#bcbd22" rx="1"/>  <text x="81" y="419" font-size="9">msquic</text>
  <rect x="342" y="411" width="12" height="10" fill="#17becf" rx="1"/>  <text x="358" y="419" font-size="9">quiche</text>
  <rect x="65" y="427" width="12" height="10" fill="#aec7e8" rx="1"/>  <text x="81" y="435" font-size="9">raknet</text>
  <rect x="342" y="427" width="12" height="10" fill="#ffbb78" rx="1"/>  <text x="358" y="435" font-size="9">slikenet</text>
  <rect x="65" y="443" width="12" height="10" fill="#98df8a" rx="1"/>  <text x="81" y="451" font-size="9">yojimbo</text>
</svg>
