<svg xmlns="http://www.w3.org/2000/svg" viewBox="0 0 640 400" font-family="sans-serif" font-size="11">
  <text x="342" y="18" text-anchor="middle" font-size="14" font-weight="bold">echo: server CPU vs connections</text>
  <rect x="65" y="35" width="555" height="275" fill="white" stroke="#ccc"/>
  <line x1="65" y1="308.4" x2="620.0" y2="308.4" stroke="#ddd" stroke-width="1"/>
  <text x="60" y="311.4" text-anchor="end" font-size="9" fill="#333">0</text>
  <line x1="65" y1="238.9" x2="620.0" y2="238.9" stroke="#ddd" stroke-width="1"/>
  <text x="60" y="241.9" text-anchor="end" font-size="9" fill="#333">50</text>
  <line x1="65" y1="169.5" x2="620.0" y2="169.5" stroke="#ddd" stroke-width="1"/>
  <text x="60" y="172.5" text-anchor="end" font-size="9" fill="#333">100</text>
  <line x1="65" y1="100.0" x2="620.0" y2="100.0" stroke="#ddd" stroke-width="1"/>
  <text x="60" y="103.0" text-anchor="end" font-size="9" fill="#333">150</text>
  <line x1="65.0" y1="35" x2="65.0" y2="310.0" stroke="#ddd" stroke-width="1"/>
  <text x="65.0" y="324.0" text-anchor="middle" font-size="9" fill="#333">0</text>
  <line x1="157.5" y1="35" x2="157.5" y2="310.0" stroke="#ddd" stroke-width="1"/>
  <text x="157.5" y="324.0" text-anchor="middle" font-size="9" fill="#333">500</text>
  <line x1="250.0" y1="35" x2="250.0" y2="310.0" stroke="#ddd" stroke-width="1"/>
  <text x="250.0" y="324.0" text-anchor="middle" font-size="9" fill="#333">1000</text>
  <line x1="342.5" y1="35" x2="342.5" y2="310.0" stroke="#ddd" stroke-width="1"/>
  <text x="342.5" y="324.0" text-anchor="middle" font-size="9" fill="#333">1500</text>
  <line x1="435.0" y1="35" x2="435.0" y2="310.0" stroke="#ddd" stroke-width="1"/>
  <text x="435.0" y="324.0" text-anchor="middle" font-size="9" fill="#333">2000</text>
  <line x1="527.5" y1="35" x2="527.5" y2="310.0" stroke="#ddd" stroke-width="1"/>
  <text x="527.5" y="324.0" text-anchor="middle" font-size="9" fill="#333">2500</text>
  <line x1="620.0" y1="35" x2="620.0" y2="310.0" stroke="#ddd" stroke-width="1"/>
  <text x="620.0" y="324.0" text-anchor="middle" font-size="9" fill="#333">3000</text>
  <text x="342" y="340" text-anchor="middle" font-size="11" fill="#333">connections</text>
  <text x="14" y="172" text-anchor="middle" font-size="11" fill="#333" transform="rotate(-90,14,172)">median server CPU %</text>
  <polyline points="65.2,293.3 74.2,290.2 102.0,287.3 176.0,279.4 250.0,272.0 342.5,262.2 435.0,252.5 620.0,241.9" fill="none" stroke="#1f77b4" stroke-width="1.8"/>
  <circle cx="65.2" cy="293.3" r="3" fill="#1f77b4"><title>apex_rudp: 10.84 at 1 connections</title></circle>
  <circle cx="74.2" cy="290.2" r="3" fill="#1f77b4"><title>apex_rudp: 13.06 at 50 connections</title></circle>
  <circle cx="102.0" cy="287.3" r="3" fill="#1f77b4"><title>apex_rudp: 15.16 at 200 connections</title></circle>
  <circle cx="176.0" cy="279.4" r="3" fill="#1f77b4"><title>apex_rudp: 20.84 at 600 connections</title></circle>
  <circle cx="250.0" cy="272.0" r="3" fill="#1f77b4"><title>apex_rudp: 26.17 at 1000 connections</title></circle>
  <circle cx="342.5" cy="262.2" r="3" fill="#1f77b4"><title>apex_rudp: 33.22 at 1500 connections</title></circle>
  <circle cx="435.0" cy="252.5" r="3" fill="#1f77b4"><title>apex_rudp: 40.23 at 2000 connections</title></circle>
  <circle cx="620.0" cy="241.9" r="3" fill="#1f77b4"><title>apex_rudp: 47.9 at 3000 connections</title></circle>
  <polyline points="65.2,266.6 74.2,263.6 102.0,260.1 176.0,274.7 250.0,254.3 342.5,240.4 435.0,226.3 620.0,204.2" fill="none" stroke="#ff7f0e" stroke-width="1.8"/>
  <circle cx="65.2" cy="266.6" r="3" fill="#ff7f0e"><title>coop_rudp: 30.05 at 1 connections</title></circle>
  <circle cx="74.2" cy="263.6" r="3" fill="#ff7f0e"><title>coop_rudp: 32.24 at 50 connections</title></circle>
  <circle cx="102.0" cy="260.1" r="3" fill="#ff7f0e"><title>coop_rudp: 34.79 at 200 connections</title></circle>
  <circle cx="176.0" cy="274.7" r="3" fill="#ff7f0e"><title>coop_rudp: 24.23 at 600 connections</title></circle>
  <circle cx="250.0" cy="254.3" r="3" fill="#ff7f0e"><title>coop_rudp: 38.92 at 1000 connections</title></circle>
  <circle cx="342.5" cy="240.4" r="3" fill="#ff7f0e"><title>coop_rudp: 48.94 at 1500 connections</title></circle>
  <circle cx="435.0" cy="226.3" r="3" fill="#ff7f0e"><title>coop_rudp: 59.09 at 2000 connections</title></circle>
  <circle cx="620.0" cy="204.2" r="3" fill="#ff7f0e"><title>coop_rudp: 75.04 at 3000 connections</title></circle>
  <polyline points="65.2,293.9 74.2,284.1 102.0,248.6 176.0,179.6 250.0,177.5" fill="none" stroke="#2ca02c" stroke-width="1.8"/>
  <circle cx="65.2" cy="293.9" r="3" fill="#2ca02c"><title>enet: 10.45 at 1 connections</title></circle>
  <circle cx="74.2" cy="284.1" r="3" fill="#2ca02c"><title>enet: 17.46 at 50 connections</title></circle>
  <circle cx="102.0" cy="248.6" r="3" fill="#2ca02c"><title>enet: 43.06 at 200 connections</title></circle>
  <circle cx="176.0" cy="179.6" r="3" fill="#2ca02c"><title>enet: 92.74 at 600 connections</title></circle>
  <circle cx="250.0" cy="177.5" r="3" fill="#2ca02c"><title>enet: 94.22 at 1000 connections</title></circle>
  <polyline points="65.2,295.2 74.2,283.0 102.0,247.8 176.0,161.0 250.0,107.9 342.5,74.9 435.0,60.9" fill="none" stroke="#d62728" stroke-width="1.8"/>
  <circle cx="65.2" cy="295.2" r="3" fill="#d62728"><title>gns: 9.47 at 1 connections</title></circle>
  <circle cx="74.2" cy="283.0" r="3" fill="#d62728"><title>gns: 18.28 at 50 connections</title></circle>
  <circle cx="102.0" cy="247.8" r="3" fill="#d62728"><title>gns: 43.64 at 200 connections</title></circle>
  <circle cx="176.0" cy="161.0" r="3" fill="#d62728"><title>gns: 106.12 at 600 connections</title></circle>
  <circle cx="250.0" cy="107.9" r="3" fill="#d62728"><title>gns: 144.35 at 1000 connections</title></circle>
  <circle cx="342.5" cy="74.9" r="3" fill="#d62728"><title>gns: 168.1 at 1500 connections</title></circle>
  <circle cx="435.0" cy="60.9" r="3" fill="#d62728"><title>gns: 178.15 at 2000 connections</title></circle>
  <polyline points="65.2,295.3 74.2,290.5 102.0,265.4 176.0,182.9" fill="none" stroke="#9467bd" stroke-width="1.8"/>
  <circle cx="65.2" cy="295.3" r="3" fill="#9467bd"><title>kcp: 9.41 at 1 connections</title></circle>
  <circle cx="74.2" cy="290.5" r="3" fill="#9467bd"><title>kcp: 12.87 at 50 connections</title></circle>
  <circle cx="102.0" cy="265.4" r="3" fill="#9467bd"><title>kcp: 30.98 at 200 connections</title></circle>
  <circle cx="176.0" cy="182.9" r="3" fill="#9467bd"><title>kcp: 90.33 at 600 connections</title></circle>
  <polyline points="65.2,293.3 74.2,284.3 102.0,260.3 176.0,182.4 250.0,104.7 342.5,82.1 435.0,68.4 620.0,47.5" fill="none" stroke="#8c564b" stroke-width="1.8"/>
  <circle cx="65.2" cy="293.3" r="3" fill="#8c564b"><title>litenetlib: 10.87 at 1 connections</title></circle>
  <circle cx="74.2" cy="284.3" r="3" fill="#8c564b"><title>litenetlib: 17.34 at 50 connections</title></circle>
  <circle cx="102.0" cy="260.3" r="3" fill="#8c564b"><title>litenetlib: 34.6 at 200 connections</title></circle>
  <circle cx="176.0" cy="182.4" r="3" fill="#8c564b"><title>litenetlib: 90.68 at 600 connections</title></circle>
  <circle cx="250.0" cy="104.7" r="3" fill="#8c564b"><title>litenetlib: 146.63 at 1000 connections</title></circle>
  <circle cx="342.5" cy="82.1" r="3" fill="#8c564b"><title>litenetlib: 162.93 at 1500 connections</title></circle>
  <circle cx="435.0" cy="68.4" r="3" fill="#8c564b"><title>litenetlib: 172.78 at 2000 connections</title></circle>
  <circle cx="620.0" cy="47.5" r="3" fill="#8c564b"><title>litenetlib: 187.81 at 3000 connections</title></circle>
  <polyline points="65.2,294.4 74.2,286.3 102.0,258.0 176.0,183.4 250.0,174.5" fill="none" stroke="#e377c2" stroke-width="1.8"/>
  <circle cx="65.2" cy="294.4" r="3" fill="#e377c2"><title>lsquic: 10.09 at 1 connections</title></circle>
  <circle cx="74.2" cy="286.3" r="3" fill="#e377c2"><title>lsquic: 15.9 at 50 connections</title></circle>
  <circle cx="102.0" cy="258.0" r="3" fill="#e377c2"><title>lsquic: 36.27 at 200 connections</title></circle>
  <circle cx="176.0" cy="183.4" r="3" fill="#e377c2"><title>lsquic: 89.98 at 600 connections</title></circle>
  <circle cx="250.0" cy="174.5" r="3" fill="#e377c2"><title>lsquic: 96.35 at 1000 connections</title></circle>
  <polyline points="65.2,296.0 74.2,287.0 102.0,239.2" fill="none" stroke="#7f7f7f" stroke-width="1.8"/>
  <circle cx="65.2" cy="296.0" r="3" fill="#7f7f7f"><title>mini_rudp: 8.95 at 1 connections</title></circle>
  <circle cx="74.2" cy="287.0" r="3" fill="#7f7f7f"><title>mini_rudp: 15.42 at 50 connections</title></circle>
  <circle cx="102.0" cy="239.2" r="3" fill="#7f7f7f"><title>mini_rudp: 49.81 at 200 connections</title></circle>
  <polyline points="65.2,297.5 74.2,255.8 102.0,149.5 176.0,127.2 250.0,119.7 342.5,109.1" fill="none" stroke="#bcbd22" stroke-width="1.8"/>
  <circle cx="65.2" cy="297.5" r="3" fill="#bcbd22"><title>msquic: 7.84 at 1 connections</title></circle>
  <circle cx="74.2" cy="255.8" r="3" fill="#bcbd22"><title>msquic: 37.85 at 50 connections</title></circle>
  <circle cx="102.0" cy="149.5" r="3" fill="#bcbd22"><title>msquic: 114.35 at 200 connections</title></circle>
  <circle cx="176.0" cy="127.2" r="3" fill="#bcbd22"><title>msquic: 130.42 at 600 connections</title></circle>
  <circle cx="250.0" cy="119.7" r="3" fill="#bcbd22"><title>msquic: 135.82 at 1000 connections</title></circle>
  <circle cx="342.5" cy="109.1" r="3" fill="#bcbd22"><title>msquic: 143.49 at 1500 connections</title></circle>
  <polyline points="65.2,291.8 74.2,186.8 102.0,171.3 176.0,171.0" fill="none" stroke="#17becf" stroke-width="1.8"/>
  <circle cx="65.2" cy="291.8" r="3" fill="#17becf"><title>quiche: 11.93 at 1 connections</title></circle>
  <circle cx="74.2" cy="186.8" r="3" fill="#17becf"><title>quiche: 87.55 at 50 connections</title></circle>
  <circle cx="102.0" cy="171.3" r="3" fill="#17becf"><title>quiche: 98.7 at 200 connections</title></circle>
  <circle cx="176.0" cy="171.0" r="3" fill="#17becf"><title>quiche: 98.92 at 600 connections</title></circle>
  <polyline points="65.2,295.6 74.2,277.3 102.0,224.0 176.0,152.0 250.0,152.0 342.5,149.1" fill="none" stroke="#aec7e8" stroke-width="1.8"/>
  <circle cx="65.2" cy="295.6" r="3" fill="#aec7e8"><title>raknet: 9.2 at 1 connections</title></circle>
  <circle cx="74.2" cy="277.3" r="3" fill="#aec7e8"><title>raknet: 22.37 at 50 connections</title></circle>
  <circle cx="102.0" cy="224.0" r="3" fill="#aec7e8"><title>raknet: 60.75 at 200 connections</title></circle>
  <circle cx="176.0" cy="152.0" r="3" fill="#aec7e8"><title>raknet: 112.6 at 600 connections</title></circle>
  <circle cx="250.0" cy="152.0" r="3" fill="#aec7e8"><title>raknet: 112.56 at 1000 connections</title></circle>
  <circle cx="342.5" cy="149.1" r="3" fill="#aec7e8"><title>raknet: 114.68 at 1500 connections</title></circle>
  <polyline points="65.2,295.6 74.2,277.3 102.0,222.7 176.0,153.8 250.0,148.6 342.5,148.4" fill="none" stroke="#ffbb78" stroke-width="1.8"/>
  <circle cx="65.2" cy="295.6" r="3" fill="#ffbb78"><title>slikenet: 9.2 at 1 connections</title></circle>
  <circle cx="74.2" cy="277.3" r="3" fill="#ffbb78"><title>slikenet: 22.36 at 50 connections</title></circle>
  <circle cx="102.0" cy="222.7" r="3" fill="#ffbb78"><title>slikenet: 61.72 at 200 connections</title></circle>
  <circle cx="176.0" cy="153.8" r="3" fill="#ffbb78"><title>slikenet: 111.29 at 600 connections</title></circle>
  <circle cx="250.0" cy="148.6" r="3" fill="#ffbb78"><title>slikenet: 115.01 at 1000 connections</title></circle>
  <circle cx="342.5" cy="148.4" r="3" fill="#ffbb78"><title>slikenet: 115.2 at 1500 connections</title></circle>
  <polyline points="65.2,293.2 74.2,281.6" fill="none" stroke="#98df8a" stroke-width="1.8"/>
  <circle cx="65.2" cy="293.2" r="3" fill="#98df8a"><title>yojimbo: 10.92 at 1 connections</title></circle>
  <circle cx="74.2" cy="281.6" r="3" fill="#98df8a"><title>yojimbo: 19.3 at 50 connections</title></circle>
  <rect x="65" y="347" width="12" height="10" fill="#1f77b4" rx="1"/>  <text x="81" y="355" font-size="9">apex_rudp</text>
  <rect x="342" y="347" width="12" height="10" fill="#ff7f0e" rx="1"/>  <text x="358" y="355" font-size="9">coop_rudp</text>
  <rect x="65" y="363" width="12" height="10" fill="#2ca02c" rx="1"/>  <text x="81" y="371" font-size="9">enet</text>
  <rect x="342" y="363" width="12" height="10" fill="#d62728" rx="1"/>  <text x="358" y="371" font-size="9">gns</text>
  <rect x="65" y="379" width="12" height="10" fill="#9467bd" rx="1"/>  <text x="81" y="387" font-size="9">kcp</text>
  <rect x="342" y="379" width="12" height="10" fill="#8c564b" rx="1"/>  <text x="358" y="387" font-size="9">litenetlib</text>
  <rect x="65" y="395" width="12" height="10" fill="#e377c2" rx="1"/>  <text x="81" y="403" font-size="9">lsquic</text>
  <rect x="342" y="395" width="12" height="10" fill="#7f7f7f" rx="1"/>  <text x="358" y="403" font-size="9">mini_rudp</text>
  <rect x="65" y="411" width="12" height="10" fill="#bcbd22" rx="1"/>  <text x="81" y="419" font-size="9">msquic</text>
  <rect x="342" y="411" width="12" height="10" fill="#17becf" rx="1"/>  <text x="358" y="419" font-size="9">quiche</text>
  <rect x="65" y="427" width="12" height="10" fill="#aec7e8" rx="1"/>  <text x="81" y="435" font-size="9">raknet</text>
  <rect x="342" y="427" width="12" height="10" fill="#ffbb78" rx="1"/>  <text x="358" y="435" font-size="9">slikenet</text>
  <rect x="65" y="443" width="12" height="10" fill="#98df8a" rx="1"/>  <text x="81" y="451" font-size="9">yojimbo</text>
</svg>
