<svg xmlns="http://www.w3.org/2000/svg" viewBox="0 0 640 400" font-family="sans-serif" font-size="11">
  <text x="342" y="18" text-anchor="middle" font-size="14" font-weight="bold">game_server: RTT p95 vs connections</text>
  <rect x="65" y="35" width="555" height="275" fill="white" stroke="#ccc"/>
  <line x1="65" y1="304.3" x2="620.0" y2="304.3" stroke="#ddd" stroke-width="1"/>
  <text x="60" y="307.3" text-anchor="end" font-size="9" fill="#333">0</text>
  <line x1="65" y1="248.0" x2="620.0" y2="248.0" stroke="#ddd" stroke-width="1"/>
  <text x="60" y="251.0" text-anchor="end" font-size="9" fill="#333">500</text>
  <line x1="65" y1="191.8" x2="620.0" y2="191.8" stroke="#ddd" stroke-width="1"/>
  <text x="60" y="194.8" text-anchor="end" font-size="9" fill="#333">1000</text>
  <line x1="65" y1="135.5" x2="620.0" y2="135.5" stroke="#ddd" stroke-width="1"/>
  <text x="60" y="138.5" text-anchor="end" font-size="9" fill="#333">1500</text>
  <line x1="65" y1="79.2" x2="620.0" y2="79.2" stroke="#ddd" stroke-width="1"/>
  <text x="60" y="82.2" text-anchor="end" font-size="9" fill="#333">2000</text>
  <line x1="171.6" y1="35" x2="171.6" y2="310.0" stroke="#ddd" stroke-width="1"/>
  <text x="171.6" y="324.0" text-anchor="middle" font-size="9" fill="#333">50</text>
  <line x1="280.5" y1="35" x2="280.5" y2="310.0" stroke="#ddd" stroke-width="1"/>
  <text x="280.5" y="324.0" text-anchor="middle" font-size="9" fill="#333">100</text>
  <line x1="389.3" y1="35" x2="389.3" y2="310.0" stroke="#ddd" stroke-width="1"/>
  <text x="389.3" y="324.0" text-anchor="middle" font-size="9" fill="#333">150</text>
  <line x1="498.1" y1="35" x2="498.1" y2="310.0" stroke="#ddd" stroke-width="1"/>
  <text x="498.1" y="324.0" text-anchor="middle" font-size="9" fill="#333">200</text>
  <line x1="606.9" y1="35" x2="606.9" y2="310.0" stroke="#ddd" stroke-width="1"/>
  <text x="606.9" y="324.0" text-anchor="middle" font-size="9" fill="#333">250</text>
  <text x="342" y="340" text-anchor="middle" font-size="11" fill="#333">connections</text>
  <text x="14" y="172" text-anchor="middle" font-size="11" fill="#333" transform="rotate(-90,14,172)">median RTT p95 (ms)</text>
  <polyline points="65.0,297.4 73.7,297.3 202.1,297.3 271.8,297.3 341.4,296.9 480.7,291.2 620.0,263.7" fill="none" stroke="#1f77b4" stroke-width="1.8"/>
  <circle cx="65.0" cy="297.4" r="3" fill="#1f77b4"><title>apex_rudp: 61.8 at 1 connections</title></circle>
  <circle cx="73.7" cy="297.3" r="3" fill="#1f77b4"><title>apex_rudp: 62.2 at 5 connections</title></circle>
  <circle cx="202.1" cy="297.3" r="3" fill="#1f77b4"><title>apex_rudp: 62.2 at 64 connections</title></circle>
  <circle cx="271.8" cy="297.3" r="3" fill="#1f77b4"><title>apex_rudp: 62.7 at 96 connections</title></circle>
  <circle cx="341.4" cy="296.9" r="3" fill="#1f77b4"><title>apex_rudp: 65.9 at 128 connections</title></circle>
  <circle cx="480.7" cy="291.2" r="3" fill="#1f77b4"><title>apex_rudp: 116.5 at 192 connections</title></circle>
  <circle cx="620.0" cy="263.7" r="3" fill="#1f77b4"><title>apex_rudp: 360.5 at 256 connections</title></circle>
  <polyline points="65.0,297.3 73.7,297.3 202.1,297.3 271.8,297.2 341.4,297.2 480.7,297.0 620.0,295.2" fill="none" stroke="#ff7f0e" stroke-width="1.8"/>
  <circle cx="65.0" cy="297.3" r="3" fill="#ff7f0e"><title>coop_rudp: 62.1 at 1 connections</title></circle>
  <circle cx="73.7" cy="297.3" r="3" fill="#ff7f0e"><title>coop_rudp: 61.9 at 5 connections</title></circle>
  <circle cx="202.1" cy="297.3" r="3" fill="#ff7f0e"><title>coop_rudp: 62 at 64 connections</title></circle>
  <circle cx="271.8" cy="297.2" r="3" fill="#ff7f0e"><title>coop_rudp: 62.8 at 96 connections</title></circle>
  <circle cx="341.4" cy="297.2" r="3" fill="#ff7f0e"><title>coop_rudp: 63.1 at 128 connections</title></circle>
  <circle cx="480.7" cy="297.0" r="3" fill="#ff7f0e"><title>coop_rudp: 65.3 at 192 connections</title></circle>
  <circle cx="620.0" cy="295.2" r="3" fill="#ff7f0e"><title>coop_rudp: 81 at 256 connections</title></circle>
  <polyline points="65.0,297.3 73.7,297.4 202.1,297.3 271.8,297.2 341.4,296.6" fill="none" stroke="#2ca02c" stroke-width="1.8"/>
  <circle cx="65.0" cy="297.3" r="3" fill="#2ca02c"><title>enet: 62.4 at 1 connections</title></circle>
  <circle cx="73.7" cy="297.4" r="3" fill="#2ca02c"><title>enet: 61.7 at 5 connections</title></circle>
  <circle cx="202.1" cy="297.3" r="3" fill="#2ca02c"><title>enet: 62.2 at 64 connections</title></circle>
  <circle cx="271.8" cy="297.2" r="3" fill="#2ca02c"><title>enet: 63.1 at 96 connections</title></circle>
  <circle cx="341.4" cy="296.6" r="3" fill="#2ca02c"><title>enet: 68.4 at 128 connections</title></circle>
  <polyline points="65.0,296.1 73.7,296.3 202.1,296.5 271.8,296.4 341.4,148.1" fill="none" stroke="#d62728" stroke-width="1.8"/>
  <circle cx="65.0" cy="296.1" r="3" fill="#d62728"><title>gns: 73.1 at 1 connections</title></circle>
  <circle cx="73.7" cy="296.3" r="3" fill="#d62728"><title>gns: 71.3 at 5 connections</title></circle>
  <circle cx="202.1" cy="296.5" r="3" fill="#d62728"><title>gns: 69.4 at 64 connections</title></circle>
  <circle cx="271.8" cy="296.4" r="3" fill="#d62728"><title>gns: 70.7 at 96 connections</title></circle>
  <circle cx="341.4" cy="148.1" r="3" fill="#d62728"><title>gns: 1388 at 128 connections</title></circle>
  <polyline points="65.0,297.3 73.7,297.4 202.1,296.9 271.8,220.5" fill="none" stroke="#9467bd" stroke-width="1.8"/>
  <circle cx="65.0" cy="297.3" r="3" fill="#9467bd"><title>kcp: 62.1 at 1 connections</title></circle>
  <circle cx="73.7" cy="297.4" r="3" fill="#9467bd"><title>kcp: 61.8 at 5 connections</title></circle>
  <circle cx="202.1" cy="296.9" r="3" fill="#9467bd"><title>kcp: 66.2 at 64 connections</title></circle>
  <circle cx="271.8" cy="220.5" r="3" fill="#9467bd"><title>kcp: 745.1 at 96 connections</title></circle>
  <polyline points="65.0,295.9 73.7,295.9 202.1,295.9 271.8,295.8 341.4,294.4" fill="none" stroke="#8c564b" stroke-width="1.8"/>
  <circle cx="65.0" cy="295.9" r="3" fill="#8c564b"><title>litenetlib: 75.1 at 1 connections</title></circle>
  <circle cx="73.7" cy="295.9" r="3" fill="#8c564b"><title>litenetlib: 74.4 at 5 connections</title></circle>
  <circle cx="202.1" cy="295.9" r="3" fill="#8c564b"><title>litenetlib: 74.7 at 64 connections</title></circle>
  <circle cx="271.8" cy="295.8" r="3" fill="#8c564b"><title>litenetlib: 75.3 at 96 connections</title></circle>
  <circle cx="341.4" cy="294.4" r="3" fill="#8c564b"><title>litenetlib: 87.9 at 128 connections</title></circle>
  <polyline points="65.0,297.3 73.7,297.3 202.1,296.3 271.8,296.5" fill="none" stroke="#e377c2" stroke-width="1.8"/>
  <circle cx="65.0" cy="297.3" r="3" fill="#e377c2"><title>lsquic: 62 at 1 connections</title></circle>
  <circle cx="73.7" cy="297.3" r="3" fill="#e377c2"><title>lsquic: 62 at 5 connections</title></circle>
  <circle cx="202.1" cy="296.3" r="3" fill="#e377c2"><title>lsquic: 71 at 64 connections</title></circle>
  <circle cx="271.8" cy="296.5" r="3" fill="#e377c2"><title>lsquic: 69.7 at 96 connections</title></circle>
  <polyline points="65.0,297.4 73.7,297.4 202.1,295.9" fill="none" stroke="#7f7f7f" stroke-width="1.8"/>
  <circle cx="65.0" cy="297.4" r="3" fill="#7f7f7f"><title>mini_rudp: 61.6 at 1 connections</title></circle>
  <circle cx="73.7" cy="297.4" r="3" fill="#7f7f7f"><title>mini_rudp: 61.8 at 5 connections</title></circle>
  <circle cx="202.1" cy="295.9" r="3" fill="#7f7f7f"><title>mini_rudp: 75.1 at 64 connections</title></circle>
  <polyline points="65.0,297.5 73.7,297.4 202.1,296.6 271.8,295.1 341.4,47.5" fill="none" stroke="#bcbd22" stroke-width="1.8"/>
  <circle cx="65.0" cy="297.5" r="3" fill="#bcbd22"><title>msquic: 60.7 at 1 connections</title></circle>
  <circle cx="73.7" cy="297.4" r="3" fill="#bcbd22"><title>msquic: 61.7 at 5 connections</title></circle>
  <circle cx="202.1" cy="296.6" r="3" fill="#bcbd22"><title>msquic: 68.4 at 64 connections</title></circle>
  <circle cx="271.8" cy="295.1" r="3" fill="#bcbd22"><title>msquic: 81.6 at 96 connections</title></circle>
  <circle cx="341.4" cy="47.5" r="3" fill="#bcbd22"><title>msquic: 2282 at 128 connections</title></circle>
  <polyline points="65.0,297.4 73.7,297.3 202.1,297.1 271.8,292.9 341.4,219.3 480.7,93.1" fill="none" stroke="#17becf" stroke-width="1.8"/>
  <circle cx="65.0" cy="297.4" r="3" fill="#17becf"><title>quiche: 61.2 at 1 connections</title></circle>
  <circle cx="73.7" cy="297.3" r="3" fill="#17becf"><title>quiche: 62.1 at 5 connections</title></circle>
  <circle cx="202.1" cy="297.1" r="3" fill="#17becf"><title>quiche: 64.4 at 64 connections</title></circle>
  <circle cx="271.8" cy="292.9" r="3" fill="#17becf"><title>quiche: 101.2 at 96 connections</title></circle>
  <circle cx="341.4" cy="219.3" r="3" fill="#17becf"><title>quiche: 755.7 at 128 connections</title></circle>
  <circle cx="480.7" cy="93.1" r="3" fill="#17becf"><title>quiche: 1877 at 192 connections</title></circle>
  <polyline points="65.0,297.5 73.7,297.4 202.1,295.3" fill="none" stroke="#aec7e8" stroke-width="1.8"/>
  <circle cx="65.0" cy="297.5" r="3" fill="#aec7e8"><title>raknet: 60.5 at 1 connections</title></circle>
  <circle cx="73.7" cy="297.4" r="3" fill="#aec7e8"><title>raknet: 61.5 at 5 connections</title></circle>
  <circle cx="202.1" cy="295.3" r="3" fill="#aec7e8"><title>raknet: 80.4 at 64 connections</title></circle>
  <polyline points="65.0,297.3 73.7,297.4 202.1,294.7" fill="none" stroke="#ffbb78" stroke-width="1.8"/>
  <circle cx="65.0" cy="297.3" r="3" fill="#ffbb78"><title>slikenet: 62 at 1 connections</title></circle>
  <circle cx="73.7" cy="297.4" r="3" fill="#ffbb78"><title>slikenet: 61.6 at 5 connections</title></circle>
  <circle cx="202.1" cy="294.7" r="3" fill="#ffbb78"><title>slikenet: 85 at 64 connections</title></circle>
  <polyline points="65.0,295.0 73.7,294.9 202.1,294.1" fill="none" stroke="#98df8a" stroke-width="1.8"/>
  <circle cx="65.0" cy="295.0" r="3" fill="#98df8a"><title>yojimbo: 82.3 at 1 connections</title></circle>
  <circle cx="73.7" cy="294.9" r="3" fill="#98df8a"><title>yojimbo: 83.2 at 5 connections</title></circle>
  <circle cx="202.1" cy="294.1" r="3" fill="#98df8a"><title>yojimbo: 90.9 at 64 connections</title></circle>
  <rect x="65" y="347" width="12" height="10" fill="#1f77b4" rx="1"/>  <text x="81" y="355" font-size="9">apex_rudp</text>
  <rect x="342" y="347" width="12" height="10" fill="#ff7f0e" rx="1"/>  <text x="358" y="355" font-size="9">coop_rudp</text>
  <rect x="65" y="363" width="12" height="10" fill="#2ca02c" rx="1"/>  <text x="81" y="371" font-size="9">enet</text>
  <rect x="342" y="363" width="12" height="10" fill="#d62728" rx="1"/>  <text x="358" y="371" font-size="9">gns</text>
  <rect x="65" y="379" width="12" height="10" fill="#9467bd" rx="1"/>  <text x="81" y="387" font-size="9">kcp</text>
  <rect x="342" y="379" width="12" height="10" fill="#8c564b" rx="1"/>  <text x="358" y="387" font-size="9">litenetlib</text>
  <rect x="65" y="395" width="12" height="10" fill="#e377c2" rx="1"/>  <text x="81" y="403" font-size="9">lsquic</text>
  <rect x="342" y="395" width="12" height="10" fill="#7f7f7f" rx="1"/>  <text x="358" y="403" font-size="9">mini_rudp</text>
  <rect x="65" y="411" width="12" height="10" fill="#bcbd22" rx="1"/>  <text x="81" y="419" font-size="9">msquic</text>
  <rect x="342" y="411" width="12" height="10" fill="#17becf" rx="1"/>  <text x="358" y="419" font-size="9">quiche</text>
  <rect x="65" y="427" width="12" height="10" fill="#aec7e8" rx="1"/>  <text x="81" y="435" font-size="9">raknet</text>
  <rect x="342" y="427" width="12" height="10" fill="#ffbb78" rx="1"/>  <text x="358" y="435" font-size="9">slikenet</text>
  <rect x="65" y="443" width="12" height="10" fill="#98df8a" rx="1"/>  <text x="81" y="451" font-size="9">yojimbo</text>
</svg>
