<svg xmlns="http://www.w3.org/2000/svg" viewBox="0 0 640 400" font-family="sans-serif" font-size="11">
  <text x="342" y="18" text-anchor="middle" font-size="14" font-weight="bold">game_server: delivery ratio vs connections</text>
  <rect x="65" y="35" width="555" height="275" fill="white" stroke="#ccc"/>
  <line x1="65" y1="252.4" x2="620.0" y2="252.4" stroke="#ddd" stroke-width="1"/>
  <text x="60" y="255.4" text-anchor="end" font-size="9" fill="#333">0.6</text>
  <line x1="65" y1="147.4" x2="620.0" y2="147.4" stroke="#ddd" stroke-width="1"/>
  <text x="60" y="150.4" text-anchor="end" font-size="9" fill="#333">0.8</text>
  <line x1="65" y1="42.5" x2="620.0" y2="42.5" stroke="#ddd" stroke-width="1"/>
  <text x="60" y="45.5" text-anchor="end" font-size="9" fill="#333">1</text>
  <line x1="171.6" y1="35" x2="171.6" y2="310.0" stroke="#ddd" stroke-width="1"/>
  <text x="171.6" y="324.0" text-anchor="middle" font-size="9" fill="#333">50</text>
  <line x1="280.5" y1="35" x2="280.5" y2="310.0" stroke="#ddd" stroke-width="1"/>
  <text x="280.5" y="324.0" text-anchor="middle" font-size="9" fill="#333">100</text>
  <line x1="389.3" y1="35" x2="389.3" y2="310.0" stroke="#ddd" stroke-width="1"/>
  <text x="389.3" y="324.0" text-anchor="middle" font-size="9" fill="#333">150</text>
  <line x1="498.1" y1="35" x2="498.1" y2="310.0" stroke="#ddd" stroke-width="1"/>
  <text x="498.1" y="324.0" text-anchor="middle" font-size="9" fill="#333">200</text>
  <line x1="606.9" y1="35" x2="606.9" y2="310.0" stroke="#ddd" stroke-width="1"/>
  <text x="606.9" y="324.0" text-anchor="middle" font-size="9" fill="#333">250</text>
  <text x="342" y="340" text-anchor="middle" font-size="11" fill="#333">connections</text>
  <text x="14" y="172" text-anchor="middle" font-size="11" fill="#333" transform="rotate(-90,14,172)">median delivery ratio</text>
  <line x1="65" y1="68.7" x2="620.0" y2="68.7" stroke="black" stroke-width="1.2" stroke-dasharray="6,4" opacity="0.55"/>
  <text x="618.0" y="65.7" text-anchor="end" font-size="9" fill="#333"> 0.95</text>
  <polyline points="65.0,50.0 73.7,54.0 202.1,54.4 271.8,63.2 341.4,68.5 480.7,67.2 620.0,67.0" fill="none" stroke="#1f77b4" stroke-width="1.8"/>
  <circle cx="65.0" cy="50.0" r="3" fill="#1f77b4"><title>apex_rudp: 0.9857 at 1 connections</title></circle>
  <circle cx="73.7" cy="54.0" r="3" fill="#1f77b4"><title>apex_rudp: 0.9781 at 5 connections</title></circle>
  <circle cx="202.1" cy="54.4" r="3" fill="#1f77b4"><title>apex_rudp: 0.9774 at 64 connections</title></circle>
  <circle cx="271.8" cy="63.2" r="3" fill="#1f77b4"><title>apex_rudp: 0.9605 at 96 connections</title></circle>
  <circle cx="341.4" cy="68.5" r="3" fill="#1f77b4"><title>apex_rudp: 0.9505 at 128 connections</title></circle>
  <circle cx="480.7" cy="67.2" r="3" fill="#1f77b4"><title>apex_rudp: 0.9529 at 192 connections</title></circle>
  <circle cx="620.0" cy="67.0" r="3" fill="#1f77b4"><title>apex_rudp: 0.9534 at 256 connections</title></circle>
  <polyline points="65.0,52.5 73.7,51.8 202.1,53.0 271.8,55.2 341.4,52.0 480.7,52.5 620.0,54.1" fill="none" stroke="#ff7f0e" stroke-width="1.8"/>
  <circle cx="65.0" cy="52.5" r="3" fill="#ff7f0e"><title>coop_rudp: 0.981 at 1 connections</title></circle>
  <circle cx="73.7" cy="51.8" r="3" fill="#ff7f0e"><title>coop_rudp: 0.9823 at 5 connections</title></circle>
  <circle cx="202.1" cy="53.0" r="3" fill="#ff7f0e"><title>coop_rudp: 0.98 at 64 connections</title></circle>
  <circle cx="271.8" cy="55.2" r="3" fill="#ff7f0e"><title>coop_rudp: 0.9758 at 96 connections</title></circle>
  <circle cx="341.4" cy="52.0" r="3" fill="#ff7f0e"><title>coop_rudp: 0.982 at 128 connections</title></circle>
  <circle cx="480.7" cy="52.5" r="3" fill="#ff7f0e"><title>coop_rudp: 0.981 at 192 connections</title></circle>
  <circle cx="620.0" cy="54.1" r="3" fill="#ff7f0e"><title>coop_rudp: 0.9779 at 256 connections</title></circle>
  <polyline points="65.0,58.8 73.7,53.8 202.1,61.7 271.8,67.2 341.4,79.6" fill="none" stroke="#2ca02c" stroke-width="1.8"/>
  <circle cx="65.0" cy="58.8" r="3" fill="#2ca02c"><title>enet: 0.969 at 1 connections</title></circle>
  <circle cx="73.7" cy="53.8" r="3" fill="#2ca02c"><title>enet: 0.9785 at 5 connections</title></circle>
  <circle cx="202.1" cy="61.7" r="3" fill="#2ca02c"><title>enet: 0.9634 at 64 connections</title></circle>
  <circle cx="271.8" cy="67.2" r="3" fill="#2ca02c"><title>enet: 0.953 at 96 connections</title></circle>
  <circle cx="341.4" cy="79.6" r="3" fill="#2ca02c"><title>enet: 0.9294 at 128 connections</title></circle>
  <polyline points="65.0,55.0 73.7,60.2 202.1,54.4 271.8,56.2 341.4,80.6" fill="none" stroke="#d62728" stroke-width="1.8"/>
  <circle cx="65.0" cy="55.0" r="3" fill="#d62728"><title>gns: 0.9762 at 1 connections</title></circle>
  <circle cx="73.7" cy="60.2" r="3" fill="#d62728"><title>gns: 0.9662 at 5 connections</title></circle>
  <circle cx="202.1" cy="54.4" r="3" fill="#d62728"><title>gns: 0.9774 at 64 connections</title></circle>
  <circle cx="271.8" cy="56.2" r="3" fill="#d62728"><title>gns: 0.974 at 96 connections</title></circle>
  <circle cx="341.4" cy="80.6" r="3" fill="#d62728"><title>gns: 0.9275 at 128 connections</title></circle>
  <polyline points="65.0,47.5 73.7,53.1 202.1,53.7 271.8,297.5" fill="none" stroke="#9467bd" stroke-width="1.8"/>
  <circle cx="65.0" cy="47.5" r="3" fill="#9467bd"><title>kcp: 0.9905 at 1 connections</title></circle>
  <circle cx="73.7" cy="53.1" r="3" fill="#9467bd"><title>kcp: 0.9798 at 5 connections</title></circle>
  <circle cx="202.1" cy="53.7" r="3" fill="#9467bd"><title>kcp: 0.9787 at 64 connections</title></circle>
  <circle cx="271.8" cy="297.5" r="3" fill="#9467bd"><title>kcp: 0.514 at 96 connections</title></circle>
  <polyline points="65.0,53.7 73.7,51.6 202.1,54.4 271.8,55.2 341.4,52.4" fill="none" stroke="#8c564b" stroke-width="1.8"/>
  <circle cx="65.0" cy="53.7" r="3" fill="#8c564b"><title>litenetlib: 0.9786 at 1 connections</title></circle>
  <circle cx="73.7" cy="51.6" r="3" fill="#8c564b"><title>litenetlib: 0.9826 at 5 connections</title></circle>
  <circle cx="202.1" cy="54.4" r="3" fill="#8c564b"><title>litenetlib: 0.9774 at 64 connections</title></circle>
  <circle cx="271.8" cy="55.2" r="3" fill="#8c564b"><title>litenetlib: 0.9759 at 96 connections</title></circle>
  <circle cx="341.4" cy="52.4" r="3" fill="#8c564b"><title>litenetlib: 0.9811 at 128 connections</title></circle>
  <polyline points="65.0,56.3 73.7,50.6 202.1,67.9 271.8,78.4" fill="none" stroke="#e377c2" stroke-width="1.8"/>
  <circle cx="65.0" cy="56.3" r="3" fill="#e377c2"><title>lsquic: 0.9738 at 1 connections</title></circle>
  <circle cx="73.7" cy="50.6" r="3" fill="#e377c2"><title>lsquic: 0.9845 at 5 connections</title></circle>
  <circle cx="202.1" cy="67.9" r="3" fill="#e377c2"><title>lsquic: 0.9517 at 64 connections</title></circle>
  <circle cx="271.8" cy="78.4" r="3" fill="#e377c2"><title>lsquic: 0.9316 at 96 connections</title></circle>
  <polyline points="65.0,60.0 73.7,52.0 202.1,93.4" fill="none" stroke="#7f7f7f" stroke-width="1.8"/>
  <circle cx="65.0" cy="60.0" r="3" fill="#7f7f7f"><title>mini_rudp: 0.9667 at 1 connections</title></circle>
  <circle cx="73.7" cy="52.0" r="3" fill="#7f7f7f"><title>mini_rudp: 0.9819 at 5 connections</title></circle>
  <circle cx="202.1" cy="93.4" r="3" fill="#7f7f7f"><title>mini_rudp: 0.903 at 64 connections</title></circle>
  <polyline points="65.0,52.5 73.7,53.1 202.1,53.7 271.8,53.6 341.4,100.8" fill="none" stroke="#bcbd22" stroke-width="1.8"/>
  <circle cx="65.0" cy="52.5" r="3" fill="#bcbd22"><title>msquic: 0.981 at 1 connections</title></circle>
  <circle cx="73.7" cy="53.1" r="3" fill="#bcbd22"><title>msquic: 0.9799 at 5 connections</title></circle>
  <circle cx="202.1" cy="53.7" r="3" fill="#bcbd22"><title>msquic: 0.9786 at 64 connections</title></circle>
  <circle cx="271.8" cy="53.6" r="3" fill="#bcbd22"><title>msquic: 0.9789 at 96 connections</title></circle>
  <circle cx="341.4" cy="100.8" r="3" fill="#bcbd22"><title>msquic: 0.8889 at 128 connections</title></circle>
  <polyline points="65.0,50.0 73.7,53.0 202.1,54.9 271.8,54.6 341.4,64.1 480.7,280.9" fill="none" stroke="#17becf" stroke-width="1.8"/>
  <circle cx="65.0" cy="50.0" r="3" fill="#17becf"><title>quiche: 0.9857 at 1 connections</title></circle>
  <circle cx="73.7" cy="53.0" r="3" fill="#17becf"><title>quiche: 0.98 at 5 connections</title></circle>
  <circle cx="202.1" cy="54.9" r="3" fill="#17becf"><title>quiche: 0.9764 at 64 connections</title></circle>
  <circle cx="271.8" cy="54.6" r="3" fill="#17becf"><title>quiche: 0.977 at 96 connections</title></circle>
  <circle cx="341.4" cy="64.1" r="3" fill="#17becf"><title>quiche: 0.9588 at 128 connections</title></circle>
  <circle cx="480.7" cy="280.9" r="3" fill="#17becf"><title>quiche: 0.5457 at 192 connections</title></circle>
  <polyline points="65.0,51.3 73.7,54.2 202.1,71.4" fill="none" stroke="#aec7e8" stroke-width="1.8"/>
  <circle cx="65.0" cy="51.3" r="3" fill="#aec7e8"><title>raknet: 0.9833 at 1 connections</title></circle>
  <circle cx="73.7" cy="54.2" r="3" fill="#aec7e8"><title>raknet: 0.9777 at 5 connections</title></circle>
  <circle cx="202.1" cy="71.4" r="3" fill="#aec7e8"><title>raknet: 0.9449 at 64 connections</title></circle>
  <polyline points="65.0,51.3 73.7,52.7 202.1,76.8" fill="none" stroke="#ffbb78" stroke-width="1.8"/>
  <circle cx="65.0" cy="51.3" r="3" fill="#ffbb78"><title>slikenet: 0.9833 at 1 connections</title></circle>
  <circle cx="73.7" cy="52.7" r="3" fill="#ffbb78"><title>slikenet: 0.9805 at 5 connections</title></circle>
  <circle cx="202.1" cy="76.8" r="3" fill="#ffbb78"><title>slikenet: 0.9347 at 64 connections</title></circle>
  <polyline points="65.0,52.5 73.7,54.4 202.1,63.9" fill="none" stroke="#98df8a" stroke-width="1.8"/>
  <circle cx="65.0" cy="52.5" r="3" fill="#98df8a"><title>yojimbo: 0.981 at 1 connections</title></circle>
  <circle cx="73.7" cy="54.4" r="3" fill="#98df8a"><title>yojimbo: 0.9773 at 5 connections</title></circle>
  <circle cx="202.1" cy="63.9" r="3" fill="#98df8a"><title>yojimbo: 0.9592 at 64 connections</title></circle>
  <rect x="65" y="347" width="12" height="10" fill="#1f77b4" rx="1"/>  <text x="81" y="355" font-size="9">apex_rudp</text>
  <rect x="342" y="347" width="12" height="10" fill="#ff7f0e" rx="1"/>  <text x="358" y="355" font-size="9">coop_rudp</text>
  <rect x="65" y="363" width="12" height="10" fill="#2ca02c" rx="1"/>  <text x="81" y="371" font-size="9">enet</text>
  <rect x="342" y="363" width="12" height="10" fill="#d62728" rx="1"/>  <text x="358" y="371" font-size="9">gns</text>
  <rect x="65" y="379" width="12" height="10" fill="#9467bd" rx="1"/>  <text x="81" y="387" font-size="9">kcp</text>
  <rect x="342" y="379" width="12" height="10" fill="#8c564b" rx="1"/>  <text x="358" y="387" font-size="9">litenetlib</text>
  <rect x="65" y="395" width="12" height="10" fill="#e377c2" rx="1"/>  <text x="81" y="403" font-size="9">lsquic</text>
  <rect x="342" y="395" width="12" height="10" fill="#7f7f7f" rx="1"/>  <text x="358" y="403" font-size="9">mini_rudp</text>
  <rect x="65" y="411" width="12" height="10" fill="#bcbd22" rx="1"/>  <text x="81" y="419" font-size="9">msquic</text>
  <rect x="342" y="411" width="12" height="10" fill="#17becf" rx="1"/>  <text x="358" y="419" font-size="9">quiche</text>
  <rect x="65" y="427" width="12" height="10" fill="#aec7e8" rx="1"/>  <text x="81" y="435" font-size="9">raknet</text>
  <rect x="342" y="427" width="12" height="10" fill="#ffbb78" rx="1"/>  <text x="358" y="435" font-size="9">slikenet</text>
  <rect x="65" y="443" width="12" height="10" fill="#98df8a" rx="1"/>  <text x="81" y="451" font-size="9">yojimbo</text>
</svg>
