<svg xmlns="http://www.w3.org/2000/svg" viewBox="0 0 640 400" font-family="sans-serif" font-size="11">
  <text x="342" y="18" text-anchor="middle" font-size="14" font-weight="bold">media_relay: server CPU vs connections</text>
  <rect x="65" y="35" width="555" height="275" fill="white" stroke="#ccc"/>
  <line x1="65" y1="216.5" x2="620.0" y2="216.5" stroke="#ddd" stroke-width="1"/>
  <text x="60" y="219.5" text-anchor="end" font-size="9" fill="#333">50</text>
  <line x1="65" y1="120.0" x2="620.0" y2="120.0" stroke="#ddd" stroke-width="1"/>
  <text x="60" y="123.0" text-anchor="end" font-size="9" fill="#333">100</text>
  <line x1="201.7" y1="35" x2="201.7" y2="310.0" stroke="#ddd" stroke-width="1"/>
  <text x="201.7" y="324.0" text-anchor="middle" font-size="9" fill="#333">50</text>
  <line x1="341.1" y1="35" x2="341.1" y2="310.0" stroke="#ddd" stroke-width="1"/>
  <text x="341.1" y="324.0" text-anchor="middle" font-size="9" fill="#333">100</text>
  <line x1="480.6" y1="35" x2="480.6" y2="310.0" stroke="#ddd" stroke-width="1"/>
  <text x="480.6" y="324.0" text-anchor="middle" font-size="9" fill="#333">150</text>
  <line x1="620.0" y1="35" x2="620.0" y2="310.0" stroke="#ddd" stroke-width="1"/>
  <text x="620.0" y="324.0" text-anchor="middle" font-size="9" fill="#333">200</text>
  <text x="342" y="340" text-anchor="middle" font-size="11" fill="#333">connections</text>
  <text x="14" y="172" text-anchor="middle" font-size="11" fill="#333" transform="rotate(-90,14,172)">median server CPU %</text>
  <polyline points="65.0,292.3 76.2,291.2 201.7,274.4 271.4,238.7 341.1,204.1 410.8,157.9 480.6,96.5 620.0,77.7" fill="none" stroke="#1f77b4" stroke-width="1.8"/>
  <circle cx="65.0" cy="292.3" r="3" fill="#1f77b4"><title>apex_rudp: 10.77 at 1 connections</title></circle>
  <circle cx="76.2" cy="291.2" r="3" fill="#1f77b4"><title>apex_rudp: 11.34 at 5 connections</title></circle>
  <circle cx="201.7" cy="274.4" r="3" fill="#1f77b4"><title>apex_rudp: 20.03 at 50 connections</title></circle>
  <circle cx="271.4" cy="238.7" r="3" fill="#1f77b4"><title>apex_rudp: 38.53 at 75 connections</title></circle>
  <circle cx="341.1" cy="204.1" r="3" fill="#1f77b4"><title>apex_rudp: 56.46 at 100 connections</title></circle>
  <circle cx="410.8" cy="157.9" r="3" fill="#1f77b4"><title>apex_rudp: 80.4 at 125 connections</title></circle>
  <circle cx="480.6" cy="96.5" r="3" fill="#1f77b4"><title>apex_rudp: 112.21 at 150 connections</title></circle>
  <circle cx="620.0" cy="77.7" r="3" fill="#1f77b4"><title>apex_rudp: 121.9 at 200 connections</title></circle>
  <polyline points="65.0,261.2 76.2,255.2 201.7,248.3 271.4,234.6 341.1,233.6 410.8,202.1 480.6,178.6 620.0,132.0" fill="none" stroke="#ff7f0e" stroke-width="1.8"/>
  <circle cx="65.0" cy="261.2" r="3" fill="#ff7f0e"><title>coop_rudp: 26.84 at 1 connections</title></circle>
  <circle cx="76.2" cy="255.2" r="3" fill="#ff7f0e"><title>coop_rudp: 29.98 at 5 connections</title></circle>
  <circle cx="201.7" cy="248.3" r="3" fill="#ff7f0e"><title>coop_rudp: 33.54 at 50 connections</title></circle>
  <circle cx="271.4" cy="234.6" r="3" fill="#ff7f0e"><title>coop_rudp: 40.65 at 75 connections</title></circle>
  <circle cx="341.1" cy="233.6" r="3" fill="#ff7f0e"><title>coop_rudp: 41.18 at 100 connections</title></circle>
  <circle cx="410.8" cy="202.1" r="3" fill="#ff7f0e"><title>coop_rudp: 57.5 at 125 connections</title></circle>
  <circle cx="480.6" cy="178.6" r="3" fill="#ff7f0e"><title>coop_rudp: 69.68 at 150 connections</title></circle>
  <circle cx="620.0" cy="132.0" r="3" fill="#ff7f0e"><title>coop_rudp: 93.78 at 200 connections</title></circle>
  <polyline points="65.0,292.5 76.2,291.7 201.7,163.1 271.4,132.3" fill="none" stroke="#2ca02c" stroke-width="1.8"/>
  <circle cx="65.0" cy="292.5" r="3" fill="#2ca02c"><title>enet: 10.66 at 1 connections</title></circle>
  <circle cx="76.2" cy="291.7" r="3" fill="#2ca02c"><title>enet: 11.06 at 5 connections</title></circle>
  <circle cx="201.7" cy="163.1" r="3" fill="#2ca02c"><title>enet: 77.69 at 50 connections</title></circle>
  <circle cx="271.4" cy="132.3" r="3" fill="#2ca02c"><title>enet: 93.65 at 75 connections</title></circle>
  <polyline points="65.0,294.2 76.2,292.5 201.7,91.0 271.4,65.4" fill="none" stroke="#d62728" stroke-width="1.8"/>
  <circle cx="65.0" cy="294.2" r="3" fill="#d62728"><title>gns: 9.75 at 1 connections</title></circle>
  <circle cx="76.2" cy="292.5" r="3" fill="#d62728"><title>gns: 10.63 at 5 connections</title></circle>
  <circle cx="201.7" cy="91.0" r="3" fill="#d62728"><title>gns: 115.02 at 50 connections</title></circle>
  <circle cx="271.4" cy="65.4" r="3" fill="#d62728"><title>gns: 128.28 at 75 connections</title></circle>
  <polyline points="65.0,294.3 76.2,294.7 201.7,174.3 271.4,134.4" fill="none" stroke="#9467bd" stroke-width="1.8"/>
  <circle cx="65.0" cy="294.3" r="3" fill="#9467bd"><title>kcp: 9.73 at 1 connections</title></circle>
  <circle cx="76.2" cy="294.7" r="3" fill="#9467bd"><title>kcp: 9.51 at 5 connections</title></circle>
  <circle cx="201.7" cy="174.3" r="3" fill="#9467bd"><title>kcp: 71.86 at 50 connections</title></circle>
  <circle cx="271.4" cy="134.4" r="3" fill="#9467bd"><title>kcp: 92.53 at 75 connections</title></circle>
  <polyline points="65.0,292.1 76.2,290.9 201.7,113.1 271.4,78.2" fill="none" stroke="#8c564b" stroke-width="1.8"/>
  <circle cx="65.0" cy="292.1" r="3" fill="#8c564b"><title>litenetlib: 10.85 at 1 connections</title></circle>
  <circle cx="76.2" cy="290.9" r="3" fill="#8c564b"><title>litenetlib: 11.46 at 5 connections</title></circle>
  <circle cx="201.7" cy="113.1" r="3" fill="#8c564b"><title>litenetlib: 103.59 at 50 connections</title></circle>
  <circle cx="271.4" cy="78.2" r="3" fill="#8c564b"><title>litenetlib: 121.65 at 75 connections</title></circle>
  <polyline points="65.0,294.0 76.2,292.7 201.7,150.5" fill="none" stroke="#e377c2" stroke-width="1.8"/>
  <circle cx="65.0" cy="294.0" r="3" fill="#e377c2"><title>lsquic: 9.87 at 1 connections</title></circle>
  <circle cx="76.2" cy="292.7" r="3" fill="#e377c2"><title>lsquic: 10.53 at 5 connections</title></circle>
  <circle cx="201.7" cy="150.5" r="3" fill="#e377c2"><title>lsquic: 84.22 at 50 connections</title></circle>
  <polyline points="65.0,295.6 76.2,295.1 201.7,182.4 271.4,134.9" fill="none" stroke="#7f7f7f" stroke-width="1.8"/>
  <circle cx="65.0" cy="295.6" r="3" fill="#7f7f7f"><title>mini_rudp: 9.05 at 1 connections</title></circle>
  <circle cx="76.2" cy="295.1" r="3" fill="#7f7f7f"><title>mini_rudp: 9.3 at 5 connections</title></circle>
  <circle cx="201.7" cy="182.4" r="3" fill="#7f7f7f"><title>mini_rudp: 67.71 at 50 connections</title></circle>
  <circle cx="271.4" cy="134.9" r="3" fill="#7f7f7f"><title>mini_rudp: 92.3 at 75 connections</title></circle>
  <polyline points="65.0,297.5 76.2,292.6 201.7,47.5" fill="none" stroke="#bcbd22" stroke-width="1.8"/>
  <circle cx="65.0" cy="297.5" r="3" fill="#bcbd22"><title>msquic: 8.06 at 1 connections</title></circle>
  <circle cx="76.2" cy="292.6" r="3" fill="#bcbd22"><title>msquic: 10.61 at 5 connections</title></circle>
  <circle cx="201.7" cy="47.5" r="3" fill="#bcbd22"><title>msquic: 137.57 at 50 connections</title></circle>
  <polyline points="65.0,290.0 76.2,266.2 201.7,138.1" fill="none" stroke="#17becf" stroke-width="1.8"/>
  <circle cx="65.0" cy="290.0" r="3" fill="#17becf"><title>quiche: 11.94 at 1 connections</title></circle>
  <circle cx="76.2" cy="266.2" r="3" fill="#17becf"><title>quiche: 24.26 at 5 connections</title></circle>
  <circle cx="201.7" cy="138.1" r="3" fill="#17becf"><title>quiche: 90.61 at 50 connections</title></circle>
  <polyline points="65.0,294.9 76.2,293.6 201.7,114.4" fill="none" stroke="#aec7e8" stroke-width="1.8"/>
  <circle cx="65.0" cy="294.9" r="3" fill="#aec7e8"><title>raknet: 9.43 at 1 connections</title></circle>
  <circle cx="76.2" cy="293.6" r="3" fill="#aec7e8"><title>raknet: 10.06 at 5 connections</title></circle>
  <circle cx="201.7" cy="114.4" r="3" fill="#aec7e8"><title>raknet: 102.92 at 50 connections</title></circle>
  <polyline points="65.0,294.5 76.2,293.4 201.7,114.4" fill="none" stroke="#ffbb78" stroke-width="1.8"/>
  <circle cx="65.0" cy="294.5" r="3" fill="#ffbb78"><title>slikenet: 9.61 at 1 connections</title></circle>
  <circle cx="76.2" cy="293.4" r="3" fill="#ffbb78"><title>slikenet: 10.17 at 5 connections</title></circle>
  <circle cx="201.7" cy="114.4" r="3" fill="#ffbb78"><title>slikenet: 102.89 at 50 connections</title></circle>
  <polyline points="65.0,291.0 76.2,290.8 201.7,227.3" fill="none" stroke="#98df8a" stroke-width="1.8"/>
  <circle cx="65.0" cy="291.0" r="3" fill="#98df8a"><title>yojimbo: 11.44 at 1 connections</title></circle>
  <circle cx="76.2" cy="290.8" r="3" fill="#98df8a"><title>yojimbo: 11.55 at 5 connections</title></circle>
  <circle cx="201.7" cy="227.3" r="3" fill="#98df8a"><title>yojimbo: 44.42 at 50 connections</title></circle>
  <rect x="65" y="347" width="12" height="10" fill="#1f77b4" rx="1"/>  <text x="81" y="355" font-size="9">apex_rudp</text>
  <rect x="342" y="347" width="12" height="10" fill="#ff7f0e" rx="1"/>  <text x="358" y="355" font-size="9">coop_rudp</text>
  <rect x="65" y="363" width="12" height="10" fill="#2ca02c" rx="1"/>  <text x="81" y="371" font-size="9">enet</text>
  <rect x="342" y="363" width="12" height="10" fill="#d62728" rx="1"/>  <text x="358" y="371" font-size="9">gns</text>
  <rect x="65" y="379" width="12" height="10" fill="#9467bd" rx="1"/>  <text x="81" y="387" font-size="9">kcp</text>
  <rect x="342" y="379" width="12" height="10" fill="#8c564b" rx="1"/>  <text x="358" y="387" font-size="9">litenetlib</text>
  <rect x="65" y="395" width="12" height="10" fill="#e377c2" rx="1"/>  <text x="81" y="403" font-size="9">lsquic</text>
  <rect x="342" y="395" width="12" height="10" fill="#7f7f7f" rx="1"/>  <text x="358" y="403" font-size="9">mini_rudp</text>
  <rect x="65" y="411" width="12" height="10" fill="#bcbd22" rx="1"/>  <text x="81" y="419" font-size="9">msquic</text>
  <rect x="342" y="411" width="12" height="10" fill="#17becf" rx="1"/>  <text x="358" y="419" font-size="9">quiche</text>
  <rect x="65" y="427" width="12" height="10" fill="#aec7e8" rx="1"/>  <text x="81" y="435" font-size="9">raknet</text>
  <rect x="342" y="427" width="12" height="10" fill="#ffbb78" rx="1"/>  <text x="358" y="435" font-size="9">slikenet</text>
  <rect x="65" y="443" width="12" height="10" fill="#98df8a" rx="1"/>  <text x="81" y="451" font-size="9">yojimbo</text>
</svg>
