<svg xmlns="http://www.w3.org/2000/svg" viewBox="0 0 640 400" font-family="sans-serif" font-size="11">
  <text x="342" y="18" text-anchor="middle" font-size="14" font-weight="bold">reliable_echo: RTT p95 vs connections</text>
  <rect x="65" y="35" width="555" height="275" fill="white" stroke="#ccc"/>
  <line x1="65" y1="298.9" x2="620.0" y2="298.9" stroke="#ddd" stroke-width="1"/>
  <text x="60" y="301.9" text-anchor="end" font-size="9" fill="#333">0</text>
  <line x1="65" y1="187.9" x2="620.0" y2="187.9" stroke="#ddd" stroke-width="1"/>
  <text x="60" y="190.9" text-anchor="end" font-size="9" fill="#333">5000</text>
  <line x1="65" y1="77.0" x2="620.0" y2="77.0" stroke="#ddd" stroke-width="1"/>
  <text x="60" y="80.0" text-anchor="end" font-size="9" fill="#333">10000</text>
  <line x1="65.0" y1="35" x2="65.0" y2="310.0" stroke="#ddd" stroke-width="1"/>
  <text x="65.0" y="324.0" text-anchor="middle" font-size="9" fill="#333">0</text>
  <line x1="157.5" y1="35" x2="157.5" y2="310.0" stroke="#ddd" stroke-width="1"/>
  <text x="157.5" y="324.0" text-anchor="middle" font-size="9" fill="#333">500</text>
  <line x1="250.0" y1="35" x2="250.0" y2="310.0" stroke="#ddd" stroke-width="1"/>
  <text x="250.0" y="324.0" text-anchor="middle" font-size="9" fill="#333">1000</text>
  <line x1="342.5" y1="35" x2="342.5" y2="310.0" stroke="#ddd" stroke-width="1"/>
  <text x="342.5" y="324.0" text-anchor="middle" font-size="9" fill="#333">1500</text>
  <line x1="435.0" y1="35" x2="435.0" y2="310.0" stroke="#ddd" stroke-width="1"/>
  <text x="435.0" y="324.0" text-anchor="middle" font-size="9" fill="#333">2000</text>
  <line x1="527.5" y1="35" x2="527.5" y2="310.0" stroke="#ddd" stroke-width="1"/>
  <text x="527.5" y="324.0" text-anchor="middle" font-size="9" fill="#333">2500</text>
  <line x1="620.0" y1="35" x2="620.0" y2="310.0" stroke="#ddd" stroke-width="1"/>
  <text x="620.0" y="324.0" text-anchor="middle" font-size="9" fill="#333">3000</text>
  <text x="342" y="340" text-anchor="middle" font-size="11" fill="#333">connections</text>
  <text x="14" y="172" text-anchor="middle" font-size="11" fill="#333" transform="rotate(-90,14,172)">median RTT p95 (ms)</text>
  <polyline points="65.2,297.5 74.2,297.5 102.0,297.5 176.0,297.5 250.0,297.5 342.5,297.5 435.0,297.5 620.0,297.4" fill="none" stroke="#1f77b4" stroke-width="1.8"/>
  <circle cx="65.2" cy="297.5" r="3" fill="#1f77b4"><title>apex_rudp: 62 at 1 connections</title></circle>
  <circle cx="74.2" cy="297.5" r="3" fill="#1f77b4"><title>apex_rudp: 63.5 at 50 connections</title></circle>
  <circle cx="102.0" cy="297.5" r="3" fill="#1f77b4"><title>apex_rudp: 63.8 at 200 connections</title></circle>
  <circle cx="176.0" cy="297.5" r="3" fill="#1f77b4"><title>apex_rudp: 63.3 at 600 connections</title></circle>
  <circle cx="250.0" cy="297.5" r="3" fill="#1f77b4"><title>apex_rudp: 63.5 at 1000 connections</title></circle>
  <circle cx="342.5" cy="297.5" r="3" fill="#1f77b4"><title>apex_rudp: 63.8 at 1500 connections</title></circle>
  <circle cx="435.0" cy="297.5" r="3" fill="#1f77b4"><title>apex_rudp: 64.2 at 2000 connections</title></circle>
  <circle cx="620.0" cy="297.4" r="3" fill="#1f77b4"><title>apex_rudp: 64.6 at 3000 connections</title></circle>
  <polyline points="65.2,297.5 74.2,297.5 102.0,297.5 176.0,297.5 250.0,297.5 342.5,297.4 435.0,297.4 620.0,297.4" fill="none" stroke="#ff7f0e" stroke-width="1.8"/>
  <circle cx="65.2" cy="297.5" r="3" fill="#ff7f0e"><title>coop_rudp: 63.1 at 1 connections</title></circle>
  <circle cx="74.2" cy="297.5" r="3" fill="#ff7f0e"><title>coop_rudp: 63.6 at 50 connections</title></circle>
  <circle cx="102.0" cy="297.5" r="3" fill="#ff7f0e"><title>coop_rudp: 63.1 at 200 connections</title></circle>
  <circle cx="176.0" cy="297.5" r="3" fill="#ff7f0e"><title>coop_rudp: 63.5 at 600 connections</title></circle>
  <circle cx="250.0" cy="297.5" r="3" fill="#ff7f0e"><title>coop_rudp: 63.7 at 1000 connections</title></circle>
  <circle cx="342.5" cy="297.4" r="3" fill="#ff7f0e"><title>coop_rudp: 64.6 at 1500 connections</title></circle>
  <circle cx="435.0" cy="297.4" r="3" fill="#ff7f0e"><title>coop_rudp: 64.9 at 2000 connections</title></circle>
  <circle cx="620.0" cy="297.4" r="3" fill="#ff7f0e"><title>coop_rudp: 65.1 at 3000 connections</title></circle>
  <polyline points="65.2,296.0 74.2,296.9 102.0,297.0 176.0,297.0 250.0,292.5 342.5,266.7" fill="none" stroke="#2ca02c" stroke-width="1.8"/>
  <circle cx="65.2" cy="296.0" r="3" fill="#2ca02c"><title>enet: 131.6 at 1 connections</title></circle>
  <circle cx="74.2" cy="296.9" r="3" fill="#2ca02c"><title>enet: 87.3 at 50 connections</title></circle>
  <circle cx="102.0" cy="297.0" r="3" fill="#2ca02c"><title>enet: 84.8 at 200 connections</title></circle>
  <circle cx="176.0" cy="297.0" r="3" fill="#2ca02c"><title>enet: 85.5 at 600 connections</title></circle>
  <circle cx="250.0" cy="292.5" r="3" fill="#2ca02c"><title>enet: 285.5 at 1000 connections</title></circle>
  <circle cx="342.5" cy="266.7" r="3" fill="#2ca02c"><title>enet: 1448 at 1500 connections</title></circle>
  <polyline points="65.2,296.3 74.2,296.2 102.0,296.2 176.0,295.9 250.0,295.7 342.5,294.9 435.0,294.1 620.0,280.0" fill="none" stroke="#d62728" stroke-width="1.8"/>
  <circle cx="65.2" cy="296.3" r="3" fill="#d62728"><title>gns: 114.5 at 1 connections</title></circle>
  <circle cx="74.2" cy="296.2" r="3" fill="#d62728"><title>gns: 122.6 at 50 connections</title></circle>
  <circle cx="102.0" cy="296.2" r="3" fill="#d62728"><title>gns: 122 at 200 connections</title></circle>
  <circle cx="176.0" cy="295.9" r="3" fill="#d62728"><title>gns: 133.2 at 600 connections</title></circle>
  <circle cx="250.0" cy="295.7" r="3" fill="#d62728"><title>gns: 143.7 at 1000 connections</title></circle>
  <circle cx="342.5" cy="294.9" r="3" fill="#d62728"><title>gns: 180.4 at 1500 connections</title></circle>
  <circle cx="435.0" cy="294.1" r="3" fill="#d62728"><title>gns: 215.4 at 2000 connections</title></circle>
  <circle cx="620.0" cy="280.0" r="3" fill="#d62728"><title>gns: 848.6 at 3000 connections</title></circle>
  <polyline points="65.2,296.9 74.2,297.0 102.0,297.0 176.0,297.0 250.0,290.9 342.5,159.9" fill="none" stroke="#9467bd" stroke-width="1.8"/>
  <circle cx="65.2" cy="296.9" r="3" fill="#9467bd"><title>kcp: 90.6 at 1 connections</title></circle>
  <circle cx="74.2" cy="297.0" r="3" fill="#9467bd"><title>kcp: 82.9 at 50 connections</title></circle>
  <circle cx="102.0" cy="297.0" r="3" fill="#9467bd"><title>kcp: 85.4 at 200 connections</title></circle>
  <circle cx="176.0" cy="297.0" r="3" fill="#9467bd"><title>kcp: 85.3 at 600 connections</title></circle>
  <circle cx="250.0" cy="290.9" r="3" fill="#9467bd"><title>kcp: 360.5 at 1000 connections</title></circle>
  <circle cx="342.5" cy="159.9" r="3" fill="#9467bd"><title>kcp: 6264 at 1500 connections</title></circle>
  <polyline points="65.2,295.2 74.2,294.8 102.0,294.8 176.0,294.8 250.0,294.8 342.5,294.3 435.0,290.9 620.0,256.9" fill="none" stroke="#8c564b" stroke-width="1.8"/>
  <circle cx="65.2" cy="295.2" r="3" fill="#8c564b"><title>litenetlib: 166.5 at 1 connections</title></circle>
  <circle cx="74.2" cy="294.8" r="3" fill="#8c564b"><title>litenetlib: 181.6 at 50 connections</title></circle>
  <circle cx="102.0" cy="294.8" r="3" fill="#8c564b"><title>litenetlib: 181.8 at 200 connections</title></circle>
  <circle cx="176.0" cy="294.8" r="3" fill="#8c564b"><title>litenetlib: 185.7 at 600 connections</title></circle>
  <circle cx="250.0" cy="294.8" r="3" fill="#8c564b"><title>litenetlib: 184.9 at 1000 connections</title></circle>
  <circle cx="342.5" cy="294.3" r="3" fill="#8c564b"><title>litenetlib: 204.6 at 1500 connections</title></circle>
  <circle cx="435.0" cy="290.9" r="3" fill="#8c564b"><title>litenetlib: 361.2 at 2000 connections</title></circle>
  <circle cx="620.0" cy="256.9" r="3" fill="#8c564b"><title>litenetlib: 1890 at 3000 connections</title></circle>
  <polyline points="65.2,295.5 74.2,296.1 102.0,296.1 176.0,296.1 250.0,295.2 342.5,281.4 435.0,274.7 620.0,124.7" fill="none" stroke="#e377c2" stroke-width="1.8"/>
  <circle cx="65.2" cy="295.5" r="3" fill="#e377c2"><title>lsquic: 150.2 at 1 connections</title></circle>
  <circle cx="74.2" cy="296.1" r="3" fill="#e377c2"><title>lsquic: 124.5 at 50 connections</title></circle>
  <circle cx="102.0" cy="296.1" r="3" fill="#e377c2"><title>lsquic: 126.4 at 200 connections</title></circle>
  <circle cx="176.0" cy="296.1" r="3" fill="#e377c2"><title>lsquic: 126.9 at 600 connections</title></circle>
  <circle cx="250.0" cy="295.2" r="3" fill="#e377c2"><title>lsquic: 165.4 at 1000 connections</title></circle>
  <circle cx="342.5" cy="281.4" r="3" fill="#e377c2"><title>lsquic: 788.5 at 1500 connections</title></circle>
  <circle cx="435.0" cy="274.7" r="3" fill="#e377c2"><title>lsquic: 1090 at 2000 connections</title></circle>
  <circle cx="620.0" cy="124.7" r="3" fill="#e377c2"><title>lsquic: 7849 at 3000 connections</title></circle>
  <polyline points="65.2,297.5 74.2,297.5 102.0,297.5 176.0,293.1" fill="none" stroke="#7f7f7f" stroke-width="1.8"/>
  <circle cx="65.2" cy="297.5" r="3" fill="#7f7f7f"><title>mini_rudp: 63.3 at 1 connections</title></circle>
  <circle cx="74.2" cy="297.5" r="3" fill="#7f7f7f"><title>mini_rudp: 63.4 at 50 connections</title></circle>
  <circle cx="102.0" cy="297.5" r="3" fill="#7f7f7f"><title>mini_rudp: 63.5 at 200 connections</title></circle>
  <circle cx="176.0" cy="293.1" r="3" fill="#7f7f7f"><title>mini_rudp: 260.85 at 600 connections</title></circle>
  <polyline points="65.2,296.7 74.2,297.2 102.0,297.1 176.0,295.1 250.0,292.4" fill="none" stroke="#bcbd22" stroke-width="1.8"/>
  <circle cx="65.2" cy="296.7" r="3" fill="#bcbd22"><title>msquic: 97.5 at 1 connections</title></circle>
  <circle cx="74.2" cy="297.2" r="3" fill="#bcbd22"><title>msquic: 77.4 at 50 connections</title></circle>
  <circle cx="102.0" cy="297.1" r="3" fill="#bcbd22"><title>msquic: 81.3 at 200 connections</title></circle>
  <circle cx="176.0" cy="295.1" r="3" fill="#bcbd22"><title>msquic: 170.5 at 600 connections</title></circle>
  <circle cx="250.0" cy="292.4" r="3" fill="#bcbd22"><title>msquic: 292.3 at 1000 connections</title></circle>
  <polyline points="65.2,297.0 74.2,297.2 102.0,297.0 176.0,295.3 250.0,286.4" fill="none" stroke="#17becf" stroke-width="1.8"/>
  <circle cx="65.2" cy="297.0" r="3" fill="#17becf"><title>quiche: 82.9 at 1 connections</title></circle>
  <circle cx="74.2" cy="297.2" r="3" fill="#17becf"><title>quiche: 77.6 at 50 connections</title></circle>
  <circle cx="102.0" cy="297.0" r="3" fill="#17becf"><title>quiche: 84 at 200 connections</title></circle>
  <circle cx="176.0" cy="295.3" r="3" fill="#17becf"><title>quiche: 163.3 at 600 connections</title></circle>
  <circle cx="250.0" cy="286.4" r="3" fill="#17becf"><title>quiche: 563.15 at 1000 connections</title></circle>
  <polyline points="65.2,297.1 74.2,297.1 102.0,297.0 176.0,296.1 250.0,294.2 342.5,291.5 435.0,266.7 620.0,47.5" fill="none" stroke="#aec7e8" stroke-width="1.8"/>
  <circle cx="65.2" cy="297.1" r="3" fill="#aec7e8"><title>raknet: 77.9 at 1 connections</title></circle>
  <circle cx="74.2" cy="297.1" r="3" fill="#aec7e8"><title>raknet: 79.4 at 50 connections</title></circle>
  <circle cx="102.0" cy="297.0" r="3" fill="#aec7e8"><title>raknet: 82.6 at 200 connections</title></circle>
  <circle cx="176.0" cy="296.1" r="3" fill="#aec7e8"><title>raknet: 125.6 at 600 connections</title></circle>
  <circle cx="250.0" cy="294.2" r="3" fill="#aec7e8"><title>raknet: 212.2 at 1000 connections</title></circle>
  <circle cx="342.5" cy="291.5" r="3" fill="#aec7e8"><title>raknet: 333.8 at 1500 connections</title></circle>
  <circle cx="435.0" cy="266.7" r="3" fill="#aec7e8"><title>raknet: 1449 at 2000 connections</title></circle>
  <circle cx="620.0" cy="47.5" r="3" fill="#aec7e8"><title>raknet: 11328 at 3000 connections</title></circle>
  <polyline points="65.2,297.0 74.2,297.0 102.0,297.0 176.0,296.1 250.0,294.3 342.5,292.0 435.0,269.3 620.0,61.7" fill="none" stroke="#ffbb78" stroke-width="1.8"/>
  <circle cx="65.2" cy="297.0" r="3" fill="#ffbb78"><title>slikenet: 83.5 at 1 connections</title></circle>
  <circle cx="74.2" cy="297.0" r="3" fill="#ffbb78"><title>slikenet: 82.7 at 50 connections</title></circle>
  <circle cx="102.0" cy="297.0" r="3" fill="#ffbb78"><title>slikenet: 83.5 at 200 connections</title></circle>
  <circle cx="176.0" cy="296.1" r="3" fill="#ffbb78"><title>slikenet: 124.2 at 600 connections</title></circle>
  <circle cx="250.0" cy="294.3" r="3" fill="#ffbb78"><title>slikenet: 204.4 at 1000 connections</title></circle>
  <circle cx="342.5" cy="292.0" r="3" fill="#ffbb78"><title>slikenet: 312 at 1500 connections</title></circle>
  <circle cx="435.0" cy="269.3" r="3" fill="#ffbb78"><title>slikenet: 1334 at 2000 connections</title></circle>
  <circle cx="620.0" cy="61.7" r="3" fill="#ffbb78"><title>slikenet: 10690 at 3000 connections</title></circle>
  <polyline points="65.2,297.1 74.2,296.6" fill="none" stroke="#98df8a" stroke-width="1.8"/>
  <circle cx="65.2" cy="297.1" r="3" fill="#98df8a"><title>udt4: 78.6 at 1 connections</title></circle>
  <circle cx="74.2" cy="296.6" r="3" fill="#98df8a"><title>udt4: 101 at 50 connections</title></circle>
  <polyline points="65.2,296.2 74.2,296.0" fill="none" stroke="#ff9896" stroke-width="1.8"/>
  <circle cx="65.2" cy="296.2" r="3" fill="#ff9896"><title>yojimbo: 122.3 at 1 connections</title></circle>
  <circle cx="74.2" cy="296.0" r="3" fill="#ff9896"><title>yojimbo: 131.5 at 50 connections</title></circle>
  <rect x="65" y="347" width="12" height="10" fill="#1f77b4" rx="1"/>  <text x="81" y="355" font-size="9">apex_rudp</text>
  <rect x="342" y="347" width="12" height="10" fill="#ff7f0e" rx="1"/>  <text x="358" y="355" font-size="9">coop_rudp</text>
  <rect x="65" y="363" width="12" height="10" fill="#2ca02c" rx="1"/>  <text x="81" y="371" font-size="9">enet</text>
  <rect x="342" y="363" width="12" height="10" fill="#d62728" rx="1"/>  <text x="358" y="371" font-size="9">gns</text>
  <rect x="65" y="379" width="12" height="10" fill="#9467bd" rx="1"/>  <text x="81" y="387" font-size="9">kcp</text>
  <rect x="342" y="379" width="12" height="10" fill="#8c564b" rx="1"/>  <text x="358" y="387" font-size="9">litenetlib</text>
  <rect x="65" y="395" width="12" height="10" fill="#e377c2" rx="1"/>  <text x="81" y="403" font-size="9">lsquic</text>
  <rect x="342" y="395" width="12" height="10" fill="#7f7f7f" rx="1"/>  <text x="358" y="403" font-size="9">mini_rudp</text>
  <rect x="65" y="411" width="12" height="10" fill="#bcbd22" rx="1"/>  <text x="81" y="419" font-size="9">msquic</text>
  <rect x="342" y="411" width="12" height="10" fill="#17becf" rx="1"/>  <text x="358" y="419" font-size="9">quiche</text>
  <rect x="65" y="427" width="12" height="10" fill="#aec7e8" rx="1"/>  <text x="81" y="435" font-size="9">raknet</text>
  <rect x="342" y="427" width="12" height="10" fill="#ffbb78" rx="1"/>  <text x="358" y="435" font-size="9">slikenet</text>
  <rect x="65" y="443" width="12" height="10" fill="#98df8a" rx="1"/>  <text x="81" y="451" font-size="9">udt4</text>
  <rect x="342" y="443" width="12" height="10" fill="#ff9896" rx="1"/>  <text x="358" y="451" font-size="9">yojimbo</text>
</svg>
