<svg xmlns="http://www.w3.org/2000/svg" viewBox="0 0 640 400" font-family="sans-serif" font-size="11">
  <text x="342" y="18" text-anchor="middle" font-size="14" font-weight="bold">reliable_echo: delivery ratio vs connections</text>
  <rect x="65" y="35" width="555" height="275" fill="white" stroke="#ccc"/>
  <line x1="65" y1="182.5" x2="620.0" y2="182.5" stroke="#ddd" stroke-width="1"/>
  <text x="60" y="185.5" text-anchor="end" font-size="9" fill="#333">0.5</text>
  <line x1="65" y1="47.5" x2="620.0" y2="47.5" stroke="#ddd" stroke-width="1"/>
  <text x="60" y="50.5" text-anchor="end" font-size="9" fill="#333">1</text>
  <line x1="65.0" y1="35" x2="65.0" y2="310.0" stroke="#ddd" stroke-width="1"/>
  <text x="65.0" y="324.0" text-anchor="middle" font-size="9" fill="#333">0</text>
  <line x1="157.5" y1="35" x2="157.5" y2="310.0" stroke="#ddd" stroke-width="1"/>
  <text x="157.5" y="324.0" text-anchor="middle" font-size="9" fill="#333">500</text>
  <line x1="250.0" y1="35" x2="250.0" y2="310.0" stroke="#ddd" stroke-width="1"/>
  <text x="250.0" y="324.0" text-anchor="middle" font-size="9" fill="#333">1000</text>
  <line x1="342.5" y1="35" x2="342.5" y2="310.0" stroke="#ddd" stroke-width="1"/>
  <text x="342.5" y="324.0" text-anchor="middle" font-size="9" fill="#333">1500</text>
  <line x1="435.0" y1="35" x2="435.0" y2="310.0" stroke="#ddd" stroke-width="1"/>
  <text x="435.0" y="324.0" text-anchor="middle" font-size="9" fill="#333">2000</text>
  <line x1="527.5" y1="35" x2="527.5" y2="310.0" stroke="#ddd" stroke-width="1"/>
  <text x="527.5" y="324.0" text-anchor="middle" font-size="9" fill="#333">2500</text>
  <line x1="620.0" y1="35" x2="620.0" y2="310.0" stroke="#ddd" stroke-width="1"/>
  <text x="620.0" y="324.0" text-anchor="middle" font-size="9" fill="#333">3000</text>
  <text x="342" y="340" text-anchor="middle" font-size="11" fill="#333">connections</text>
  <text x="14" y="172" text-anchor="middle" font-size="11" fill="#333" transform="rotate(-90,14,172)">median delivery ratio</text>
  <line x1="65" y1="61.0" x2="620.0" y2="61.0" stroke="black" stroke-width="1.2" stroke-dasharray="6,4" opacity="0.55"/>
  <text x="618.0" y="58.0" text-anchor="end" font-size="9" fill="#333"> 0.95</text>
  <polyline points="65.2,47.5 74.2,47.5 102.0,47.5 176.0,47.5 250.0,47.5 342.5,47.5 435.0,47.5 620.0,47.5" fill="none" stroke="#1f77b4" stroke-width="1.8"/>
  <circle cx="65.2" cy="47.5" r="3" fill="#1f77b4"><title>apex_rudp: 1 at 1 connections</title></circle>
  <circle cx="74.2" cy="47.5" r="3" fill="#1f77b4"><title>apex_rudp: 1 at 50 connections</title></circle>
  <circle cx="102.0" cy="47.5" r="3" fill="#1f77b4"><title>apex_rudp: 1 at 200 connections</title></circle>
  <circle cx="176.0" cy="47.5" r="3" fill="#1f77b4"><title>apex_rudp: 1 at 600 connections</title></circle>
  <circle cx="250.0" cy="47.5" r="3" fill="#1f77b4"><title>apex_rudp: 1 at 1000 connections</title></circle>
  <circle cx="342.5" cy="47.5" r="3" fill="#1f77b4"><title>apex_rudp: 1 at 1500 connections</title></circle>
  <circle cx="435.0" cy="47.5" r="3" fill="#1f77b4"><title>apex_rudp: 1 at 2000 connections</title></circle>
  <circle cx="620.0" cy="47.5" r="3" fill="#1f77b4"><title>apex_rudp: 1 at 3000 connections</title></circle>
  <polyline points="65.2,47.5 74.2,47.5 102.0,47.5 176.0,47.5 250.0,47.5 342.5,47.5 435.0,47.5 620.0,47.5" fill="none" stroke="#ff7f0e" stroke-width="1.8"/>
  <circle cx="65.2" cy="47.5" r="3" fill="#ff7f0e"><title>coop_rudp: 1 at 1 connections</title></circle>
  <circle cx="74.2" cy="47.5" r="3" fill="#ff7f0e"><title>coop_rudp: 1 at 50 connections</title></circle>
  <circle cx="102.0" cy="47.5" r="3" fill="#ff7f0e"><title>coop_rudp: 1 at 200 connections</title></circle>
  <circle cx="176.0" cy="47.5" r="3" fill="#ff7f0e"><title>coop_rudp: 1 at 600 connections</title></circle>
  <circle cx="250.0" cy="47.5" r="3" fill="#ff7f0e"><title>coop_rudp: 1 at 1000 connections</title></circle>
  <circle cx="342.5" cy="47.5" r="3" fill="#ff7f0e"><title>coop_rudp: 1 at 1500 connections</title></circle>
  <circle cx="435.0" cy="47.5" r="3" fill="#ff7f0e"><title>coop_rudp: 1 at 2000 connections</title></circle>
  <circle cx="620.0" cy="47.5" r="3" fill="#ff7f0e"><title>coop_rudp: 1 at 3000 connections</title></circle>
  <polyline points="65.2,47.5 74.2,47.5 102.0,47.5 176.0,47.5 250.0,47.6 342.5,297.5" fill="none" stroke="#2ca02c" stroke-width="1.8"/>
  <circle cx="65.2" cy="47.5" r="3" fill="#2ca02c"><title>enet: 1 at 1 connections</title></circle>
  <circle cx="74.2" cy="47.5" r="3" fill="#2ca02c"><title>enet: 1 at 50 connections</title></circle>
  <circle cx="102.0" cy="47.5" r="3" fill="#2ca02c"><title>enet: 1 at 200 connections</title></circle>
  <circle cx="176.0" cy="47.5" r="3" fill="#2ca02c"><title>enet: 1 at 600 connections</title></circle>
  <circle cx="250.0" cy="47.6" r="3" fill="#2ca02c"><title>enet: 0.9998 at 1000 connections</title></circle>
  <circle cx="342.5" cy="297.5" r="3" fill="#2ca02c"><title>enet: 0.0743 at 1500 connections</title></circle>
  <polyline points="65.2,47.5 74.2,47.5 102.0,47.5 176.0,47.5 250.0,47.5 342.5,47.5 435.0,47.5 620.0,47.6" fill="none" stroke="#d62728" stroke-width="1.8"/>
  <circle cx="65.2" cy="47.5" r="3" fill="#d62728"><title>gns: 1 at 1 connections</title></circle>
  <circle cx="74.2" cy="47.5" r="3" fill="#d62728"><title>gns: 1 at 50 connections</title></circle>
  <circle cx="102.0" cy="47.5" r="3" fill="#d62728"><title>gns: 1 at 200 connections</title></circle>
  <circle cx="176.0" cy="47.5" r="3" fill="#d62728"><title>gns: 1 at 600 connections</title></circle>
  <circle cx="250.0" cy="47.5" r="3" fill="#d62728"><title>gns: 1 at 1000 connections</title></circle>
  <circle cx="342.5" cy="47.5" r="3" fill="#d62728"><title>gns: 1 at 1500 connections</title></circle>
  <circle cx="435.0" cy="47.5" r="3" fill="#d62728"><title>gns: 1 at 2000 connections</title></circle>
  <circle cx="620.0" cy="47.6" r="3" fill="#d62728"><title>gns: 0.9996 at 3000 connections</title></circle>
  <polyline points="65.2,47.5 74.2,47.5 102.0,47.5 176.0,47.5 250.0,47.7 342.5,77.7" fill="none" stroke="#9467bd" stroke-width="1.8"/>
  <circle cx="65.2" cy="47.5" r="3" fill="#9467bd"><title>kcp: 1 at 1 connections</title></circle>
  <circle cx="74.2" cy="47.5" r="3" fill="#9467bd"><title>kcp: 1 at 50 connections</title></circle>
  <circle cx="102.0" cy="47.5" r="3" fill="#9467bd"><title>kcp: 1 at 200 connections</title></circle>
  <circle cx="176.0" cy="47.5" r="3" fill="#9467bd"><title>kcp: 1 at 600 connections</title></circle>
  <circle cx="250.0" cy="47.7" r="3" fill="#9467bd"><title>kcp: 0.9991 at 1000 connections</title></circle>
  <circle cx="342.5" cy="77.7" r="3" fill="#9467bd"><title>kcp: 0.888 at 1500 connections</title></circle>
  <polyline points="65.2,47.5 74.2,47.5 102.0,47.5 176.0,47.5 250.0,47.5 342.5,47.5 435.0,47.7 620.0,50.0" fill="none" stroke="#8c564b" stroke-width="1.8"/>
  <circle cx="65.2" cy="47.5" r="3" fill="#8c564b"><title>litenetlib: 1 at 1 connections</title></circle>
  <circle cx="74.2" cy="47.5" r="3" fill="#8c564b"><title>litenetlib: 1 at 50 connections</title></circle>
  <circle cx="102.0" cy="47.5" r="3" fill="#8c564b"><title>litenetlib: 0.9999 at 200 connections</title></circle>
  <circle cx="176.0" cy="47.5" r="3" fill="#8c564b"><title>litenetlib: 0.9999 at 600 connections</title></circle>
  <circle cx="250.0" cy="47.5" r="3" fill="#8c564b"><title>litenetlib: 0.9999 at 1000 connections</title></circle>
  <circle cx="342.5" cy="47.5" r="3" fill="#8c564b"><title>litenetlib: 0.9999 at 1500 connections</title></circle>
  <circle cx="435.0" cy="47.7" r="3" fill="#8c564b"><title>litenetlib: 0.9992 at 2000 connections</title></circle>
  <circle cx="620.0" cy="50.0" r="3" fill="#8c564b"><title>litenetlib: 0.9908 at 3000 connections</title></circle>
  <polyline points="65.2,47.5 74.2,47.5 102.0,47.5 176.0,47.5 250.0,48.1 342.5,47.9 435.0,57.6 620.0,128.3" fill="none" stroke="#e377c2" stroke-width="1.8"/>
  <circle cx="65.2" cy="47.5" r="3" fill="#e377c2"><title>lsquic: 1 at 1 connections</title></circle>
  <circle cx="74.2" cy="47.5" r="3" fill="#e377c2"><title>lsquic: 1 at 50 connections</title></circle>
  <circle cx="102.0" cy="47.5" r="3" fill="#e377c2"><title>lsquic: 1 at 200 connections</title></circle>
  <circle cx="176.0" cy="47.5" r="3" fill="#e377c2"><title>lsquic: 1 at 600 connections</title></circle>
  <circle cx="250.0" cy="48.1" r="3" fill="#e377c2"><title>lsquic: 0.9978 at 1000 connections</title></circle>
  <circle cx="342.5" cy="47.9" r="3" fill="#e377c2"><title>lsquic: 0.9987 at 1500 connections</title></circle>
  <circle cx="435.0" cy="57.6" r="3" fill="#e377c2"><title>lsquic: 0.9627 at 2000 connections</title></circle>
  <circle cx="620.0" cy="128.3" r="3" fill="#e377c2"><title>lsquic: 0.7009 at 3000 connections</title></circle>
  <polyline points="65.2,47.5 74.2,47.5 102.0,47.5 176.0,49.8" fill="none" stroke="#7f7f7f" stroke-width="1.8"/>
  <circle cx="65.2" cy="47.5" r="3" fill="#7f7f7f"><title>mini_rudp: 1 at 1 connections</title></circle>
  <circle cx="74.2" cy="47.5" r="3" fill="#7f7f7f"><title>mini_rudp: 1 at 50 connections</title></circle>
  <circle cx="102.0" cy="47.5" r="3" fill="#7f7f7f"><title>mini_rudp: 1 at 200 connections</title></circle>
  <circle cx="176.0" cy="49.8" r="3" fill="#7f7f7f"><title>mini_rudp: 0.9913 at 600 connections</title></circle>
  <polyline points="65.2,47.5 74.2,47.5 102.0,47.5 176.0,47.5 250.0,47.5" fill="none" stroke="#bcbd22" stroke-width="1.8"/>
  <circle cx="65.2" cy="47.5" r="3" fill="#bcbd22"><title>msquic: 1 at 1 connections</title></circle>
  <circle cx="74.2" cy="47.5" r="3" fill="#bcbd22"><title>msquic: 1 at 50 connections</title></circle>
  <circle cx="102.0" cy="47.5" r="3" fill="#bcbd22"><title>msquic: 1 at 200 connections</title></circle>
  <circle cx="176.0" cy="47.5" r="3" fill="#bcbd22"><title>msquic: 1 at 600 connections</title></circle>
  <circle cx="250.0" cy="47.5" r="3" fill="#bcbd22"><title>msquic: 1 at 1000 connections</title></circle>
  <polyline points="65.2,47.5 74.2,47.5 102.0,53.6 176.0,50.2 250.0,145.9" fill="none" stroke="#17becf" stroke-width="1.8"/>
  <circle cx="65.2" cy="47.5" r="3" fill="#17becf"><title>quiche: 1 at 1 connections</title></circle>
  <circle cx="74.2" cy="47.5" r="3" fill="#17becf"><title>quiche: 1 at 50 connections</title></circle>
  <circle cx="102.0" cy="53.6" r="3" fill="#17becf"><title>quiche: 0.9775 at 200 connections</title></circle>
  <circle cx="176.0" cy="50.2" r="3" fill="#17becf"><title>quiche: 0.99 at 600 connections</title></circle>
  <circle cx="250.0" cy="145.9" r="3" fill="#17becf"><title>quiche: 0.6355 at 1000 connections</title></circle>
  <polyline points="65.2,47.5 74.2,48.2 102.0,52.5 176.0,55.4 250.0,51.0 342.5,50.4 435.0,50.5 620.0,263.4" fill="none" stroke="#aec7e8" stroke-width="1.8"/>
  <circle cx="65.2" cy="47.5" r="3" fill="#aec7e8"><title>raknet: 1 at 1 connections</title></circle>
  <circle cx="74.2" cy="48.2" r="3" fill="#aec7e8"><title>raknet: 0.9974 at 50 connections</title></circle>
  <circle cx="102.0" cy="52.5" r="3" fill="#aec7e8"><title>raknet: 0.9816 at 200 connections</title></circle>
  <circle cx="176.0" cy="55.4" r="3" fill="#aec7e8"><title>raknet: 0.9707 at 600 connections</title></circle>
  <circle cx="250.0" cy="51.0" r="3" fill="#aec7e8"><title>raknet: 0.9872 at 1000 connections</title></circle>
  <circle cx="342.5" cy="50.4" r="3" fill="#aec7e8"><title>raknet: 0.9892 at 1500 connections</title></circle>
  <circle cx="435.0" cy="50.5" r="3" fill="#aec7e8"><title>raknet: 0.989 at 2000 connections</title></circle>
  <circle cx="620.0" cy="263.4" r="3" fill="#aec7e8"><title>raknet: 0.2005 at 3000 connections</title></circle>
  <polyline points="65.2,47.5 74.2,48.2 102.0,50.4 176.0,53.8 250.0,48.1 342.5,53.3 435.0,53.8 620.0,265.9" fill="none" stroke="#ffbb78" stroke-width="1.8"/>
  <circle cx="65.2" cy="47.5" r="3" fill="#ffbb78"><title>slikenet: 1 at 1 connections</title></circle>
  <circle cx="74.2" cy="48.2" r="3" fill="#ffbb78"><title>slikenet: 0.9975 at 50 connections</title></circle>
  <circle cx="102.0" cy="50.4" r="3" fill="#ffbb78"><title>slikenet: 0.9892 at 200 connections</title></circle>
  <circle cx="176.0" cy="53.8" r="3" fill="#ffbb78"><title>slikenet: 0.9765 at 600 connections</title></circle>
  <circle cx="250.0" cy="48.1" r="3" fill="#ffbb78"><title>slikenet: 0.9976 at 1000 connections</title></circle>
  <circle cx="342.5" cy="53.3" r="3" fill="#ffbb78"><title>slikenet: 0.9785 at 1500 connections</title></circle>
  <circle cx="435.0" cy="53.8" r="3" fill="#ffbb78"><title>slikenet: 0.9767 at 2000 connections</title></circle>
  <circle cx="620.0" cy="265.9" r="3" fill="#ffbb78"><title>slikenet: 0.1912 at 3000 connections</title></circle>
  <polyline points="65.2,47.5 74.2,66.5" fill="none" stroke="#98df8a" stroke-width="1.8"/>
  <circle cx="65.2" cy="47.5" r="3" fill="#98df8a"><title>udt4: 1 at 1 connections</title></circle>
  <circle cx="74.2" cy="66.5" r="3" fill="#98df8a"><title>udt4: 0.9296 at 50 connections</title></circle>
  <polyline points="65.2,47.5 74.2,47.5" fill="none" stroke="#ff9896" stroke-width="1.8"/>
  <circle cx="65.2" cy="47.5" r="3" fill="#ff9896"><title>yojimbo: 1 at 1 connections</title></circle>
  <circle cx="74.2" cy="47.5" r="3" fill="#ff9896"><title>yojimbo: 1 at 50 connections</title></circle>
  <rect x="65" y="347" width="12" height="10" fill="#1f77b4" rx="1"/>  <text x="81" y="355" font-size="9">apex_rudp</text>
  <rect x="342" y="347" width="12" height="10" fill="#ff7f0e" rx="1"/>  <text x="358" y="355" font-size="9">coop_rudp</text>
  <rect x="65" y="363" width="12" height="10" fill="#2ca02c" rx="1"/>  <text x="81" y="371" font-size="9">enet</text>
  <rect x="342" y="363" width="12" height="10" fill="#d62728" rx="1"/>  <text x="358" y="371" font-size="9">gns</text>
  <rect x="65" y="379" width="12" height="10" fill="#9467bd" rx="1"/>  <text x="81" y="387" font-size="9">kcp</text>
  <rect x="342" y="379" width="12" height="10" fill="#8c564b" rx="1"/>  <text x="358" y="387" font-size="9">litenetlib</text>
  <rect x="65" y="395" width="12" height="10" fill="#e377c2" rx="1"/>  <text x="81" y="403" font-size="9">lsquic</text>
  <rect x="342" y="395" width="12" height="10" fill="#7f7f7f" rx="1"/>  <text x="358" y="403" font-size="9">mini_rudp</text>
  <rect x="65" y="411" width="12" height="10" fill="#bcbd22" rx="1"/>  <text x="81" y="419" font-size="9">msquic</text>
  <rect x="342" y="411" width="12" height="10" fill="#17becf" rx="1"/>  <text x="358" y="419" font-size="9">quiche</text>
  <rect x="65" y="427" width="12" height="10" fill="#aec7e8" rx="1"/>  <text x="81" y="435" font-size="9">raknet</text>
  <rect x="342" y="427" width="12" height="10" fill="#ffbb78" rx="1"/>  <text x="358" y="435" font-size="9">slikenet</text>
  <rect x="65" y="443" width="12" height="10" fill="#98df8a" rx="1"/>  <text x="81" y="451" font-size="9">udt4</text>
  <rect x="342" y="443" width="12" height="10" fill="#ff9896" rx="1"/>  <text x="358" y="451" font-size="9">yojimbo</text>
</svg>
