<svg xmlns="http://www.w3.org/2000/svg" viewBox="0 0 640 400" font-family="sans-serif" font-size="11">
  <text x="342" y="18" text-anchor="middle" font-size="14" font-weight="bold">echo: delivery ratio vs connections</text>
  <rect x="65" y="35" width="555" height="275" fill="white" stroke="#ccc"/>
  <line x1="65" y1="232.2" x2="620.0" y2="232.2" stroke="#ddd" stroke-width="1"/>
  <text x="60" y="235.2" text-anchor="end" font-size="9" fill="#333">0.8</text>
  <line x1="65" y1="136.8" x2="620.0" y2="136.8" stroke="#ddd" stroke-width="1"/>
  <text x="60" y="139.8" text-anchor="end" font-size="9" fill="#333">0.9</text>
  <line x1="65" y1="41.3" x2="620.0" y2="41.3" stroke="#ddd" stroke-width="1"/>
  <text x="60" y="44.3" text-anchor="end" font-size="9" fill="#333">1</text>
  <line x1="65.0" y1="35" x2="65.0" y2="310.0" stroke="#ddd" stroke-width="1"/>
  <text x="65.0" y="324.0" text-anchor="middle" font-size="9" fill="#333">0</text>
  <line x1="157.5" y1="35" x2="157.5" y2="310.0" stroke="#ddd" stroke-width="1"/>
  <text x="157.5" y="324.0" text-anchor="middle" font-size="9" fill="#333">500</text>
  <line x1="250.0" y1="35" x2="250.0" y2="310.0" stroke="#ddd" stroke-width="1"/>
  <text x="250.0" y="324.0" text-anchor="middle" font-size="9" fill="#333">1000</text>
  <line x1="342.5" y1="35" x2="342.5" y2="310.0" stroke="#ddd" stroke-width="1"/>
  <text x="342.5" y="324.0" text-anchor="middle" font-size="9" fill="#333">1500</text>
  <line x1="435.0" y1="35" x2="435.0" y2="310.0" stroke="#ddd" stroke-width="1"/>
  <text x="435.0" y="324.0" text-anchor="middle" font-size="9" fill="#333">2000</text>
  <line x1="527.5" y1="35" x2="527.5" y2="310.0" stroke="#ddd" stroke-width="1"/>
  <text x="527.5" y="324.0" text-anchor="middle" font-size="9" fill="#333">2500</text>
  <line x1="620.0" y1="35" x2="620.0" y2="310.0" stroke="#ddd" stroke-width="1"/>
  <text x="620.0" y="324.0" text-anchor="middle" font-size="9" fill="#333">3000</text>
  <text x="342" y="340" text-anchor="middle" font-size="11" fill="#333">connections</text>
  <text x="14" y="172" text-anchor="middle" font-size="11" fill="#333" transform="rotate(-90,14,172)">median delivery ratio</text>
  <line x1="65" y1="89.0" x2="620.0" y2="89.0" stroke="black" stroke-width="1.2" stroke-dasharray="6,4" opacity="0.55"/>
  <text x="618.0" y="86.0" text-anchor="end" font-size="9" fill="#333"> 0.95</text>
  <polyline points="65.2,50.4 74.2,50.7 102.0,50.5 176.0,49.2 250.0,50.4 342.5,51.1 435.0,50.0 620.0,51.2" fill="none" stroke="#1f77b4" stroke-width="1.8"/>
  <circle cx="65.2" cy="50.4" r="3" fill="#1f77b4"><title>apex_rudp: 0.9905 at 1 connections</title></circle>
  <circle cx="74.2" cy="50.7" r="3" fill="#1f77b4"><title>apex_rudp: 0.9901 at 50 connections</title></circle>
  <circle cx="102.0" cy="50.5" r="3" fill="#1f77b4"><title>apex_rudp: 0.9904 at 200 connections</title></circle>
  <circle cx="176.0" cy="49.2" r="3" fill="#1f77b4"><title>apex_rudp: 0.9917 at 600 connections</title></circle>
  <circle cx="250.0" cy="50.4" r="3" fill="#1f77b4"><title>apex_rudp: 0.9905 at 1000 connections</title></circle>
  <circle cx="342.5" cy="51.1" r="3" fill="#1f77b4"><title>apex_rudp: 0.9897 at 1500 connections</title></circle>
  <circle cx="435.0" cy="50.0" r="3" fill="#1f77b4"><title>apex_rudp: 0.9909 at 2000 connections</title></circle>
  <circle cx="620.0" cy="51.2" r="3" fill="#1f77b4"><title>apex_rudp: 0.9896 at 3000 connections</title></circle>
  <polyline points="65.2,48.5 74.2,50.6 102.0,51.2 176.0,50.0" fill="none" stroke="#ff7f0e" stroke-width="1.8"/>
  <circle cx="65.2" cy="48.5" r="3" fill="#ff7f0e"><title>coop_rudp: 0.9925 at 1 connections</title></circle>
  <circle cx="74.2" cy="50.6" r="3" fill="#ff7f0e"><title>coop_rudp: 0.9903 at 50 connections</title></circle>
  <circle cx="102.0" cy="51.2" r="3" fill="#ff7f0e"><title>coop_rudp: 0.9896 at 200 connections</title></circle>
  <circle cx="176.0" cy="50.0" r="3" fill="#ff7f0e"><title>coop_rudp: 0.9909 at 600 connections</title></circle>
  <polyline points="65.2,50.8 74.2,51.6 102.0,54.5 176.0,52.8 250.0,148.4" fill="none" stroke="#2ca02c" stroke-width="1.8"/>
  <circle cx="65.2" cy="50.8" r="3" fill="#2ca02c"><title>enet: 0.99 at 1 connections</title></circle>
  <circle cx="74.2" cy="51.6" r="3" fill="#2ca02c"><title>enet: 0.9892 at 50 connections</title></circle>
  <circle cx="102.0" cy="54.5" r="3" fill="#2ca02c"><title>enet: 0.9862 at 200 connections</title></circle>
  <circle cx="176.0" cy="52.8" r="3" fill="#2ca02c"><title>enet: 0.9879 at 600 connections</title></circle>
  <circle cx="250.0" cy="148.4" r="3" fill="#2ca02c"><title>enet: 0.8878 at 1000 connections</title></circle>
  <polyline points="65.2,47.5 74.2,51.0 102.0,50.7 176.0,50.7 250.0,50.7 342.5,50.7 435.0,170.8" fill="none" stroke="#d62728" stroke-width="1.8"/>
  <circle cx="65.2" cy="47.5" r="3" fill="#d62728"><title>gns: 0.9935 at 1 connections</title></circle>
  <circle cx="74.2" cy="51.0" r="3" fill="#d62728"><title>gns: 0.9898 at 50 connections</title></circle>
  <circle cx="102.0" cy="50.7" r="3" fill="#d62728"><title>gns: 0.9901 at 200 connections</title></circle>
  <circle cx="176.0" cy="50.7" r="3" fill="#d62728"><title>gns: 0.9902 at 600 connections</title></circle>
  <circle cx="250.0" cy="50.7" r="3" fill="#d62728"><title>gns: 0.9902 at 1000 connections</title></circle>
  <circle cx="342.5" cy="50.7" r="3" fill="#d62728"><title>gns: 0.9901 at 1500 connections</title></circle>
  <circle cx="435.0" cy="170.8" r="3" fill="#d62728"><title>gns: 0.8643 at 2000 connections</title></circle>
  <polyline points="65.2,52.3 74.2,50.9 102.0,50.7 176.0,179.1" fill="none" stroke="#9467bd" stroke-width="1.8"/>
  <circle cx="65.2" cy="52.3" r="3" fill="#9467bd"><title>kcp: 0.9885 at 1 connections</title></circle>
  <circle cx="74.2" cy="50.9" r="3" fill="#9467bd"><title>kcp: 0.9899 at 50 connections</title></circle>
  <circle cx="102.0" cy="50.7" r="3" fill="#9467bd"><title>kcp: 0.9901 at 200 connections</title></circle>
  <circle cx="176.0" cy="179.1" r="3" fill="#9467bd"><title>kcp: 0.8556 at 600 connections</title></circle>
  <polyline points="65.2,50.4 74.2,51.2 102.0,50.8 176.0,50.8 250.0,50.8 342.5,50.7 435.0,56.8 620.0,91.1" fill="none" stroke="#8c564b" stroke-width="1.8"/>
  <circle cx="65.2" cy="50.4" r="3" fill="#8c564b"><title>litenetlib: 0.9905 at 1 connections</title></circle>
  <circle cx="74.2" cy="51.2" r="3" fill="#8c564b"><title>litenetlib: 0.9896 at 50 connections</title></circle>
  <circle cx="102.0" cy="50.8" r="3" fill="#8c564b"><title>litenetlib: 0.99 at 200 connections</title></circle>
  <circle cx="176.0" cy="50.8" r="3" fill="#8c564b"><title>litenetlib: 0.99 at 600 connections</title></circle>
  <circle cx="250.0" cy="50.8" r="3" fill="#8c564b"><title>litenetlib: 0.99 at 1000 connections</title></circle>
  <circle cx="342.5" cy="50.7" r="3" fill="#8c564b"><title>litenetlib: 0.9901 at 1500 connections</title></circle>
  <circle cx="435.0" cy="56.8" r="3" fill="#8c564b"><title>litenetlib: 0.9838 at 2000 connections</title></circle>
  <circle cx="620.0" cy="91.1" r="3" fill="#8c564b"><title>litenetlib: 0.9478 at 3000 connections</title></circle>
  <polyline points="65.2,52.8 74.2,50.7 102.0,50.7 176.0,50.7 250.0,239.7" fill="none" stroke="#e377c2" stroke-width="1.8"/>
  <circle cx="65.2" cy="52.8" r="3" fill="#e377c2"><title>lsquic: 0.988 at 1 connections</title></circle>
  <circle cx="74.2" cy="50.7" r="3" fill="#e377c2"><title>lsquic: 0.9901 at 50 connections</title></circle>
  <circle cx="102.0" cy="50.7" r="3" fill="#e377c2"><title>lsquic: 0.9901 at 200 connections</title></circle>
  <circle cx="176.0" cy="50.7" r="3" fill="#e377c2"><title>lsquic: 0.9901 at 600 connections</title></circle>
  <circle cx="250.0" cy="239.7" r="3" fill="#e377c2"><title>lsquic: 0.7921 at 1000 connections</title></circle>
  <polyline points="65.2,53.7 74.2,50.9 102.0,50.9 176.0,297.5" fill="none" stroke="#7f7f7f" stroke-width="1.8"/>
  <circle cx="65.2" cy="53.7" r="3" fill="#7f7f7f"><title>mini_rudp: 0.987 at 1 connections</title></circle>
  <circle cx="74.2" cy="50.9" r="3" fill="#7f7f7f"><title>mini_rudp: 0.9899 at 50 connections</title></circle>
  <circle cx="102.0" cy="50.9" r="3" fill="#7f7f7f"><title>mini_rudp: 0.9899 at 200 connections</title></circle>
  <circle cx="176.0" cy="297.5" r="3" fill="#7f7f7f"><title>mini_rudp: 0.7316 at 600 connections</title></circle>
  <polyline points="65.2,51.8 74.2,50.8 102.0,50.8 176.0,50.7 250.0,50.7 342.5,50.9" fill="none" stroke="#bcbd22" stroke-width="1.8"/>
  <circle cx="65.2" cy="51.8" r="3" fill="#bcbd22"><title>msquic: 0.989 at 1 connections</title></circle>
  <circle cx="74.2" cy="50.8" r="3" fill="#bcbd22"><title>msquic: 0.99 at 50 connections</title></circle>
  <circle cx="102.0" cy="50.8" r="3" fill="#bcbd22"><title>msquic: 0.99 at 200 connections</title></circle>
  <circle cx="176.0" cy="50.7" r="3" fill="#bcbd22"><title>msquic: 0.9902 at 600 connections</title></circle>
  <circle cx="250.0" cy="50.7" r="3" fill="#bcbd22"><title>msquic: 0.9901 at 1000 connections</title></circle>
  <circle cx="342.5" cy="50.9" r="3" fill="#bcbd22"><title>msquic: 0.9899 at 1500 connections</title></circle>
  <polyline points="65.2,54.2 74.2,51.0 102.0,50.9 176.0,248.7" fill="none" stroke="#17becf" stroke-width="1.8"/>
  <circle cx="65.2" cy="54.2" r="3" fill="#17becf"><title>quiche: 0.9865 at 1 connections</title></circle>
  <circle cx="74.2" cy="51.0" r="3" fill="#17becf"><title>quiche: 0.9898 at 50 connections</title></circle>
  <circle cx="102.0" cy="50.9" r="3" fill="#17becf"><title>quiche: 0.9899 at 200 connections</title></circle>
  <circle cx="176.0" cy="248.7" r="3" fill="#17becf"><title>quiche: 0.7827 at 600 connections</title></circle>
  <polyline points="65.2,51.3 74.2,50.6 102.0,67.6 176.0,52.3 250.0,52.0 342.5,163.6" fill="none" stroke="#aec7e8" stroke-width="1.8"/>
  <circle cx="65.2" cy="51.3" r="3" fill="#aec7e8"><title>raknet: 0.9895 at 1 connections</title></circle>
  <circle cx="74.2" cy="50.6" r="3" fill="#aec7e8"><title>raknet: 0.9903 at 50 connections</title></circle>
  <circle cx="102.0" cy="67.6" r="3" fill="#aec7e8"><title>raknet: 0.9724 at 200 connections</title></circle>
  <circle cx="176.0" cy="52.3" r="3" fill="#aec7e8"><title>raknet: 0.9885 at 600 connections</title></circle>
  <circle cx="250.0" cy="52.0" r="3" fill="#aec7e8"><title>raknet: 0.9888 at 1000 connections</title></circle>
  <circle cx="342.5" cy="163.6" r="3" fill="#aec7e8"><title>raknet: 0.8719 at 1500 connections</title></circle>
  <polyline points="65.2,50.8 74.2,52.4 102.0,57.9 176.0,94.7" fill="none" stroke="#ffbb78" stroke-width="1.8"/>
  <circle cx="65.2" cy="50.8" r="3" fill="#ffbb78"><title>slikenet: 0.99 at 1 connections</title></circle>
  <circle cx="74.2" cy="52.4" r="3" fill="#ffbb78"><title>slikenet: 0.9884 at 50 connections</title></circle>
  <circle cx="102.0" cy="57.9" r="3" fill="#ffbb78"><title>slikenet: 0.9826 at 200 connections</title></circle>
  <circle cx="176.0" cy="94.7" r="3" fill="#ffbb78"><title>slikenet: 0.9441 at 600 connections</title></circle>
  <polyline points="65.2,51.8 74.2,50.6" fill="none" stroke="#98df8a" stroke-width="1.8"/>
  <circle cx="65.2" cy="51.8" r="3" fill="#98df8a"><title>yojimbo: 0.989 at 1 connections</title></circle>
  <circle cx="74.2" cy="50.6" r="3" fill="#98df8a"><title>yojimbo: 0.9903 at 50 connections</title></circle>
  <rect x="65" y="347" width="12" height="10" fill="#1f77b4" rx="1"/>  <text x="81" y="355" font-size="9">apex_rudp</text>
  <rect x="342" y="347" width="12" height="10" fill="#ff7f0e" rx="1"/>  <text x="358" y="355" font-size="9">coop_rudp</text>
  <rect x="65" y="363" width="12" height="10" fill="#2ca02c" rx="1"/>  <text x="81" y="371" font-size="9">enet</text>
  <rect x="342" y="363" width="12" height="10" fill="#d62728" rx="1"/>  <text x="358" y="371" font-size="9">gns</text>
  <rect x="65" y="379" width="12" height="10" fill="#9467bd" rx="1"/>  <text x="81" y="387" font-size="9">kcp</text>
  <rect x="342" y="379" width="12" height="10" fill="#8c564b" rx="1"/>  <text x="358" y="387" font-size="9">litenetlib</text>
  <rect x="65" y="395" width="12" height="10" fill="#e377c2" rx="1"/>  <text x="81" y="403" font-size="9">lsquic</text>
  <rect x="342" y="395" width="12" height="10" fill="#7f7f7f" rx="1"/>  <text x="358" y="403" font-size="9">mini_rudp</text>
  <rect x="65" y="411" width="12" height="10" fill="#bcbd22" rx="1"/>  <text x="81" y="419" font-size="9">msquic</text>
  <rect x="342" y="411" width="12" height="10" fill="#17becf" rx="1"/>  <text x="358" y="419" font-size="9">quiche</text>
  <rect x="65" y="427" width="12" height="10" fill="#aec7e8" rx="1"/>  <text x="81" y="435" font-size="9">raknet</text>
  <rect x="342" y="427" width="12" height="10" fill="#ffbb78" rx="1"/>  <text x="358" y="435" font-size="9">slikenet</text>
  <rect x="65" y="443" width="12" height="10" fill="#98df8a" rx="1"/>  <text x="81" y="451" font-size="9">yojimbo</text>
</svg>
