<svg xmlns="http://www.w3.org/2000/svg" viewBox="0 0 640 400" font-family="sans-serif" font-size="11">
  <text x="342" y="18" text-anchor="middle" font-size="14" font-weight="bold">echo: server CPU vs connections</text>
  <rect x="65" y="35" width="555" height="275" fill="white" stroke="#ccc"/>
  <line x1="65" y1="308.4" x2="620.0" y2="308.4" stroke="#ddd" stroke-width="1"/>
  <text x="60" y="311.4" text-anchor="end" font-size="9" fill="#333">0</text>
  <line x1="65" y1="238.9" x2="620.0" y2="238.9" stroke="#ddd" stroke-width="1"/>
  <text x="60" y="241.9" text-anchor="end" font-size="9" fill="#333">50</text>
  <line x1="65" y1="169.5" x2="620.0" y2="169.5" stroke="#ddd" stroke-width="1"/>
  <text x="60" y="172.5" text-anchor="end" font-size="9" fill="#333">100</text>
  <line x1="65" y1="100.0" x2="620.0" y2="100.0" stroke="#ddd" stroke-width="1"/>
  <text x="60" y="103.0" text-anchor="end" font-size="9" fill="#333">150</text>
  <line x1="65.0" y1="35" x2="65.0" y2="310.0" stroke="#ddd" stroke-width="1"/>
  <text x="65.0" y="324.0" text-anchor="middle" font-size="9" fill="#333">0</text>
  <line x1="157.5" y1="35" x2="157.5" y2="310.0" stroke="#ddd" stroke-width="1"/>
  <text x="157.5" y="324.0" text-anchor="middle" font-size="9" fill="#333">500</text>
  <line x1="250.0" y1="35" x2="250.0" y2="310.0" stroke="#ddd" stroke-width="1"/>
  <text x="250.0" y="324.0" text-anchor="middle" font-size="9" fill="#333">1000</text>
  <line x1="342.5" y1="35" x2="342.5" y2="310.0" stroke="#ddd" stroke-width="1"/>
  <text x="342.5" y="324.0" text-anchor="middle" font-size="9" fill="#333">1500</text>
  <line x1="435.0" y1="35" x2="435.0" y2="310.0" stroke="#ddd" stroke-width="1"/>
  <text x="435.0" y="324.0" text-anchor="middle" font-size="9" fill="#333">2000</text>
  <line x1="527.5" y1="35" x2="527.5" y2="310.0" stroke="#ddd" stroke-width="1"/>
  <text x="527.5" y="324.0" text-anchor="middle" font-size="9" fill="#333">2500</text>
  <line x1="620.0" y1="35" x2="620.0" y2="310.0" stroke="#ddd" stroke-width="1"/>
  <text x="620.0" y="324.0" text-anchor="middle" font-size="9" fill="#333">3000</text>
  <text x="342" y="340" text-anchor="middle" font-size="11" fill="#333">connections</text>
  <text x="14" y="172" text-anchor="middle" font-size="11" fill="#333" transform="rotate(-90,14,172)">median server CPU %</text>
  <polyline points="65.2,293.4 74.2,290.9 102.0,287.7 176.0,278.6 250.0,270.3 342.5,258.5 435.0,247.8 620.0,227.4" fill="none" stroke="#1f77b4" stroke-width="1.8"/>
  <circle cx="65.2" cy="293.4" r="3" fill="#1f77b4"><title>apex_rudp: 10.81 at 1 connections</title></circle>
  <circle cx="74.2" cy="290.9" r="3" fill="#1f77b4"><title>apex_rudp: 12.61 at 50 connections</title></circle>
  <circle cx="102.0" cy="287.7" r="3" fill="#1f77b4"><title>apex_rudp: 14.91 at 200 connections</title></circle>
  <circle cx="176.0" cy="278.6" r="3" fill="#1f77b4"><title>apex_rudp: 21.49 at 600 connections</title></circle>
  <circle cx="250.0" cy="270.3" r="3" fill="#1f77b4"><title>apex_rudp: 27.46 at 1000 connections</title></circle>
  <circle cx="342.5" cy="258.5" r="3" fill="#1f77b4"><title>apex_rudp: 35.89 at 1500 connections</title></circle>
  <circle cx="435.0" cy="247.8" r="3" fill="#1f77b4"><title>apex_rudp: 43.66 at 2000 connections</title></circle>
  <circle cx="620.0" cy="227.4" r="3" fill="#1f77b4"><title>apex_rudp: 58.28 at 3000 connections</title></circle>
  <polyline points="65.2,295.1 74.2,292.5 102.0,280.5 176.0,272.0" fill="none" stroke="#ff7f0e" stroke-width="1.8"/>
  <circle cx="65.2" cy="295.1" r="3" fill="#ff7f0e"><title>coop_rudp: 9.55 at 1 connections</title></circle>
  <circle cx="74.2" cy="292.5" r="3" fill="#ff7f0e"><title>coop_rudp: 11.45 at 50 connections</title></circle>
  <circle cx="102.0" cy="280.5" r="3" fill="#ff7f0e"><title>coop_rudp: 20.11 at 200 connections</title></circle>
  <circle cx="176.0" cy="272.0" r="3" fill="#ff7f0e"><title>coop_rudp: 26.24 at 600 connections</title></circle>
  <polyline points="65.2,294.0 74.2,283.6 102.0,247.1 176.0,172.8 250.0,174.3" fill="none" stroke="#2ca02c" stroke-width="1.8"/>
  <circle cx="65.2" cy="294.0" r="3" fill="#2ca02c"><title>enet: 10.35 at 1 connections</title></circle>
  <circle cx="74.2" cy="283.6" r="3" fill="#2ca02c"><title>enet: 17.88 at 50 connections</title></circle>
  <circle cx="102.0" cy="247.1" r="3" fill="#2ca02c"><title>enet: 44.13 at 200 connections</title></circle>
  <circle cx="176.0" cy="172.8" r="3" fill="#2ca02c"><title>enet: 97.64 at 600 connections</title></circle>
  <circle cx="250.0" cy="174.3" r="3" fill="#2ca02c"><title>enet: 96.53 at 1000 connections</title></circle>
  <polyline points="65.2,295.3 74.2,282.3 102.0,244.1 176.0,154.3 250.0,101.3 342.5,71.5 435.0,56.9" fill="none" stroke="#d62728" stroke-width="1.8"/>
  <circle cx="65.2" cy="295.3" r="3" fill="#d62728"><title>gns: 9.42 at 1 connections</title></circle>
  <circle cx="74.2" cy="282.3" r="3" fill="#d62728"><title>gns: 18.82 at 50 connections</title></circle>
  <circle cx="102.0" cy="244.1" r="3" fill="#d62728"><title>gns: 46.32 at 200 connections</title></circle>
  <circle cx="176.0" cy="154.3" r="3" fill="#d62728"><title>gns: 110.89 at 600 connections</title></circle>
  <circle cx="250.0" cy="101.3" r="3" fill="#d62728"><title>gns: 149.04 at 1000 connections</title></circle>
  <circle cx="342.5" cy="71.5" r="3" fill="#d62728"><title>gns: 170.55 at 1500 connections</title></circle>
  <circle cx="435.0" cy="56.9" r="3" fill="#d62728"><title>gns: 181.06 at 2000 connections</title></circle>
  <polyline points="65.2,295.4 74.2,289.9 102.0,263.8 176.0,174.0" fill="none" stroke="#9467bd" stroke-width="1.8"/>
  <circle cx="65.2" cy="295.4" r="3" fill="#9467bd"><title>kcp: 9.34 at 1 connections</title></circle>
  <circle cx="74.2" cy="289.9" r="3" fill="#9467bd"><title>kcp: 13.3 at 50 connections</title></circle>
  <circle cx="102.0" cy="263.8" r="3" fill="#9467bd"><title>kcp: 32.1 at 200 connections</title></circle>
  <circle cx="176.0" cy="174.0" r="3" fill="#9467bd"><title>kcp: 96.71 at 600 connections</title></circle>
  <polyline points="65.2,293.5 74.2,284.4 102.0,259.4 176.0,180.0 250.0,100.2 342.5,81.0 435.0,68.2 620.0,47.5" fill="none" stroke="#8c564b" stroke-width="1.8"/>
  <circle cx="65.2" cy="293.5" r="3" fill="#8c564b"><title>litenetlib: 10.75 at 1 connections</title></circle>
  <circle cx="74.2" cy="284.4" r="3" fill="#8c564b"><title>litenetlib: 17.27 at 50 connections</title></circle>
  <circle cx="102.0" cy="259.4" r="3" fill="#8c564b"><title>litenetlib: 35.25 at 200 connections</title></circle>
  <circle cx="176.0" cy="180.0" r="3" fill="#8c564b"><title>litenetlib: 92.45 at 600 connections</title></circle>
  <circle cx="250.0" cy="100.2" r="3" fill="#8c564b"><title>litenetlib: 149.9 at 1000 connections</title></circle>
  <circle cx="342.5" cy="81.0" r="3" fill="#8c564b"><title>litenetlib: 163.71 at 1500 connections</title></circle>
  <circle cx="435.0" cy="68.2" r="3" fill="#8c564b"><title>litenetlib: 172.92 at 2000 connections</title></circle>
  <circle cx="620.0" cy="47.5" r="3" fill="#8c564b"><title>litenetlib: 187.8 at 3000 connections</title></circle>
  <polyline points="65.2,294.5 74.2,284.9 102.0,255.2 176.0,180.8 250.0,172.6" fill="none" stroke="#e377c2" stroke-width="1.8"/>
  <circle cx="65.2" cy="294.5" r="3" fill="#e377c2"><title>lsquic: 10.01 at 1 connections</title></circle>
  <circle cx="74.2" cy="284.9" r="3" fill="#e377c2"><title>lsquic: 16.91 at 50 connections</title></circle>
  <circle cx="102.0" cy="255.2" r="3" fill="#e377c2"><title>lsquic: 38.32 at 200 connections</title></circle>
  <circle cx="176.0" cy="180.8" r="3" fill="#e377c2"><title>lsquic: 91.82 at 600 connections</title></circle>
  <circle cx="250.0" cy="172.6" r="3" fill="#e377c2"><title>lsquic: 97.76 at 1000 connections</title></circle>
  <polyline points="65.2,296.2 74.2,286.1 102.0,232.7 176.0,171.4" fill="none" stroke="#7f7f7f" stroke-width="1.8"/>
  <circle cx="65.2" cy="296.2" r="3" fill="#7f7f7f"><title>mini_rudp: 8.82 at 1 connections</title></circle>
  <circle cx="74.2" cy="286.1" r="3" fill="#7f7f7f"><title>mini_rudp: 16.02 at 50 connections</title></circle>
  <circle cx="102.0" cy="232.7" r="3" fill="#7f7f7f"><title>mini_rudp: 54.52 at 200 connections</title></circle>
  <circle cx="176.0" cy="171.4" r="3" fill="#7f7f7f"><title>mini_rudp: 98.63 at 600 connections</title></circle>
  <polyline points="65.2,297.5 74.2,252.8 102.0,144.2 176.0,118.0 250.0,114.9 342.5,109.5" fill="none" stroke="#bcbd22" stroke-width="1.8"/>
  <circle cx="65.2" cy="297.5" r="3" fill="#bcbd22"><title>msquic: 7.85 at 1 connections</title></circle>
  <circle cx="74.2" cy="252.8" r="3" fill="#bcbd22"><title>msquic: 40.05 at 50 connections</title></circle>
  <circle cx="102.0" cy="144.2" r="3" fill="#bcbd22"><title>msquic: 118.21 at 200 connections</title></circle>
  <circle cx="176.0" cy="118.0" r="3" fill="#bcbd22"><title>msquic: 137.07 at 600 connections</title></circle>
  <circle cx="250.0" cy="114.9" r="3" fill="#bcbd22"><title>msquic: 139.28 at 1000 connections</title></circle>
  <circle cx="342.5" cy="109.5" r="3" fill="#bcbd22"><title>msquic: 143.17 at 1500 connections</title></circle>
  <polyline points="65.2,291.7 74.2,184.6 102.0,170.8 176.0,171.3" fill="none" stroke="#17becf" stroke-width="1.8"/>
  <circle cx="65.2" cy="291.7" r="3" fill="#17becf"><title>quiche: 12.01 at 1 connections</title></circle>
  <circle cx="74.2" cy="184.6" r="3" fill="#17becf"><title>quiche: 89.09 at 50 connections</title></circle>
  <circle cx="102.0" cy="170.8" r="3" fill="#17becf"><title>quiche: 99.03 at 200 connections</title></circle>
  <circle cx="176.0" cy="171.3" r="3" fill="#17becf"><title>quiche: 98.68 at 600 connections</title></circle>
  <polyline points="65.2,295.6 74.2,276.0 102.0,223.2 176.0,156.0 250.0,151.5 342.5,148.4" fill="none" stroke="#aec7e8" stroke-width="1.8"/>
  <circle cx="65.2" cy="295.6" r="3" fill="#aec7e8"><title>raknet: 9.19 at 1 connections</title></circle>
  <circle cx="74.2" cy="276.0" r="3" fill="#aec7e8"><title>raknet: 23.33 at 50 connections</title></circle>
  <circle cx="102.0" cy="223.2" r="3" fill="#aec7e8"><title>raknet: 61.35 at 200 connections</title></circle>
  <circle cx="176.0" cy="156.0" r="3" fill="#aec7e8"><title>raknet: 109.71 at 600 connections</title></circle>
  <circle cx="250.0" cy="151.5" r="3" fill="#aec7e8"><title>raknet: 112.93 at 1000 connections</title></circle>
  <circle cx="342.5" cy="148.4" r="3" fill="#aec7e8"><title>raknet: 115.17 at 1500 connections</title></circle>
  <polyline points="65.2,295.6 74.2,275.9 102.0,221.3 176.0,153.1" fill="none" stroke="#ffbb78" stroke-width="1.8"/>
  <circle cx="65.2" cy="295.6" r="3" fill="#ffbb78"><title>slikenet: 9.24 at 1 connections</title></circle>
  <circle cx="74.2" cy="275.9" r="3" fill="#ffbb78"><title>slikenet: 23.43 at 50 connections</title></circle>
  <circle cx="102.0" cy="221.3" r="3" fill="#ffbb78"><title>slikenet: 62.72 at 200 connections</title></circle>
  <circle cx="176.0" cy="153.1" r="3" fill="#ffbb78"><title>slikenet: 111.81 at 600 connections</title></circle>
  <polyline points="65.2,293.3 74.2,281.1" fill="none" stroke="#98df8a" stroke-width="1.8"/>
  <circle cx="65.2" cy="293.3" r="3" fill="#98df8a"><title>yojimbo: 10.84 at 1 connections</title></circle>
  <circle cx="74.2" cy="281.1" r="3" fill="#98df8a"><title>yojimbo: 19.65 at 50 connections</title></circle>
  <rect x="65" y="347" width="12" height="10" fill="#1f77b4" rx="1"/>  <text x="81" y="355" font-size="9">apex_rudp</text>
  <rect x="342" y="347" width="12" height="10" fill="#ff7f0e" rx="1"/>  <text x="358" y="355" font-size="9">coop_rudp</text>
  <rect x="65" y="363" width="12" height="10" fill="#2ca02c" rx="1"/>  <text x="81" y="371" font-size="9">enet</text>
  <rect x="342" y="363" width="12" height="10" fill="#d62728" rx="1"/>  <text x="358" y="371" font-size="9">gns</text>
  <rect x="65" y="379" width="12" height="10" fill="#9467bd" rx="1"/>  <text x="81" y="387" font-size="9">kcp</text>
  <rect x="342" y="379" width="12" height="10" fill="#8c564b" rx="1"/>  <text x="358" y="387" font-size="9">litenetlib</text>
  <rect x="65" y="395" width="12" height="10" fill="#e377c2" rx="1"/>  <text x="81" y="403" font-size="9">lsquic</text>
  <rect x="342" y="395" width="12" height="10" fill="#7f7f7f" rx="1"/>  <text x="358" y="403" font-size="9">mini_rudp</text>
  <rect x="65" y="411" width="12" height="10" fill="#bcbd22" rx="1"/>  <text x="81" y="419" font-size="9">msquic</text>
  <rect x="342" y="411" width="12" height="10" fill="#17becf" rx="1"/>  <text x="358" y="419" font-size="9">quiche</text>
  <rect x="65" y="427" width="12" height="10" fill="#aec7e8" rx="1"/>  <text x="81" y="435" font-size="9">raknet</text>
  <rect x="342" y="427" width="12" height="10" fill="#ffbb78" rx="1"/>  <text x="358" y="435" font-size="9">slikenet</text>
  <rect x="65" y="443" width="12" height="10" fill="#98df8a" rx="1"/>  <text x="81" y="451" font-size="9">yojimbo</text>
</svg>
