<svg xmlns="http://www.w3.org/2000/svg" viewBox="0 0 640 400" font-family="sans-serif" font-size="11">
  <text x="342" y="18" text-anchor="middle" font-size="14" font-weight="bold">game_server: delivery ratio vs connections</text>
  <rect x="65" y="35" width="555" height="275" fill="white" stroke="#ccc"/>
  <line x1="65" y1="310.0" x2="620.0" y2="310.0" stroke="#ddd" stroke-width="1"/>
  <text x="60" y="313.0" text-anchor="end" font-size="9" fill="#333">0</text>
  <line x1="65" y1="177.5" x2="620.0" y2="177.5" stroke="#ddd" stroke-width="1"/>
  <text x="60" y="180.5" text-anchor="end" font-size="9" fill="#333">0.5</text>
  <line x1="65" y1="45.0" x2="620.0" y2="45.0" stroke="#ddd" stroke-width="1"/>
  <text x="60" y="48.0" text-anchor="end" font-size="9" fill="#333">1</text>
  <line x1="207.4" y1="35" x2="207.4" y2="310.0" stroke="#ddd" stroke-width="1"/>
  <text x="207.4" y="324.0" text-anchor="middle" font-size="9" fill="#333">50</text>
  <line x1="352.7" y1="35" x2="352.7" y2="310.0" stroke="#ddd" stroke-width="1"/>
  <text x="352.7" y="324.0" text-anchor="middle" font-size="9" fill="#333">100</text>
  <line x1="498.0" y1="35" x2="498.0" y2="310.0" stroke="#ddd" stroke-width="1"/>
  <text x="498.0" y="324.0" text-anchor="middle" font-size="9" fill="#333">150</text>
  <text x="342" y="340" text-anchor="middle" font-size="11" fill="#333">connections</text>
  <text x="14" y="172" text-anchor="middle" font-size="11" fill="#333" transform="rotate(-90,14,172)">median delivery ratio</text>
  <line x1="65" y1="58.2" x2="620.0" y2="58.2" stroke="black" stroke-width="1.2" stroke-dasharray="6,4" opacity="0.55"/>
  <text x="618.0" y="55.2" text-anchor="end" font-size="9" fill="#333"> 0.95</text>
  <polyline points="65.0,297.4" fill="none" stroke="#1f77b4" stroke-width="1.8"/>
  <circle cx="65.0" cy="297.4" r="3" fill="#1f77b4"><title>apex_rudp: 0.0476 at 1 connections</title></circle>
  <polyline points="65.0,50.6 76.6,51.8 248.1,90.3" fill="none" stroke="#ff7f0e" stroke-width="1.8"/>
  <circle cx="65.0" cy="50.6" r="3" fill="#ff7f0e"><title>coop_rudp: 0.9786 at 1 connections</title></circle>
  <circle cx="76.6" cy="51.8" r="3" fill="#ff7f0e"><title>coop_rudp: 0.9741 at 5 connections</title></circle>
  <circle cx="248.1" cy="90.3" r="3" fill="#ff7f0e"><title>coop_rudp: 0.829 at 64 connections</title></circle>
  <polyline points="65.0,51.3 76.6,53.0 248.1,55.4 341.0,60.5" fill="none" stroke="#2ca02c" stroke-width="1.8"/>
  <circle cx="65.0" cy="51.3" r="3" fill="#2ca02c"><title>enet: 0.9762 at 1 connections</title></circle>
  <circle cx="76.6" cy="53.0" r="3" fill="#2ca02c"><title>enet: 0.9699 at 5 connections</title></circle>
  <circle cx="248.1" cy="55.4" r="3" fill="#2ca02c"><title>enet: 0.9608 at 64 connections</title></circle>
  <circle cx="341.0" cy="60.5" r="3" fill="#2ca02c"><title>enet: 0.9416 at 96 connections</title></circle>
  <polyline points="65.0,50.6 76.6,50.4 248.1,51.8 341.0,51.7 434.0,67.1" fill="none" stroke="#d62728" stroke-width="1.8"/>
  <circle cx="65.0" cy="50.6" r="3" fill="#d62728"><title>gns: 0.9786 at 1 connections</title></circle>
  <circle cx="76.6" cy="50.4" r="3" fill="#d62728"><title>gns: 0.9796 at 5 connections</title></circle>
  <circle cx="248.1" cy="51.8" r="3" fill="#d62728"><title>gns: 0.9741 at 64 connections</title></circle>
  <circle cx="341.0" cy="51.7" r="3" fill="#d62728"><title>gns: 0.9745 at 96 connections</title></circle>
  <circle cx="434.0" cy="67.1" r="3" fill="#d62728"><title>gns: 0.9167 at 128 connections</title></circle>
  <polyline points="65.0,47.5 76.6,49.7 248.1,50.5 341.0,174.4" fill="none" stroke="#9467bd" stroke-width="1.8"/>
  <circle cx="65.0" cy="47.5" r="3" fill="#9467bd"><title>kcp: 0.9905 at 1 connections</title></circle>
  <circle cx="76.6" cy="49.7" r="3" fill="#9467bd"><title>kcp: 0.982 at 5 connections</title></circle>
  <circle cx="248.1" cy="50.5" r="3" fill="#9467bd"><title>kcp: 0.9791 at 64 connections</title></circle>
  <circle cx="341.0" cy="174.4" r="3" fill="#9467bd"><title>kcp: 0.5118 at 96 connections</title></circle>
  <polyline points="65.0,48.8 76.6,50.5 248.1,51.8 341.0,51.4 434.0,51.5" fill="none" stroke="#8c564b" stroke-width="1.8"/>
  <circle cx="65.0" cy="48.8" r="3" fill="#8c564b"><title>litenetlib: 0.9857 at 1 connections</title></circle>
  <circle cx="76.6" cy="50.5" r="3" fill="#8c564b"><title>litenetlib: 0.9792 at 5 connections</title></circle>
  <circle cx="248.1" cy="51.8" r="3" fill="#8c564b"><title>litenetlib: 0.9744 at 64 connections</title></circle>
  <circle cx="341.0" cy="51.4" r="3" fill="#8c564b"><title>litenetlib: 0.9756 at 96 connections</title></circle>
  <circle cx="434.0" cy="51.5" r="3" fill="#8c564b"><title>litenetlib: 0.9752 at 128 connections</title></circle>
  <polyline points="65.0,47.5 76.6,50.6 248.1,65.2" fill="none" stroke="#e377c2" stroke-width="1.8"/>
  <circle cx="65.0" cy="47.5" r="3" fill="#e377c2"><title>lsquic: 0.9905 at 1 connections</title></circle>
  <circle cx="76.6" cy="50.6" r="3" fill="#e377c2"><title>lsquic: 0.9788 at 5 connections</title></circle>
  <circle cx="248.1" cy="65.2" r="3" fill="#e377c2"><title>lsquic: 0.9238 at 64 connections</title></circle>
  <polyline points="65.0,50.0 76.6,51.2 248.1,71.8" fill="none" stroke="#7f7f7f" stroke-width="1.8"/>
  <circle cx="65.0" cy="50.0" r="3" fill="#7f7f7f"><title>mini_rudp: 0.981 at 1 connections</title></circle>
  <circle cx="76.6" cy="51.2" r="3" fill="#7f7f7f"><title>mini_rudp: 0.9765 at 5 connections</title></circle>
  <circle cx="248.1" cy="71.8" r="3" fill="#7f7f7f"><title>mini_rudp: 0.8987 at 64 connections</title></circle>
  <polyline points="65.0,54.4 76.6,51.0 248.1,52.9 341.0,50.7 434.0,93.7" fill="none" stroke="#bcbd22" stroke-width="1.8"/>
  <circle cx="65.0" cy="54.4" r="3" fill="#bcbd22"><title>msquic: 0.9643 at 1 connections</title></circle>
  <circle cx="76.6" cy="51.0" r="3" fill="#bcbd22"><title>msquic: 0.9772 at 5 connections</title></circle>
  <circle cx="248.1" cy="52.9" r="3" fill="#bcbd22"><title>msquic: 0.97 at 64 connections</title></circle>
  <circle cx="341.0" cy="50.7" r="3" fill="#bcbd22"><title>msquic: 0.9784 at 96 connections</title></circle>
  <circle cx="434.0" cy="93.7" r="3" fill="#bcbd22"><title>msquic: 0.8161 at 128 connections</title></circle>
  <polyline points="65.0,49.4 76.6,50.5 248.1,53.9 341.0,53.9 434.0,54.9 620.0,164.8" fill="none" stroke="#17becf" stroke-width="1.8"/>
  <circle cx="65.0" cy="49.4" r="3" fill="#17becf"><title>quiche: 0.9833 at 1 connections</title></circle>
  <circle cx="76.6" cy="50.5" r="3" fill="#17becf"><title>quiche: 0.9791 at 5 connections</title></circle>
  <circle cx="248.1" cy="53.9" r="3" fill="#17becf"><title>quiche: 0.9663 at 64 connections</title></circle>
  <circle cx="341.0" cy="53.9" r="3" fill="#17becf"><title>quiche: 0.9664 at 96 connections</title></circle>
  <circle cx="434.0" cy="54.9" r="3" fill="#17becf"><title>quiche: 0.9627 at 128 connections</title></circle>
  <circle cx="620.0" cy="164.8" r="3" fill="#17becf"><title>quiche: 0.548 at 192 connections</title></circle>
  <polyline points="65.0,51.9 76.6,51.8 248.1,59.2" fill="none" stroke="#aec7e8" stroke-width="1.8"/>
  <circle cx="65.0" cy="51.9" r="3" fill="#aec7e8"><title>raknet: 0.9738 at 1 connections</title></circle>
  <circle cx="76.6" cy="51.8" r="3" fill="#aec7e8"><title>raknet: 0.9744 at 5 connections</title></circle>
  <circle cx="248.1" cy="59.2" r="3" fill="#aec7e8"><title>raknet: 0.9462 at 64 connections</title></circle>
  <polyline points="65.0,50.6 76.6,49.6 248.1,51.4 341.0,61.9" fill="none" stroke="#ffbb78" stroke-width="1.8"/>
  <circle cx="65.0" cy="50.6" r="3" fill="#ffbb78"><title>slikenet: 0.9786 at 1 connections</title></circle>
  <circle cx="76.6" cy="49.6" r="3" fill="#ffbb78"><title>slikenet: 0.9824 at 5 connections</title></circle>
  <circle cx="248.1" cy="51.4" r="3" fill="#ffbb78"><title>slikenet: 0.9759 at 64 connections</title></circle>
  <circle cx="341.0" cy="61.9" r="3" fill="#ffbb78"><title>slikenet: 0.9363 at 96 connections</title></circle>
  <polyline points="65.0,48.1 76.6,51.1 248.1,56.5" fill="none" stroke="#98df8a" stroke-width="1.8"/>
  <circle cx="65.0" cy="48.1" r="3" fill="#98df8a"><title>yojimbo: 0.9881 at 1 connections</title></circle>
  <circle cx="76.6" cy="51.1" r="3" fill="#98df8a"><title>yojimbo: 0.9768 at 5 connections</title></circle>
  <circle cx="248.1" cy="56.5" r="3" fill="#98df8a"><title>yojimbo: 0.9565 at 64 connections</title></circle>
  <rect x="65" y="347" width="12" height="10" fill="#1f77b4" rx="1"/>  <text x="81" y="355" font-size="9">apex_rudp</text>
  <rect x="342" y="347" width="12" height="10" fill="#ff7f0e" rx="1"/>  <text x="358" y="355" font-size="9">coop_rudp</text>
  <rect x="65" y="363" width="12" height="10" fill="#2ca02c" rx="1"/>  <text x="81" y="371" font-size="9">enet</text>
  <rect x="342" y="363" width="12" height="10" fill="#d62728" rx="1"/>  <text x="358" y="371" font-size="9">gns</text>
  <rect x="65" y="379" width="12" height="10" fill="#9467bd" rx="1"/>  <text x="81" y="387" font-size="9">kcp</text>
  <rect x="342" y="379" width="12" height="10" fill="#8c564b" rx="1"/>  <text x="358" y="387" font-size="9">litenetlib</text>
  <rect x="65" y="395" width="12" height="10" fill="#e377c2" rx="1"/>  <text x="81" y="403" font-size="9">lsquic</text>
  <rect x="342" y="395" width="12" height="10" fill="#7f7f7f" rx="1"/>  <text x="358" y="403" font-size="9">mini_rudp</text>
  <rect x="65" y="411" width="12" height="10" fill="#bcbd22" rx="1"/>  <text x="81" y="419" font-size="9">msquic</text>
  <rect x="342" y="411" width="12" height="10" fill="#17becf" rx="1"/>  <text x="358" y="419" font-size="9">quiche</text>
  <rect x="65" y="427" width="12" height="10" fill="#aec7e8" rx="1"/>  <text x="81" y="435" font-size="9">raknet</text>
  <rect x="342" y="427" width="12" height="10" fill="#ffbb78" rx="1"/>  <text x="358" y="435" font-size="9">slikenet</text>
  <rect x="65" y="443" width="12" height="10" fill="#98df8a" rx="1"/>  <text x="81" y="451" font-size="9">yojimbo</text>
</svg>
