<svg xmlns="http://www.w3.org/2000/svg" viewBox="0 0 640 400" font-family="sans-serif" font-size="11">
  <text x="342" y="18" text-anchor="middle" font-size="14" font-weight="bold">game_server: RTT p95 vs connections</text>
  <rect x="65" y="35" width="555" height="275" fill="white" stroke="#ccc"/>
  <line x1="65" y1="301.6" x2="620.0" y2="301.6" stroke="#ddd" stroke-width="1"/>
  <text x="60" y="304.6" text-anchor="end" font-size="9" fill="#333">0</text>
  <line x1="65" y1="232.3" x2="620.0" y2="232.3" stroke="#ddd" stroke-width="1"/>
  <text x="60" y="235.3" text-anchor="end" font-size="9" fill="#333">1000</text>
  <line x1="65" y1="162.9" x2="620.0" y2="162.9" stroke="#ddd" stroke-width="1"/>
  <text x="60" y="165.9" text-anchor="end" font-size="9" fill="#333">2000</text>
  <line x1="65" y1="93.6" x2="620.0" y2="93.6" stroke="#ddd" stroke-width="1"/>
  <text x="60" y="96.6" text-anchor="end" font-size="9" fill="#333">3000</text>
  <line x1="207.4" y1="35" x2="207.4" y2="310.0" stroke="#ddd" stroke-width="1"/>
  <text x="207.4" y="324.0" text-anchor="middle" font-size="9" fill="#333">50</text>
  <line x1="352.7" y1="35" x2="352.7" y2="310.0" stroke="#ddd" stroke-width="1"/>
  <text x="352.7" y="324.0" text-anchor="middle" font-size="9" fill="#333">100</text>
  <line x1="498.0" y1="35" x2="498.0" y2="310.0" stroke="#ddd" stroke-width="1"/>
  <text x="498.0" y="324.0" text-anchor="middle" font-size="9" fill="#333">150</text>
  <text x="342" y="340" text-anchor="middle" font-size="11" fill="#333">connections</text>
  <text x="14" y="172" text-anchor="middle" font-size="11" fill="#333" transform="rotate(-90,14,172)">median RTT p95 (ms)</text>
  <polyline points="65.0,297.5" fill="none" stroke="#1f77b4" stroke-width="1.8"/>
  <circle cx="65.0" cy="297.5" r="3" fill="#1f77b4"><title>apex_rudp: 59.4 at 1 connections</title></circle>
  <polyline points="65.0,297.3 76.6,297.3 248.1,297.0" fill="none" stroke="#ff7f0e" stroke-width="1.8"/>
  <circle cx="65.0" cy="297.3" r="3" fill="#ff7f0e"><title>coop_rudp: 61.6 at 1 connections</title></circle>
  <circle cx="76.6" cy="297.3" r="3" fill="#ff7f0e"><title>coop_rudp: 62.1 at 5 connections</title></circle>
  <circle cx="248.1" cy="297.0" r="3" fill="#ff7f0e"><title>coop_rudp: 66.6 at 64 connections</title></circle>
  <polyline points="65.0,297.2 76.6,297.4 248.1,297.3 341.0,297.2" fill="none" stroke="#2ca02c" stroke-width="1.8"/>
  <circle cx="65.0" cy="297.2" r="3" fill="#2ca02c"><title>enet: 63.1 at 1 connections</title></circle>
  <circle cx="76.6" cy="297.4" r="3" fill="#2ca02c"><title>enet: 61.5 at 5 connections</title></circle>
  <circle cx="248.1" cy="297.3" r="3" fill="#2ca02c"><title>enet: 62.2 at 64 connections</title></circle>
  <circle cx="341.0" cy="297.2" r="3" fill="#2ca02c"><title>enet: 63.4 at 96 connections</title></circle>
  <polyline points="65.0,296.6 76.6,296.7 248.1,296.8 341.0,296.7 434.0,187.8" fill="none" stroke="#d62728" stroke-width="1.8"/>
  <circle cx="65.0" cy="296.6" r="3" fill="#d62728"><title>gns: 71.8 at 1 connections</title></circle>
  <circle cx="76.6" cy="296.7" r="3" fill="#d62728"><title>gns: 71.6 at 5 connections</title></circle>
  <circle cx="248.1" cy="296.8" r="3" fill="#d62728"><title>gns: 69.9 at 64 connections</title></circle>
  <circle cx="341.0" cy="296.7" r="3" fill="#d62728"><title>gns: 71 at 96 connections</title></circle>
  <circle cx="434.0" cy="187.8" r="3" fill="#d62728"><title>gns: 1642 at 128 connections</title></circle>
  <polyline points="65.0,297.4 76.6,297.4 248.1,297.1 341.0,251.5" fill="none" stroke="#9467bd" stroke-width="1.8"/>
  <circle cx="65.0" cy="297.4" r="3" fill="#9467bd"><title>kcp: 60.6 at 1 connections</title></circle>
  <circle cx="76.6" cy="297.4" r="3" fill="#9467bd"><title>kcp: 61.5 at 5 connections</title></circle>
  <circle cx="248.1" cy="297.1" r="3" fill="#9467bd"><title>kcp: 65.8 at 64 connections</title></circle>
  <circle cx="341.0" cy="251.5" r="3" fill="#9467bd"><title>kcp: 723 at 96 connections</title></circle>
  <polyline points="65.0,296.5 76.6,296.5 248.1,296.4 341.0,296.4 434.0,296.1" fill="none" stroke="#8c564b" stroke-width="1.8"/>
  <circle cx="65.0" cy="296.5" r="3" fill="#8c564b"><title>litenetlib: 73.4 at 1 connections</title></circle>
  <circle cx="76.6" cy="296.5" r="3" fill="#8c564b"><title>litenetlib: 74.2 at 5 connections</title></circle>
  <circle cx="248.1" cy="296.4" r="3" fill="#8c564b"><title>litenetlib: 74.7 at 64 connections</title></circle>
  <circle cx="341.0" cy="296.4" r="3" fill="#8c564b"><title>litenetlib: 75.3 at 96 connections</title></circle>
  <circle cx="434.0" cy="296.1" r="3" fill="#8c564b"><title>litenetlib: 79.3 at 128 connections</title></circle>
  <polyline points="65.0,297.3 76.6,297.3 248.1,218.2" fill="none" stroke="#e377c2" stroke-width="1.8"/>
  <circle cx="65.0" cy="297.3" r="3" fill="#e377c2"><title>lsquic: 62.4 at 1 connections</title></circle>
  <circle cx="76.6" cy="297.3" r="3" fill="#e377c2"><title>lsquic: 62 at 5 connections</title></circle>
  <circle cx="248.1" cy="218.2" r="3" fill="#e377c2"><title>lsquic: 1203 at 64 connections</title></circle>
  <polyline points="65.0,297.3 76.6,297.3 248.1,296.4" fill="none" stroke="#7f7f7f" stroke-width="1.8"/>
  <circle cx="65.0" cy="297.3" r="3" fill="#7f7f7f"><title>mini_rudp: 62.3 at 1 connections</title></circle>
  <circle cx="76.6" cy="297.3" r="3" fill="#7f7f7f"><title>mini_rudp: 61.7 at 5 connections</title></circle>
  <circle cx="248.1" cy="296.4" r="3" fill="#7f7f7f"><title>mini_rudp: 75.9 at 64 connections</title></circle>
  <polyline points="65.0,297.3 76.6,297.4 248.1,297.0 341.0,296.2 434.0,47.5" fill="none" stroke="#bcbd22" stroke-width="1.8"/>
  <circle cx="65.0" cy="297.3" r="3" fill="#bcbd22"><title>msquic: 62.1 at 1 connections</title></circle>
  <circle cx="76.6" cy="297.4" r="3" fill="#bcbd22"><title>msquic: 61.5 at 5 connections</title></circle>
  <circle cx="248.1" cy="297.0" r="3" fill="#bcbd22"><title>msquic: 66.6 at 64 connections</title></circle>
  <circle cx="341.0" cy="296.2" r="3" fill="#bcbd22"><title>msquic: 77.8 at 96 connections</title></circle>
  <circle cx="434.0" cy="47.5" r="3" fill="#bcbd22"><title>msquic: 3665 at 128 connections</title></circle>
  <polyline points="65.0,297.3 76.6,297.3 248.1,297.2 341.0,294.8 434.0,245.4 620.0,165.0" fill="none" stroke="#17becf" stroke-width="1.8"/>
  <circle cx="65.0" cy="297.3" r="3" fill="#17becf"><title>quiche: 62.7 at 1 connections</title></circle>
  <circle cx="76.6" cy="297.3" r="3" fill="#17becf"><title>quiche: 61.9 at 5 connections</title></circle>
  <circle cx="248.1" cy="297.2" r="3" fill="#17becf"><title>quiche: 64.4 at 64 connections</title></circle>
  <circle cx="341.0" cy="294.8" r="3" fill="#17becf"><title>quiche: 98.8 at 96 connections</title></circle>
  <circle cx="434.0" cy="245.4" r="3" fill="#17becf"><title>quiche: 810.8 at 128 connections</title></circle>
  <circle cx="620.0" cy="165.0" r="3" fill="#17becf"><title>quiche: 1971 at 192 connections</title></circle>
  <polyline points="65.0,297.4 76.6,297.3 248.1,295.7" fill="none" stroke="#aec7e8" stroke-width="1.8"/>
  <circle cx="65.0" cy="297.4" r="3" fill="#aec7e8"><title>raknet: 60.5 at 1 connections</title></circle>
  <circle cx="76.6" cy="297.3" r="3" fill="#aec7e8"><title>raknet: 62.1 at 5 connections</title></circle>
  <circle cx="248.1" cy="295.7" r="3" fill="#aec7e8"><title>raknet: 84.9 at 64 connections</title></circle>
  <polyline points="65.0,297.4 76.6,297.3 248.1,295.5 341.0,292.8" fill="none" stroke="#ffbb78" stroke-width="1.8"/>
  <circle cx="65.0" cy="297.4" r="3" fill="#ffbb78"><title>slikenet: 60.7 at 1 connections</title></circle>
  <circle cx="76.6" cy="297.3" r="3" fill="#ffbb78"><title>slikenet: 62.1 at 5 connections</title></circle>
  <circle cx="248.1" cy="295.5" r="3" fill="#ffbb78"><title>slikenet: 88.8 at 64 connections</title></circle>
  <circle cx="341.0" cy="292.8" r="3" fill="#ffbb78"><title>slikenet: 127.7 at 96 connections</title></circle>
  <polyline points="65.0,295.4 76.6,295.5 248.1,295.3" fill="none" stroke="#98df8a" stroke-width="1.8"/>
  <circle cx="65.0" cy="295.4" r="3" fill="#98df8a"><title>yojimbo: 89.9 at 1 connections</title></circle>
  <circle cx="76.6" cy="295.5" r="3" fill="#98df8a"><title>yojimbo: 88 at 5 connections</title></circle>
  <circle cx="248.1" cy="295.3" r="3" fill="#98df8a"><title>yojimbo: 91.2 at 64 connections</title></circle>
  <rect x="65" y="347" width="12" height="10" fill="#1f77b4" rx="1"/>  <text x="81" y="355" font-size="9">apex_rudp</text>
  <rect x="342" y="347" width="12" height="10" fill="#ff7f0e" rx="1"/>  <text x="358" y="355" font-size="9">coop_rudp</text>
  <rect x="65" y="363" width="12" height="10" fill="#2ca02c" rx="1"/>  <text x="81" y="371" font-size="9">enet</text>
  <rect x="342" y="363" width="12" height="10" fill="#d62728" rx="1"/>  <text x="358" y="371" font-size="9">gns</text>
  <rect x="65" y="379" width="12" height="10" fill="#9467bd" rx="1"/>  <text x="81" y="387" font-size="9">kcp</text>
  <rect x="342" y="379" width="12" height="10" fill="#8c564b" rx="1"/>  <text x="358" y="387" font-size="9">litenetlib</text>
  <rect x="65" y="395" width="12" height="10" fill="#e377c2" rx="1"/>  <text x="81" y="403" font-size="9">lsquic</text>
  <rect x="342" y="395" width="12" height="10" fill="#7f7f7f" rx="1"/>  <text x="358" y="403" font-size="9">mini_rudp</text>
  <rect x="65" y="411" width="12" height="10" fill="#bcbd22" rx="1"/>  <text x="81" y="419" font-size="9">msquic</text>
  <rect x="342" y="411" width="12" height="10" fill="#17becf" rx="1"/>  <text x="358" y="419" font-size="9">quiche</text>
  <rect x="65" y="427" width="12" height="10" fill="#aec7e8" rx="1"/>  <text x="81" y="435" font-size="9">raknet</text>
  <rect x="342" y="427" width="12" height="10" fill="#ffbb78" rx="1"/>  <text x="358" y="435" font-size="9">slikenet</text>
  <rect x="65" y="443" width="12" height="10" fill="#98df8a" rx="1"/>  <text x="81" y="451" font-size="9">yojimbo</text>
</svg>
