<svg xmlns="http://www.w3.org/2000/svg" viewBox="0 0 640 400" font-family="sans-serif" font-size="11">
  <text x="342" y="18" text-anchor="middle" font-size="14" font-weight="bold">media_relay: delivery ratio vs connections</text>
  <rect x="65" y="35" width="555" height="275" fill="white" stroke="#ccc"/>
  <line x1="65" y1="297.5" x2="620.0" y2="297.5" stroke="#ddd" stroke-width="1"/>
  <text x="60" y="300.5" text-anchor="end" font-size="9" fill="#333">0</text>
  <line x1="65" y1="171.5" x2="620.0" y2="171.5" stroke="#ddd" stroke-width="1"/>
  <text x="60" y="174.5" text-anchor="end" font-size="9" fill="#333">0.5</text>
  <line x1="65" y1="45.4" x2="620.0" y2="45.4" stroke="#ddd" stroke-width="1"/>
  <text x="60" y="48.4" text-anchor="end" font-size="9" fill="#333">1</text>
  <line x1="201.7" y1="35" x2="201.7" y2="310.0" stroke="#ddd" stroke-width="1"/>
  <text x="201.7" y="324.0" text-anchor="middle" font-size="9" fill="#333">50</text>
  <line x1="341.1" y1="35" x2="341.1" y2="310.0" stroke="#ddd" stroke-width="1"/>
  <text x="341.1" y="324.0" text-anchor="middle" font-size="9" fill="#333">100</text>
  <line x1="480.6" y1="35" x2="480.6" y2="310.0" stroke="#ddd" stroke-width="1"/>
  <text x="480.6" y="324.0" text-anchor="middle" font-size="9" fill="#333">150</text>
  <line x1="620.0" y1="35" x2="620.0" y2="310.0" stroke="#ddd" stroke-width="1"/>
  <text x="620.0" y="324.0" text-anchor="middle" font-size="9" fill="#333">200</text>
  <text x="342" y="340" text-anchor="middle" font-size="11" fill="#333">connections</text>
  <text x="14" y="172" text-anchor="middle" font-size="11" fill="#333" transform="rotate(-90,14,172)">median delivery ratio</text>
  <line x1="65" y1="58.0" x2="620.0" y2="58.0" stroke="black" stroke-width="1.2" stroke-dasharray="6,4" opacity="0.55"/>
  <text x="618.0" y="55.0" text-anchor="end" font-size="9" fill="#333"> 0.95</text>
  <polyline points="65.0,297.5" fill="none" stroke="#1f77b4" stroke-width="1.8"/>
  <circle cx="65.0" cy="297.5" r="3" fill="#1f77b4"><title>apex_rudp: 0 at 1 connections</title></circle>
  <polyline points="65.0,51.3 76.2,50.9 201.7,50.9 271.4,51.4 341.1,50.3 410.8,50.4 480.6,51.1 620.0,77.2" fill="none" stroke="#ff7f0e" stroke-width="1.8"/>
  <circle cx="65.0" cy="51.3" r="3" fill="#ff7f0e"><title>coop_rudp: 0.9767 at 1 connections</title></circle>
  <circle cx="76.2" cy="50.9" r="3" fill="#ff7f0e"><title>coop_rudp: 0.9783 at 5 connections</title></circle>
  <circle cx="201.7" cy="50.9" r="3" fill="#ff7f0e"><title>coop_rudp: 0.9784 at 50 connections</title></circle>
  <circle cx="271.4" cy="51.4" r="3" fill="#ff7f0e"><title>coop_rudp: 0.9762 at 75 connections</title></circle>
  <circle cx="341.1" cy="50.3" r="3" fill="#ff7f0e"><title>coop_rudp: 0.9805 at 100 connections</title></circle>
  <circle cx="410.8" cy="50.4" r="3" fill="#ff7f0e"><title>coop_rudp: 0.9803 at 125 connections</title></circle>
  <circle cx="480.6" cy="51.1" r="3" fill="#ff7f0e"><title>coop_rudp: 0.9774 at 150 connections</title></circle>
  <circle cx="620.0" cy="77.2" r="3" fill="#ff7f0e"><title>coop_rudp: 0.8737 at 200 connections</title></circle>
  <polyline points="65.0,50.4 76.2,55.1 201.7,55.6 271.4,169.9" fill="none" stroke="#2ca02c" stroke-width="1.8"/>
  <circle cx="65.0" cy="50.4" r="3" fill="#2ca02c"><title>enet: 0.98 at 1 connections</title></circle>
  <circle cx="76.2" cy="55.1" r="3" fill="#2ca02c"><title>enet: 0.9614 at 5 connections</title></circle>
  <circle cx="201.7" cy="55.6" r="3" fill="#2ca02c"><title>enet: 0.9595 at 50 connections</title></circle>
  <circle cx="271.4" cy="169.9" r="3" fill="#2ca02c"><title>enet: 0.506 at 75 connections</title></circle>
  <polyline points="65.0,49.2 76.2,52.5 201.7,54.0 271.4,254.0" fill="none" stroke="#d62728" stroke-width="1.8"/>
  <circle cx="65.0" cy="49.2" r="3" fill="#d62728"><title>gns: 0.985 at 1 connections</title></circle>
  <circle cx="76.2" cy="52.5" r="3" fill="#d62728"><title>gns: 0.9717 at 5 connections</title></circle>
  <circle cx="201.7" cy="54.0" r="3" fill="#d62728"><title>gns: 0.9659 at 50 connections</title></circle>
  <circle cx="271.4" cy="254.0" r="3" fill="#d62728"><title>gns: 0.1724 at 75 connections</title></circle>
  <polyline points="65.0,50.0 76.2,51.6 201.7,50.5 271.4,161.2" fill="none" stroke="#9467bd" stroke-width="1.8"/>
  <circle cx="65.0" cy="50.0" r="3" fill="#9467bd"><title>kcp: 0.9817 at 1 connections</title></circle>
  <circle cx="76.2" cy="51.6" r="3" fill="#9467bd"><title>kcp: 0.9755 at 5 connections</title></circle>
  <circle cx="201.7" cy="50.5" r="3" fill="#9467bd"><title>kcp: 0.9799 at 50 connections</title></circle>
  <circle cx="271.4" cy="161.2" r="3" fill="#9467bd"><title>kcp: 0.5407 at 75 connections</title></circle>
  <polyline points="65.0,49.2 76.2,50.1 201.7,50.4" fill="none" stroke="#8c564b" stroke-width="1.8"/>
  <circle cx="65.0" cy="49.2" r="3" fill="#8c564b"><title>litenetlib: 0.985 at 1 connections</title></circle>
  <circle cx="76.2" cy="50.1" r="3" fill="#8c564b"><title>litenetlib: 0.9813 at 5 connections</title></circle>
  <circle cx="201.7" cy="50.4" r="3" fill="#8c564b"><title>litenetlib: 0.9802 at 50 connections</title></circle>
  <polyline points="65.0,50.0 76.2,51.1 201.7,70.7" fill="none" stroke="#e377c2" stroke-width="1.8"/>
  <circle cx="65.0" cy="50.0" r="3" fill="#e377c2"><title>lsquic: 0.9817 at 1 connections</title></circle>
  <circle cx="76.2" cy="51.1" r="3" fill="#e377c2"><title>lsquic: 0.9776 at 5 connections</title></circle>
  <circle cx="201.7" cy="70.7" r="3" fill="#e377c2"><title>lsquic: 0.8995 at 50 connections</title></circle>
  <polyline points="65.0,52.1 76.2,50.1 201.7,50.4 271.4,162.4" fill="none" stroke="#7f7f7f" stroke-width="1.8"/>
  <circle cx="65.0" cy="52.1" r="3" fill="#7f7f7f"><title>mini_rudp: 0.9733 at 1 connections</title></circle>
  <circle cx="76.2" cy="50.1" r="3" fill="#7f7f7f"><title>mini_rudp: 0.9812 at 5 connections</title></circle>
  <circle cx="201.7" cy="50.4" r="3" fill="#7f7f7f"><title>mini_rudp: 0.9803 at 50 connections</title></circle>
  <circle cx="271.4" cy="162.4" r="3" fill="#7f7f7f"><title>mini_rudp: 0.536 at 75 connections</title></circle>
  <polyline points="65.0,51.3 76.2,49.9 201.7,220.3" fill="none" stroke="#bcbd22" stroke-width="1.8"/>
  <circle cx="65.0" cy="51.3" r="3" fill="#bcbd22"><title>msquic: 0.9767 at 1 connections</title></circle>
  <circle cx="76.2" cy="49.9" r="3" fill="#bcbd22"><title>msquic: 0.982 at 5 connections</title></circle>
  <circle cx="201.7" cy="220.3" r="3" fill="#bcbd22"><title>msquic: 0.3062 at 50 connections</title></circle>
  <polyline points="65.0,52.5 76.2,51.6 201.7,171.2" fill="none" stroke="#17becf" stroke-width="1.8"/>
  <circle cx="65.0" cy="52.5" r="3" fill="#17becf"><title>quiche: 0.9717 at 1 connections</title></circle>
  <circle cx="76.2" cy="51.6" r="3" fill="#17becf"><title>quiche: 0.9755 at 5 connections</title></circle>
  <circle cx="201.7" cy="171.2" r="3" fill="#17becf"><title>quiche: 0.501 at 50 connections</title></circle>
  <polyline points="65.0,47.5 76.2,57.7 201.7,89.7" fill="none" stroke="#aec7e8" stroke-width="1.8"/>
  <circle cx="65.0" cy="47.5" r="3" fill="#aec7e8"><title>raknet: 0.9917 at 1 connections</title></circle>
  <circle cx="76.2" cy="57.7" r="3" fill="#aec7e8"><title>raknet: 0.9511 at 5 connections</title></circle>
  <circle cx="201.7" cy="89.7" r="3" fill="#aec7e8"><title>raknet: 0.8244 at 50 connections</title></circle>
  <polyline points="65.0,52.1 76.2,50.6 201.7,88.6" fill="none" stroke="#ffbb78" stroke-width="1.8"/>
  <circle cx="65.0" cy="52.1" r="3" fill="#ffbb78"><title>slikenet: 0.9733 at 1 connections</title></circle>
  <circle cx="76.2" cy="50.6" r="3" fill="#ffbb78"><title>slikenet: 0.9795 at 5 connections</title></circle>
  <circle cx="201.7" cy="88.6" r="3" fill="#ffbb78"><title>slikenet: 0.8288 at 50 connections</title></circle>
  <polyline points="65.0,48.4 76.2,54.7 201.7,196.4" fill="none" stroke="#98df8a" stroke-width="1.8"/>
  <circle cx="65.0" cy="48.4" r="3" fill="#98df8a"><title>yojimbo: 0.9883 at 1 connections</title></circle>
  <circle cx="76.2" cy="54.7" r="3" fill="#98df8a"><title>yojimbo: 0.9633 at 5 connections</title></circle>
  <circle cx="201.7" cy="196.4" r="3" fill="#98df8a"><title>yojimbo: 0.4009 at 50 connections</title></circle>
  <rect x="65" y="347" width="12" height="10" fill="#1f77b4" rx="1"/>  <text x="81" y="355" font-size="9">apex_rudp</text>
  <rect x="342" y="347" width="12" height="10" fill="#ff7f0e" rx="1"/>  <text x="358" y="355" font-size="9">coop_rudp</text>
  <rect x="65" y="363" width="12" height="10" fill="#2ca02c" rx="1"/>  <text x="81" y="371" font-size="9">enet</text>
  <rect x="342" y="363" width="12" height="10" fill="#d62728" rx="1"/>  <text x="358" y="371" font-size="9">gns</text>
  <rect x="65" y="379" width="12" height="10" fill="#9467bd" rx="1"/>  <text x="81" y="387" font-size="9">kcp</text>
  <rect x="342" y="379" width="12" height="10" fill="#8c564b" rx="1"/>  <text x="358" y="387" font-size="9">litenetlib</text>
  <rect x="65" y="395" width="12" height="10" fill="#e377c2" rx="1"/>  <text x="81" y="403" font-size="9">lsquic</text>
  <rect x="342" y="395" width="12" height="10" fill="#7f7f7f" rx="1"/>  <text x="358" y="403" font-size="9">mini_rudp</text>
  <rect x="65" y="411" width="12" height="10" fill="#bcbd22" rx="1"/>  <text x="81" y="419" font-size="9">msquic</text>
  <rect x="342" y="411" width="12" height="10" fill="#17becf" rx="1"/>  <text x="358" y="419" font-size="9">quiche</text>
  <rect x="65" y="427" width="12" height="10" fill="#aec7e8" rx="1"/>  <text x="81" y="435" font-size="9">raknet</text>
  <rect x="342" y="427" width="12" height="10" fill="#ffbb78" rx="1"/>  <text x="358" y="435" font-size="9">slikenet</text>
  <rect x="65" y="443" width="12" height="10" fill="#98df8a" rx="1"/>  <text x="81" y="451" font-size="9">yojimbo</text>
</svg>
