<svg xmlns="http://www.w3.org/2000/svg" viewBox="0 0 640 400" font-family="sans-serif" font-size="11">
  <text x="342" y="18" text-anchor="middle" font-size="14" font-weight="bold">media_relay: server CPU vs connections</text>
  <rect x="65" y="35" width="555" height="275" fill="white" stroke="#ccc"/>
  <line x1="65" y1="214.0" x2="620.0" y2="214.0" stroke="#ddd" stroke-width="1"/>
  <text x="60" y="217.0" text-anchor="end" font-size="9" fill="#333">50</text>
  <line x1="65" y1="115.6" x2="620.0" y2="115.6" stroke="#ddd" stroke-width="1"/>
  <text x="60" y="118.6" text-anchor="end" font-size="9" fill="#333">100</text>
  <line x1="201.7" y1="35" x2="201.7" y2="310.0" stroke="#ddd" stroke-width="1"/>
  <text x="201.7" y="324.0" text-anchor="middle" font-size="9" fill="#333">50</text>
  <line x1="341.1" y1="35" x2="341.1" y2="310.0" stroke="#ddd" stroke-width="1"/>
  <text x="341.1" y="324.0" text-anchor="middle" font-size="9" fill="#333">100</text>
  <line x1="480.6" y1="35" x2="480.6" y2="310.0" stroke="#ddd" stroke-width="1"/>
  <text x="480.6" y="324.0" text-anchor="middle" font-size="9" fill="#333">150</text>
  <line x1="620.0" y1="35" x2="620.0" y2="310.0" stroke="#ddd" stroke-width="1"/>
  <text x="620.0" y="324.0" text-anchor="middle" font-size="9" fill="#333">200</text>
  <text x="342" y="340" text-anchor="middle" font-size="11" fill="#333">connections</text>
  <text x="14" y="172" text-anchor="middle" font-size="11" fill="#333" transform="rotate(-90,14,172)">median server CPU %</text>
  <polyline points="65.0,291.3" fill="none" stroke="#1f77b4" stroke-width="1.8"/>
  <circle cx="65.0" cy="291.3" r="3" fill="#1f77b4"><title>apex_rudp: 10.7 at 1 connections</title></circle>
  <polyline points="65.0,293.0 76.2,292.5 201.7,285.6 271.4,278.7 341.1,266.5 410.8,242.7 480.6,204.6 620.0,117.9" fill="none" stroke="#ff7f0e" stroke-width="1.8"/>
  <circle cx="65.0" cy="293.0" r="3" fill="#ff7f0e"><title>coop_rudp: 9.86 at 1 connections</title></circle>
  <circle cx="76.2" cy="292.5" r="3" fill="#ff7f0e"><title>coop_rudp: 10.11 at 5 connections</title></circle>
  <circle cx="201.7" cy="285.6" r="3" fill="#ff7f0e"><title>coop_rudp: 13.63 at 50 connections</title></circle>
  <circle cx="271.4" cy="278.7" r="3" fill="#ff7f0e"><title>coop_rudp: 17.14 at 75 connections</title></circle>
  <circle cx="341.1" cy="266.5" r="3" fill="#ff7f0e"><title>coop_rudp: 23.34 at 100 connections</title></circle>
  <circle cx="410.8" cy="242.7" r="3" fill="#ff7f0e"><title>coop_rudp: 35.39 at 125 connections</title></circle>
  <circle cx="480.6" cy="204.6" r="3" fill="#ff7f0e"><title>coop_rudp: 54.78 at 150 connections</title></circle>
  <circle cx="620.0" cy="117.9" r="3" fill="#ff7f0e"><title>coop_rudp: 98.81 at 200 connections</title></circle>
  <polyline points="65.0,292.0 76.2,290.2 201.7,159.0 271.4,121.1" fill="none" stroke="#2ca02c" stroke-width="1.8"/>
  <circle cx="65.0" cy="292.0" r="3" fill="#2ca02c"><title>enet: 10.35 at 1 connections</title></circle>
  <circle cx="76.2" cy="290.2" r="3" fill="#2ca02c"><title>enet: 11.28 at 5 connections</title></circle>
  <circle cx="201.7" cy="159.0" r="3" fill="#2ca02c"><title>enet: 77.92 at 50 connections</title></circle>
  <circle cx="271.4" cy="121.1" r="3" fill="#2ca02c"><title>enet: 97.22 at 75 connections</title></circle>
  <polyline points="65.0,294.2 76.2,291.2 201.7,85.6 271.4,47.5" fill="none" stroke="#d62728" stroke-width="1.8"/>
  <circle cx="65.0" cy="294.2" r="3" fill="#d62728"><title>gns: 9.27 at 1 connections</title></circle>
  <circle cx="76.2" cy="291.2" r="3" fill="#d62728"><title>gns: 10.76 at 5 connections</title></circle>
  <circle cx="201.7" cy="85.6" r="3" fill="#d62728"><title>gns: 115.25 at 50 connections</title></circle>
  <circle cx="271.4" cy="47.5" r="3" fill="#d62728"><title>gns: 134.59 at 75 connections</title></circle>
  <polyline points="65.0,294.0 76.2,293.3 201.7,169.2 271.4,117.9" fill="none" stroke="#9467bd" stroke-width="1.8"/>
  <circle cx="65.0" cy="294.0" r="3" fill="#9467bd"><title>kcp: 9.33 at 1 connections</title></circle>
  <circle cx="76.2" cy="293.3" r="3" fill="#9467bd"><title>kcp: 9.7 at 5 connections</title></circle>
  <circle cx="201.7" cy="169.2" r="3" fill="#9467bd"><title>kcp: 72.74 at 50 connections</title></circle>
  <circle cx="271.4" cy="117.9" r="3" fill="#9467bd"><title>kcp: 98.81 at 75 connections</title></circle>
  <polyline points="65.0,291.4 76.2,289.7 201.7,129.6" fill="none" stroke="#8c564b" stroke-width="1.8"/>
  <circle cx="65.0" cy="291.4" r="3" fill="#8c564b"><title>litenetlib: 10.65 at 1 connections</title></circle>
  <circle cx="76.2" cy="289.7" r="3" fill="#8c564b"><title>litenetlib: 11.51 at 5 connections</title></circle>
  <circle cx="201.7" cy="129.6" r="3" fill="#8c564b"><title>litenetlib: 92.88 at 50 connections</title></circle>
  <polyline points="65.0,292.9 76.2,291.3 201.7,136.9" fill="none" stroke="#e377c2" stroke-width="1.8"/>
  <circle cx="65.0" cy="292.9" r="3" fill="#e377c2"><title>lsquic: 9.92 at 1 connections</title></circle>
  <circle cx="76.2" cy="291.3" r="3" fill="#e377c2"><title>lsquic: 10.72 at 5 connections</title></circle>
  <circle cx="201.7" cy="136.9" r="3" fill="#e377c2"><title>lsquic: 89.18 at 50 connections</title></circle>
  <polyline points="65.0,294.8 76.2,293.6 201.7,168.2 271.4,117.9" fill="none" stroke="#7f7f7f" stroke-width="1.8"/>
  <circle cx="65.0" cy="294.8" r="3" fill="#7f7f7f"><title>mini_rudp: 8.95 at 1 connections</title></circle>
  <circle cx="76.2" cy="293.6" r="3" fill="#7f7f7f"><title>mini_rudp: 9.55 at 5 connections</title></circle>
  <circle cx="201.7" cy="168.2" r="3" fill="#7f7f7f"><title>mini_rudp: 73.24 at 50 connections</title></circle>
  <circle cx="271.4" cy="117.9" r="3" fill="#7f7f7f"><title>mini_rudp: 98.82 at 75 connections</title></circle>
  <polyline points="65.0,297.5 76.2,291.5 201.7,121.7" fill="none" stroke="#bcbd22" stroke-width="1.8"/>
  <circle cx="65.0" cy="297.5" r="3" fill="#bcbd22"><title>msquic: 7.57 at 1 connections</title></circle>
  <circle cx="76.2" cy="291.5" r="3" fill="#bcbd22"><title>msquic: 10.61 at 5 connections</title></circle>
  <circle cx="201.7" cy="121.7" r="3" fill="#bcbd22"><title>msquic: 96.88 at 50 connections</title></circle>
  <polyline points="65.0,289.3 76.2,264.8 201.7,130.1" fill="none" stroke="#17becf" stroke-width="1.8"/>
  <circle cx="65.0" cy="289.3" r="3" fill="#17becf"><title>quiche: 11.72 at 1 connections</title></circle>
  <circle cx="76.2" cy="264.8" r="3" fill="#17becf"><title>quiche: 24.17 at 5 connections</title></circle>
  <circle cx="201.7" cy="130.1" r="3" fill="#17becf"><title>quiche: 92.61 at 50 connections</title></circle>
  <polyline points="65.0,294.6 76.2,292.2 201.7,111.4" fill="none" stroke="#aec7e8" stroke-width="1.8"/>
  <circle cx="65.0" cy="294.6" r="3" fill="#aec7e8"><title>raknet: 9.03 at 1 connections</title></circle>
  <circle cx="76.2" cy="292.2" r="3" fill="#aec7e8"><title>raknet: 10.25 at 5 connections</title></circle>
  <circle cx="201.7" cy="111.4" r="3" fill="#aec7e8"><title>raknet: 102.12 at 50 connections</title></circle>
  <polyline points="65.0,294.6 76.2,292.1 201.7,110.8" fill="none" stroke="#ffbb78" stroke-width="1.8"/>
  <circle cx="65.0" cy="294.6" r="3" fill="#ffbb78"><title>slikenet: 9.04 at 1 connections</title></circle>
  <circle cx="76.2" cy="292.1" r="3" fill="#ffbb78"><title>slikenet: 10.32 at 5 connections</title></circle>
  <circle cx="201.7" cy="110.8" r="3" fill="#ffbb78"><title>slikenet: 102.41 at 50 connections</title></circle>
  <polyline points="65.0,291.4 76.2,289.9 201.7,228.3" fill="none" stroke="#98df8a" stroke-width="1.8"/>
  <circle cx="65.0" cy="291.4" r="3" fill="#98df8a"><title>yojimbo: 10.67 at 1 connections</title></circle>
  <circle cx="76.2" cy="289.9" r="3" fill="#98df8a"><title>yojimbo: 11.43 at 5 connections</title></circle>
  <circle cx="201.7" cy="228.3" r="3" fill="#98df8a"><title>yojimbo: 42.73 at 50 connections</title></circle>
  <rect x="65" y="347" width="12" height="10" fill="#1f77b4" rx="1"/>  <text x="81" y="355" font-size="9">apex_rudp</text>
  <rect x="342" y="347" width="12" height="10" fill="#ff7f0e" rx="1"/>  <text x="358" y="355" font-size="9">coop_rudp</text>
  <rect x="65" y="363" width="12" height="10" fill="#2ca02c" rx="1"/>  <text x="81" y="371" font-size="9">enet</text>
  <rect x="342" y="363" width="12" height="10" fill="#d62728" rx="1"/>  <text x="358" y="371" font-size="9">gns</text>
  <rect x="65" y="379" width="12" height="10" fill="#9467bd" rx="1"/>  <text x="81" y="387" font-size="9">kcp</text>
  <rect x="342" y="379" width="12" height="10" fill="#8c564b" rx="1"/>  <text x="358" y="387" font-size="9">litenetlib</text>
  <rect x="65" y="395" width="12" height="10" fill="#e377c2" rx="1"/>  <text x="81" y="403" font-size="9">lsquic</text>
  <rect x="342" y="395" width="12" height="10" fill="#7f7f7f" rx="1"/>  <text x="358" y="403" font-size="9">mini_rudp</text>
  <rect x="65" y="411" width="12" height="10" fill="#bcbd22" rx="1"/>  <text x="81" y="419" font-size="9">msquic</text>
  <rect x="342" y="411" width="12" height="10" fill="#17becf" rx="1"/>  <text x="358" y="419" font-size="9">quiche</text>
  <rect x="65" y="427" width="12" height="10" fill="#aec7e8" rx="1"/>  <text x="81" y="435" font-size="9">raknet</text>
  <rect x="342" y="427" width="12" height="10" fill="#ffbb78" rx="1"/>  <text x="358" y="435" font-size="9">slikenet</text>
  <rect x="65" y="443" width="12" height="10" fill="#98df8a" rx="1"/>  <text x="81" y="451" font-size="9">yojimbo</text>
</svg>
